<svg xmlns="http://www.w3.org/2000/svg" width="512" height="512"><path d="M112.143 202.714L83.57 216.286l-34.285 7.143-13.572-2.143-5 4.285 4.643 4.286 5.357 4.643 7.857 5.714 10 3.572 5 4.643 4.643 5 2.857 1.785 5.358.357 5.357 1.072L88.929 252l2.857-2.857 5.714-5 6.429-6.072 6.428-4.285 7.857-5.715 7.143-3.571s5.357-2.857 6.786-3.214c1.428-.357 5.357-2.143 5.357-2.143l10-3.572 6.429-3.214s-5.358 2.5 4.642-1.786c10-4.285 15-5.714 15-5.714l8.215-3.571 5.714-1.786 1.429-1.429-1.072-1.071-7.5-5.714-9.643-1.072-12.143-.357-12.857 5-8.571 3.929-5 3.214-6.072 1.429z"/><path d="M94.286 93.429l-2.5 6.071v5l1.428 2.5 3.215 1.429 2.142 7.5L105 127l3.571 2.5s.715 2.5 1.072 4.286c.357 1.785 3.214 11.428 3.214 12.857 0 1.428.357 12.857.357 12.857l2.143 17.143 1.786 20.714 2.5 17.143 1.428 20.357v10.357l-2.5 11.429-1.071 5-1.786 17.143s-1.071 8.214-2.143 11.785C112.5 294.143 110 304.5 110 304.5l-2.857 8.214-2.857 7.143v4.643l2.143 4.643 1.428 1.786L111.43 332l5-5.714 3.928-12.143L124.643 302l4.643-14.643 2.143-17.857 1.785-10 1.072-14.286v-18.928l.714-15-1.071-26.429 1.785-14.643 2.143-14.285.357-7.858-.714-9.285.357-9.286-3.571-7.857-3.572-3.572-5.357-7.142-4.286-3.215-4.285-3.214-6.072-3.214-7.143-3.572-6.428-2.5z"/><path d="M82.5 325.929L71.071 332l-17.5 6.786-9.642 1.785-5 .358L35 344.5l-1.429 7.5 4.286 3.571s2.5 3.929 3.929 5.715c1.428 1.785 3.571 7.5 3.571 7.5l3.929 2.5 5.357.357 8.214 4.286 12.857-1.429L80 370.214l1.786-5.357 2.857-5.357 3.928-5 8.572-5.357 11.428-7.5 6.334-4.904 7.829-6.061 4.545-3.788 9.597-5.051 5.556-5.051 4.545-2.778 4.546-1.768 2.778-1.515 5.808-2.525 4.546-1.768 4.293-2.525 2.778-3.788 2.02-3.536.758-2.02.252-3.788-.252-2.02-3.788-.758-6.819 2.525s-4.798 3.536-6.313 4.798c-1.515 1.263-11.112 7.071-11.112 7.071l-6.566 3.283-10.606 4.546-4.041 1.515-11.87 2.778-15.91 7.576-9.343 3.283zM301.53 159.962l-11.111 3.535-17.678 8.082-12.627 1.515h-22.223l-9.597-.505-6.06 3.535v5.051l4.04 1.515s6.566 4.546 8.586 5.051c2.02.505 5.556 6.566 5.556 6.566l4.04 5.05 5.052 1.516 7.576 2.525h14.647l8.586-3.535 6.061-4.546 12.627-6.566 21.213-7.576 5.556-4.546 10.102-4.04 9.091-3.03 14.142-7.577 11.617-5.05 6.06-2.02 3.031-3.031 1.516-8.082.505-5.05v-2.526l-5.556-2.525s-6.566-.505-9.597 0c-3.03.505-9.596 3.535-9.596 3.535l-11.617 4.041-13.132 5.556-17.677 6.566-10.102 5.05z"/><path d="M198.214 212.714l4.643 7.143 3.572 3.572 1.785 7.142 2.857 10.358 1.786 10.714s.357 3.928.357 8.571.357 9.643-.714 12.143-1.429 8.929-1.786 10.714c-.357 1.786-3.214 9.286-3.571 11.429-.357 2.143-2.5 12.5-2.5 12.5s-3.929 9.286-4.643 11.429c-.714 2.142-1.071 4.642-1.786 7.142-.714 2.5-4.643 13.215-5.714 16.786-1.071 3.572-2.857 6.786-3.571 9.286-.715 2.5-4.286 12.857-4.286 12.857l-5.714 8.214s-2.143 3.215-6.072 7.5c-3.928 4.286-3.928 4.643-5.714 5.715-1.786 1.071-10.357 3.214-10.357 3.214l-8.215.357-4.642.357-3.215 1.429-3.214 4.285-1.786 5-.357.358-.357.714.714 3.214h3.215l5.357 1.072 8.214-2.143 6.786-5 5.714-2.857 5.357-2.143 8.929-10.715 8.214-9.642 6.429-9.643 2.5-5.715 4.642-8.214s1.072-3.571 1.786-5.714c.714-2.143 6.429-12.857 6.429-12.857L212.857 317l3.572-11.071L220 294.143l3.214-14.643 1.429-13.571 1.071-8.572 2.857-16.071v-8.929l-.714-8.214-1.786-3.929-2.857-3.214-3.214-2.857-2.5-2.5-6.429-1.786h-10z"/><path d="M310 209.143l-4.286 4.286-2.143 6.785-2.5 5.715-2.142 5.357s-3.929 4.643-6.429 6.428c-2.5 1.786-6.071 3.929-8.571 5.357-2.5 1.429-13.929 5.715-13.929 5.715l-9.286 3.571-11.071 5.357-5 2.5-11.429.357-3.928-.357-11.429-2.857-2.5 3.572.714 1.428.358 3.214h2.857l8.571 1.786 1.786 2.5L235 274.5l3.929 7.143 3.214 1.786 9.643 4.285s.714.357 6.071.357c5.357 0 10.357-.714 10.357-.714l3.929-5.357 5-3.571 3.928-3.215 6.786-5.357 4.643-3.928h3.571l1.072 2.857 1.428 5.357s0 6.071-1.071 9.286c-1.071 3.214-5.357 12.5-5.357 12.5L290 301.286l-3.929 10-3.214 9.643s-3.571 5-4.286 6.785c-.714 1.786-6.428 11.786-6.428 11.786L270 345.571l-5 10.715-2.857 5-5 9.643-1.786.357L250 364.5l-3.929-3.214-1.071-2.5-3.214-.357-3.929 6.071.714 5.714 3.215 8.215 1.428 4.642-2.143 8.572s-1.785 2.143-2.5 5c-.714 2.857-1.428 6.071-1.428 6.071l-3.214 5.357.357 1.786-.357 2.857h4.285l1.786-.357 1.429-1.071s-.715 1.428 1.785-1.786l2.5-3.214 4.643-8.572 3.572-3.571 4.285-4.286 8.215-7.5 3.928-6.428 3.214-8.215 5.715-16.428 4.643-8.215 2.5-6.785 4.642-8.572 3.215-7.143L301.07 302l4.643-7.143 5-13.928 8.572-19.643 1.785-5.715 3.215-7.5s2.5-4.285 3.214-6.071c.714-1.786 1.786-8.929 1.786-8.929l.714-5.357v-3.571l-3.929-4.286-3.571-3.571-3.214-3.572-5-1.785z"/><path d="M235.366.863l-1.516 8.586 4.546 7.071 9.596 10.102 8.082 9.091s9.091 12.122 10.606 15.152c1.515 3.03 8.081 13.637 8.081 13.637s.506 4.041 2.02 11.617c1.516 7.576 7.577 18.183 7.577 18.183l4.546 15.657 4.545 8.082 5.051 14.647 2.02 12.627 7.071 25.253 8.334 33.84 7.071 24.497 2.526 6.06 6.818 4.041 5.051 4.293s.758 3.788 1.263 5.051l3.03 7.576 6.314 13.132 4.86 17.942 5.356 11.429 7.143 13.214 7.857 15 7.5 6.786 4.643 7.142L391.786 352l14.285 23.571 10.715 13.572 9.285 13.214 6.429 7.5 10.357 7.857L450 428.071l10.357 12.143 9.286 6.072 12.5 5.714 10.357 2.857 1.429-1.071 3.571-3.929 1.786-7.857-.357-5-3.929-8.214-1.429-4.286.358-9.643-.358-4.643V407l-2.857-.357-7.143 2.5-3.214 3.571-11.071-1.428-8.215-1.786s-7.5-7.857-8.928-8.214c-1.429-.357-11.429-10-11.429-10L426.43 378.07 412.5 360.93 400 341.286l-11.071-17.143-11.072-16.429-7.143-17.857-7.5-12.857-6.428-13.929s-3.215-5.357-5-8.571c-1.786-3.214-6.429-13.571-6.429-13.571l-7.143-13.572-2.857-10-4.643-12.857-3.214-12.143-2.5-4.643-7.5-26.071-8.929-27.5-10.714-45.714-5-16.072-3.928-11.786-.715-7.5v-4.285l3.215-3.572 1.428-2.5-2.5-7.5-3.214-7.143-8.929-7.5-8.571-5.357L259.286 9.5l-10-5-8.929-3.929zM360 64.143l7.143 3.571 7.143 6.429L382.5 79.5l5.357 4.643s3.929 2.857 4.643 4.286c.714 1.428 2.5 3.571 4.286 5.357 1.785 1.785 6.785 2.857 7.5 5.357.714 2.5 4.643 6.428 4.643 6.428s3.928 1.786 5.357 2.858c1.428 1.071 1.785 1.071 1.785 1.071l4.286.357 2.143-1.071.714-5.357L424.643 97l-2.857-3.929-2.857-8.928-2.5-2.857-2.858-5-7.857-7.5-3.571-2.857-10.357-6.429-5.357-1.429s-3.929-2.5-5.358-2.5c-1.428 0-3.214-.357-3.214-.357l-5 1.429-5 1.428-4.286 1.072-1.071 1.428z"/><path d="M396.786 221.286l.357 5.357-3.572 9.286-5.714 12.5-5.714 10.357-3.572 9.285-3.214 8.215-11.071 18.214-9.643 15.357-5 11.786-4.286 7.857-11.786 11.429-8.571 8.214s-5.714 3.214-7.5 4.286c-1.786 1.071-5.357 3.571-5.357 3.571l-6.786 4.643-1.786 4.286v2.857l5 6.428 3.215 5 5 3.572 4.643 1.071 5-.357 3.571-2.857-.357-4.643-1.429-3.214-1.428-4.643.714-2.857 1.786-4.643 5.357-2.857 6.428-5.357 11.429-5 6.429-6.072 2.5-5 2.857-5 3.393-5 8.214-9.643 8.214-11.607 2.143-6.607 2.143-6.607 6.964-18.036 2.857-7.143 2.5-8.571 2.857-10.714v-5.358l-1.071-10v-2.5l-.357-5v-3.928l-.357-5-2.5 1.786z"/></svg>