<svg xmlns="http://www.w3.org/2000/svg" width="512" height="512"><path d="M21.97 282.443s1.516 1.515 2.526 5.05c1.01 3.536 2.778 6.567 3.536 8.587.757 2.02 1.01 1.768 2.02 5.05 1.01 3.284 2.778 8.84 2.778 8.84l3.03 7.576s1.263 4.04 2.02 6.566c.758 2.525 2.021 4.293 1.01 10.101-1.01 5.809-1.01 12.627-1.01 12.627s.253 6.314-.252 7.576c-.505 1.263-1.557 7.584-1.557 7.584L35 370.214s0 .357-1.786 1.786c-1.785 1.429-3.928 2.143-3.928 2.143l-5.357 1.428-11.072 2.858s-1.071 1.428-1.786 2.857l-4.285 8.571.714 13.572 2.143 6.785 4.643 5.357 2.5 1.429s7.857.714 10.357-1.071c2.5-1.786 9.643-7.143 11.786-8.572 2.142-1.428 6.428-6.071 8.214-8.214 1.786-2.143 6.428-12.857 6.428-12.857s2.5-10.357 3.215-12.5c.714-2.143 2.143-7.5 3.214-10.715 1.071-3.214 3.929-10.357 4.286-12.5.357-2.142 2.5-15.357 2.5-18.928v-12.857l-7.857-16.072-5.715-9.285-5.737-9.723-2.273-6.061-2.778-4.041-5.303-3.283-6.566-1.515s-4.798 2.273-5.05 3.535c-.253 1.263-1.01 3.03-1.263 4.799-.253 1.767-1.01 5.303-1.01 5.303zM99.643 174.5l6.071 6.786 4.643 1.071 6.072 2.5 5.714 7.5s2.5 9.286 3.571 14.286c1.072 5 2.143 14.286 1.429 17.5-.714 3.214-1.429 15.714-1.429 15.714l-.357 12.5V269.5c0 2.857-.357 12.5-.357 15s0 5.357-.357 10.714-.357 8.572-.357 10.357c0 1.786 1.071 13.215 1.071 13.215s0 5.714-.357 9.285c-.357 3.572-.714 10-.714 10s1.071 8.215 1.071 9.643c0 1.429 1.786 9.286 1.786 9.286l3.571 7.143s1.429-.357 3.215-.714c1.785-.358 5-7.858 5-7.858l1.428-10 1.072-13.214s.714-4.286.714-8.928c0-4.643.714-19.286.714-19.286L142.143 287l.357-13.571.357-14.286 1.429-10.357 1.428-18.572L147.5 222l2.857-10.714 3.214-11.072S155 196.286 155 193.43c0-2.858-2.5-11.429-2.5-11.429s-4.286-4.286-5.714-6.071c-1.429-1.786-7.143-7.858-7.143-7.858L135 158.43l-1.786-6.072-1.071-3.571-2.5-5-3.572-3.215-6.428-.714-8.214.357-3.929 6.072-1.429 6.071s-.714-.714-.357 3.214l.357 3.929-3.928 1.429-3.929 2.5-.357 2.5c-.357 2.5-.357 7.5-.357 7.5z"/><path d="M212.132 338.759s-16.92 1.515-18.688 2.02c-1.768.505-27.274 5.303-27.274 5.303l-11.112 1.01-20.203 3.031-22.476 5.808s-9.343 2.526-14.394 3.788c-5.051 1.263-17.425 3.031-17.425 3.031l-5.809 1.01-20.96 4.04s-3.536 0-6.314 1.263-13.548 8.473-13.548 8.473-5.179 1.785-5.358 3.214c-.178 1.429-.892 6.786.179 7.143 1.071.357 2.321 1.786 5 1.964 2.679.179 37.143-5.536 37.143-5.536s7.857-3.571 8.571-3.928c.715-.357 10.357-3.929 10.357-3.929l32.143-5.893 18.215-5 11.607-3.392s13.75-3.393 14.821-3.572c1.072-.178 20.714-5 21.786-5.357 1.071-.357 10.357-.893 10.357-.893h6.786c.714 0 7.321 1.25 7.321 1.25s5.893 0 6.786.179c.893.178 6.071-.357 6.071-.357s3.572-1.608 3.75-2.858c.179-1.25.179-8.214.179-8.214s-6.429-5.714-10.179-5.714-7.332 2.116-7.332 2.116z"/><path d="M200.714 290.571l7.857 7.143s3.215 5 3.215 6.786c0 1.786.714 14.286.714 16.071 0 1.786.357 8.215.357 8.215l.538 19.064-.758 13.132s.505 6.314 0 8.081c-.505 1.768-.757 2.778-1.768 5.809-1.01 3.03-1.767 4.545-1.767 4.545s3.535 7.577 3.788 8.84c.252 1.262-.253 0 1.262 2.525 1.516 2.525 3.283 3.535 4.293 3.788 1.01.252 1.516 5.05 5.809 0 4.293-5.051 4.798-6.061 4.798-6.061s1.768-5.05 2.02-7.324c.253-2.273.505-12.627.758-15.152.253-2.525 2.273-19.193 2.273-19.193s.757-6.06.757-10.101c0-4.041.758-10.355.758-10.355l3.03-11.364 1.516-7.07 2.273-6.82.505-6.06-1.768-3.283-2.778-4.04-5.556-5.304-3.535-3.788-6.061-3.788-4.04-1.516-6.314-2.272s-1.263-1.263-4.293-1.263c-3.031 0-2.526-1.01-7.072.505-4.545 1.515-7.07 2.525-7.07 2.525l-7.324 1.768-3.03 1.01-3.536 2.273s-1.515 3.03-1.515 5.05c0 2.021 1.262 4.042 2.272 4.547 1.01.505 6.314 1.262 6.314 1.262s1.01-.757 3.283 0c2.273.758 11.112 2.02 9.795 1.815zM212.637 195.822s7.071 9.597 9.091 10.102c2.02.505 10.102 9.596 10.102 9.596s5.05 5.051 8.586 9.092c3.536 4.04 10.102 19.698 10.102 21.718 0 2.02 2.02 9.091 3.03 14.142 1.01 5.05 3.536 14.142 3.536 16.162 0 2.02 2.02 13.638 2.525 19.193.505 5.556 1.515 9.092 1.515 14.142 0 5.051 2.02 18.688 2.02 18.688l.506 14.648 1.01 10.606s-.505 3.03.505 5.556c1.01 2.525 1.515 4.546 2.02 7.071.505 2.525 4.041 12.122 4.041 12.122l5.556 2.02h2.525s4.546-2.525 4.546-5.05c0-2.526 3.03-11.617 3.535-13.638.505-2.02 0-8.586 0-8.586l-3.03-21.718.505-25.254-4.546-23.739-3.03-21.718-2.526-16.667-2.525-17.173-1.515-9.596s-3.03-7.072-3.536-10.607c-.505-3.536-2.02-6.061-2.02-6.061l-5.556-9.091-7.576-8.082-15.657-7.07s-3.536-2.02-9.092-.506c-5.556 1.516-6.566 1.01-8.586 3.536-2.02 2.525-6.06 11.111-6.06 11.111zM431.84 159.457s-25.254 4.04-32.83 4.04c-7.576 0-15.152 1.01-20.203 3.03-5.05 2.021-8.081 5.052-15.152 7.072-7.071 2.02-23.739 6.566-23.739 6.566s.505 2.525-9.091 5.05c-9.596 2.526-12.122 1.516-16.162 3.031-4.041 1.515-2.526 2.525-9.092 4.546-6.566 2.02-6.566 3.03-10.606 3.03-4.041 0-11.617-.505-13.132-4.545-1.516-4.041-3.03-6.566-3.03-9.092 0-2.525 0-4.04 1.514-7.07 1.516-3.031 4.04-7.577 4.04-7.577s3.031-3.536 5.052-4.546c2.02-1.01 4.545-3.03 4.545-3.03h8.587s11.111-1.515 14.142-1.515h20.708c2.02 0 22.223-.505 24.749-1.01 2.525-.506 18.182-2.526 20.203-3.031 2.02-.505 17.677-1.01 17.677-1.01s4.041-1.515 11.617-2.526c7.576-1.01 13.637-2.525 13.637-2.525s2.526-1.515 5.051-2.525c2.525-1.01 7.071-4.04 11.112-6.566 4.04-2.526 10.101-6.566 10.101-6.566l4.546-2.02 7.576-.506 8.586 3.03s2.02 2.021 5.051 4.546c3.03 2.526 9.091 7.072 9.091 7.072l4.041 6.06c3.03 4.546 7.071 8.587 7.071 8.587l5.05 11.111s1.011 3.03 1.011 8.082c0 5.05 1.01 11.111.505 15.657-.505 4.546-.505 3.536-4.546 11.617-4.04 8.081-7.07 12.122-7.576 16.667-.505 4.546-.505 5.051-1.515 10.607-1.01 5.556-1.515 10.101-2.525 12.627-1.01 2.525-6.061 13.132-6.061 13.132l-6.566 19.698-2.526 11.111-2.525 11.112s1.01 12.627.505 16.668c-.505 4.04-2.525 14.142-2.525 14.142l-1.516 11.617s.506 11.616 0 14.142c-.505 2.525-1.515 7.07-2.02 11.616-.505 4.546-.505 9.597-2.02 11.617-1.515 2.02-8.586 8.081-8.586 8.081l-11.112-6.566-2.02-12.627v-14.142l1.515-12.121s1.515-10.607 3.535-13.638c2.02-3.03 5.556-10.101 5.556-10.101l3.536-12.627s2.02-12.122 2.525-17.173c.505-5.05 2.525-19.698 2.525-19.698l5.556-29.799 2.02-19.193 3.031-15.657 1.01-16.163 1.01-13.637 1.01-11.617s-2.525-7.07-4.545-7.576c-2.02-.505-10.607-3.03-13.637-3.03h-12.122c-2.02 0-11.617 6.06-11.617 6.06z"/><path d="M403.556 235.723s-22.728 5.556-24.749 5.556c-2.02 0-11.617 2.525-14.647 3.03-3.03.506-17.173 4.041-17.173 4.041s-4.04 1.01-6.06 2.02c-2.02 1.01-11.617 3.536-16.163 4.546-4.546 1.01-8.586 2.02-12.627 2.526l-12.122 1.515-6.566 1.01-2.525 6.566 6.06 9.091s4.041 11.112 7.072 11.112c3.03 0 8.081 2.525 10.607 2.525h15.657s10.606-8.08 14.647-10.101c4.04-2.02 16.163-5.556 18.688-6.061 2.525-.505 19.698-6.061 19.698-6.061s15.657-7.071 18.688-7.576c3.03-.505 19.698-4.04 22.223-5.556 2.525-1.515 13.637-5.05 13.637-5.05s4.546-1.516 5.556-5.052c1.01-3.535-5.556-7.07-5.556-7.07s-6.06-4.041-14.142-4.041h-14.142z"/><path d="M352.543 78.645s1.01 21.213 1.01 25.253c0 4.041-1.515 14.648-2.02 19.698-.505 5.051-1.01 12.627-1.01 15.153 0 2.525 3.03 56.568 3.03 56.568s1.516 12.122 2.02 16.163c.506 4.04.506 54.548.506 54.548l4.04 22.728v12.122c0 2.02.505 8.586-.505 11.617-1.01 3.03-1.515 7.07-1.515 11.617 0 4.545-.505 15.152-.505 15.152s-.505 6.566 0 9.596c.505 3.03 2.525 5.051 2.525 5.051s4.041 5.05 5.556 5.05c1.515 0 6.566-14.141 6.566-14.141l2.02-19.698-.505-31.82 1.516-37.88-1.01-32.326-2.02-24.243v-12.627l-.506-37.88-1.01-16.163s1.515-17.173 2.02-19.698c.505-2.526 3.536-18.688 3.536-18.688l5.556-21.213 1.515-15.658-1.515-9.091-8.082-9.091s-6.06-5.051-9.596-5.556c-3.536-.505-12.122-2.526-12.122-2.526l-9.091 1.01s-7.071 0-10.607 2.02c-3.535 2.021-8.586 3.536-8.586 10.607s6.566 8.082 6.566 8.082 3.03 5.05 5.556 9.091c2.525 4.04 4.04 7.576 5.556 9.596 1.515 2.02 11.111 7.577 11.111 7.577z"/><path d="M461.135 337.749l-37.123-2.526s-11.365-.505-13.385.253c-2.02.757-13.132 4.04-13.132 4.04l-7.829 1.01-24.748 4.546-26.012 5.809s-12.88-.758-19.193 1.767c-6.313 2.526-15.91 4.294-18.435 5.304-2.525 1.01-8.839 1.515-8.839 1.515l-13.89 2.525-15.657 8.587-10.606.757-4.546 5.304s-.253 3.788 1.01 4.798c1.263 1.01 2.273.757 4.546 3.788 2.273 3.03 3.283 6.818 4.798 7.829 1.515 1.01.505 1.262 4.04 2.02 3.536.757 6.567 1.515 12.375 1.515s12.627-1.263 14.9-2.273c2.273-1.01 9.849-7.07 14.647-9.091 4.798-2.02 9.344-3.283 16.667-6.314 7.324-3.03 18.94-6.818 20.961-7.576 2.02-.757 16.415-4.545 17.678-5.05 1.262-.506 13.89-4.041 15.91-5.051 2.02-1.01 10.101-4.04 11.616-4.04 1.516 0 10.102.757 12.122 1.514 2.02.758 10.86 2.02 13.89 2.02 3.03 0 19.193-3.282 19.193-3.282l17.677 3.535s2.526 3.283 5.304 1.01c2.778-2.273 6.313-2.778 6.313-2.778s1.515-5.303 1.768-6.818c.252-1.515-2.02-14.647-2.02-14.647z"/></svg>