<svg xmlns="http://www.w3.org/2000/svg" width="512" height="512"><path d="M232.143 2.714l9.286 10.715L245 20.57l3.571 9.286v7.857c0 2.857.715 15.715.715 15.715L250.714 62v7.143L252.857 72l5 6.429 7.857-8.572V51.286L265 39.857V26.286l-.714-8.572s-1.429 2.143-2.857-3.571C260 8.429 254.286 2 254.286 2H243.57z"/><path d="M153.571 55.571L160 64.857l4.286 14.286L162.143 87l-7.857 5.714s-2.857 7.143-2.857 14.286v11.429c0 4.285.714 3.571 2.142 6.428 1.429 2.857 6.429 3.572 9.286 3.572 2.857 0 11.429-7.858 11.429-7.858l4.285-5L195 107l8.571-5s7.858-2.857 15-4.286c7.143-1.428 15.715-6.428 15.715-6.428l14.285-3.929 10.715-1.786 18.214-2.857 9.643-2.143s12.857-4.642 14.286-5c1.428-.357 11.428-3.214 11.428-3.214l10.714-2.143 8.929-1.428 4.643 1.071 7.5 9.286s.357 6.428.714 8.214c.357 1.786 0 4.286.357 6.429.357 2.143 1.429 6.428 1.429 6.428s1.071.357 2.5 0c1.428-.357 0 1.786 1.786-.357 1.785-2.143 5-8.928 5-8.928l1.67-6.224 1.01-7.07 3.03-8.082v-7.07l1.01-10.102-1.514-8.082-5.051-6.06-4.04-3.536-3.031-2.02-6.566-2.526s-3.03-.505-5.051-.505c-2.02 0-7.576-2.02-7.576-2.02s-2.525-3.03-5.05-1.01c-2.526 2.02-4.041 3.03-4.041 3.03l5.05 6.061 4.546 3.536s.505 2.525 2.02 5.555l5.051 10.102-1.515 4.04s-8.081 1.01-12.627 1.516c-4.546.505-17.678 1.01-17.678 1.01s-4.545.505-11.111 1.515c-6.566 1.01-19.193 1.515-19.193 1.515l-17.558 1.07L240 70.213s-1.071 2.143-8.214 3.572c-7.143 1.428-21.429 3.928-21.429 3.928L201.43 79.5s-2.858.357-4.643 0c-1.786-.357-1.072.357-4.286-1.786-3.214-2.143-5-6.428-5-6.428l-1.071-2.857-2.858-1.786-4.285-5.357-8.215-6.072-5-1.785-5.357-2.143h-2.857zM178.797 139.001h-4.04c-1.516 0-2.02-.252-4.041-.757-2.02-.506-5.809-2.02-5.809-2.02l-2.272 1.514-3.536 3.03-2.02 5.052c-.505 1.262-1.263 1.515-1.768 3.788-.505 2.273-1.263 3.788-1.263 5.303 0 1.515.253 4.293 1.263 4.293 1.01 0 3.03.253 4.293.253 1.263 0 3.788-1.263 3.788-1.263l1.768-1.01s.505 2.02 1.01 3.03c.505 1.01 1.263 2.273 1.515 4.546.253 2.273 2.273 9.344 2.273 9.344s.253 2.273.505 3.03c.253.758 1.01 6.819 1.01 6.819l-.252 6.313.757 5.051s.506 1.768 1.263 2.273c.758.505 3.536.505 3.536.505l2.525-3.283 1.263-3.788s1.01-2.273 2.02-5.05c1.01-2.779 1.768-5.052 1.768-8.082 0-3.03-.758-6.06-1.01-7.829-.253-1.767-.253-7.323-.253-7.323v-6.061l-.252-4.293-1.263-3.788s-.758-2.778-1.01-4.799c-.253-2.02-1.768-4.798-1.768-4.798z"/><path d="M215.668 161.477l-.758 3.283 2.02 1.515s2.526 2.02 3.536 2.02h2.525l2.778-4.04 1.515-6.566 1.263-4.798.758-3.788c.252-1.263 0-2.778.505-4.799.505-2.02 1.01-2.525 1.01-5.05v-4.799s1.01-1.01-.758-2.02-2.273-1.515-3.283-2.02c-1.01-.505-2.778-2.02-2.778-2.02l-1.515-1.01-2.02-1.01-7.071-.506s-3.536.505-4.799 1.515c-1.262 1.01-1.515 1.768-6.06 3.788-4.546 2.02-10.607 3.536-10.607 3.536l-5.303 1.768-16.668 5.808-4.04 1.263-6.314 5.808s-.252 1.768.758 1.768 6.44 2.4 6.44 2.4 4.166-.127 5.176-.506c1.01-.379 2.905-1.515 2.905-1.515l11.743-3.41 5.682-3.156 7.197-1.768s2.147-.631 4.167-1.01 5.556-.758 6.566-1.01c1.01-.253 4.167-.38 4.167-.38s1.515 1.137 1.768 1.769c.252.631.757 1.894.884 2.904.126 1.01.378 1.515.378 3.157v2.399c0 1.515.505 1.894 0 3.283s-1.01 3.283-1.136 4.42c-.126 1.136-.631 2.777-.631 2.777z"/><path d="M189.656 180.922l6.566-3.03s6.061.505 8.839-.505c2.778-1.01 9.596-3.03 9.596-3.03l9.218-2.652 4.167-2.273s4.546-2.147 5.05-2.525c.506-.38 2.021-1.39 3.031-1.894 1.01-.505 1.263-1.01 1.768-1.642.505-.631.884-1.515.884-2.273 0-.757-2.778-2.273-2.778-2.273l-3.536-.883-12.121 1.262-10.607 4.672s-6.314 2.273-7.955 2.778c-1.642.505-5.935 2.147-5.935 2.147s-1.01.505-2.273 1.01c-1.262.505-12.121 3.41-12.121 3.41s-4.799 1.262-5.43 1.262c-.631 0-2.146.631-2.146.631s-1.768 4.672-1.263 5.05c.505.38 2.273 1.264 3.41 1.39 1.135.126 9.47-.379 10.48-.505 1.01-.127 3.156-.127 3.156-.127zM285.714 110.214c0 1.429 1.072 9.643 1.072 9.643s.357 8.572 2.143 10.357c1.785 1.786 5 7.143 5 7.143s2.142-.714 2.857 5c.714 5.714 1.785 9.643 2.143 11.072.357 1.428.714 5 1.071 8.928.357 3.929.357 6.429.357 6.429s.714 6.428 2.143 6.785c1.429.358 4.286.715 4.286.715l2.143-.357s3.571-8.572 4.285-10.358c.715-1.785.715-3.571.715-8.571s1.428-17.143 1.428-17.143-1.786-4.286-2.5-6.071c-.714-1.786-6.071-7.5-6.428-10-.358-2.5-3.215-2.857-3.215-2.857l-2.143-2.5-1.785-3.572-1.786-3.571-7.857-1.429z"/><path d="M305.714 118.071s3.393-1.964 4.465-2.142c1.071-.179 5-1.965 5.714-1.965.714 0 6.964-2.321 6.964-2.321l6.786-1.964 4.286-1.786s2.5-.357 3.392-.357c.893 0 .715-.893 2.143.357 1.429 1.25 2.679 2.857 3.393 3.393.714.535 3.929 3.393 3.929 3.393s1.071 3.571 1.785 4.464c.715.893-.357.893 1.25.893 1.608 0 3.215-.715 4.108-1.25.892-.536 3.392-6.25 4.107-8.036.714-1.786 3.035-10.179 3.035-10.179l.536-2.678-2.143-3.75L351.786 92l-9.107.893s-.715.893-1.608 2.678c-.892 1.786 0 1.429-1.964 3.036s-1.25 1.25-2.857 1.964c-1.607.715-1.964.536-4.464 1.072-2.5.536-4.465.714-6.072 1.25-1.607.536-4.643 1.607-5.357 1.607-.714 0-8.928 2.5-8.928 2.5l-4.286 1.071L289.788 114s-.758 1.136 0 2.652c.757 1.515 4.293 4.671 4.293 4.671h2.272l2.905-.63zM310.179 150.929s-3.75.714-4.465 1.785c-.714 1.072-1.607 1.965-1.964 2.857-.357.893-.536 1.608-.536 2.5 0 .893.357 2.322 1.429 2.858 1.071.535.893.178 1.964.535 1.072.357 9.643-1.964 11.429-2.143 1.785-.178 4.285-.357 7.321-1.785 3.036-1.429 6.429-3.75 7.143-3.929.714-.178 2.5-1.071 3.571-1.786 1.072-.714 3.572-2.142 3.572-2.142s3.928-1.072 5-1.25c1.071-.179 4.286-1.608 8.928-1.965 4.643-.357 5.893-.178 8.036-.357 2.143-.178 5.357 0 6.607-.357s3.036-.536 3.036-.536l1.071-2.143-5.714-4.464s-5.714-.893-7.857-.893-5-.357-8.036 0c-3.035.357-8.75 2.857-8.75 2.857s-1.25.179-3.75 1.25c-2.5 1.072-13.393 4.108-14.821 4.822-1.429.714-3.393 1.786-3.393 1.786zM158.571 202.714s-11.428 2.143-16.071 3.572c-4.643 1.428-10 1.785-11.786 2.5-1.785.714-13.928 1.785-13.928 1.785l-10.357.715H95s-.714.357-2.857 0c-2.143-.357-3.572-1.072-3.572-1.072s-.357-1.071-2.142 0c-1.786 1.072-3.572 3.929-3.572 3.929l1.072 5.714.714 2.857s2.143.715 3.571 3.215c1.429 2.5 1.429 5.357 1.429 5.357l3.571 2.5 3.929.714s1.428 1.429 3.214 1.786 8.929 1.428 10.357 1.785c1.429.358 3.572.358 3.572.358l10-1.072s0-.714 2.857-1.786C130 234.5 133.214 232 133.214 232l7.5-4.643 12.5-6.786 5.715-3.928s5.357-2.5 6.785-2.857c1.429-.357 6.072-1.072 8.929-1.786s10-3.214 10-3.214 3.928-1.429 6.071-1.786 6.429-1.786 9.643-2.143c3.214-.357 13.214-2.857 13.214-2.857l9.286-2.5s3.214-2.143 7.5-3.214c4.286-1.072 7.857-2.5 14.286-3.215 6.428-.714 16.071-1.785 19.643-2.5 3.571-.714 10.357-2.142 10.357-2.142s8.571-1.072 10-1.786c1.428-.714 11.428-2.5 11.428-2.5l18.929-2.5 6.786-1.429 12.143-1.785s8.75-.893 11.607-1.25c2.857-.358 8.571-.536 8.571-.536l10.179-1.429s6.785 1.429 7.5 1.607c.714.179 4.107 1.072 6.607 1.25 2.5.179 7.857.715 10.357.893 2.5.179 5.714.715 8.571 1.072 2.858.357 8.929.893 8.929.893l8.393 2.142s2.857 1.429 5.714 1.965c2.857.535 5.536.714 6.607 1.071 1.072.357 3.572 1.25 4.643 1.429 1.072.178 3.214.178 4.822.535 1.607.358 4.821 1.608 4.821 1.608s0 .178 1.607.178h1.786l3.036-.536 1.071-.892s1.071-1.072 1.25-2.143c.179-1.072 1.25-2.5.357-3.929-.893-1.428-1.071-2.678-3.214-3.393-2.143-.714-11.429-3.928-11.429-3.928l-5.893-2.322-8.75-2.857s-3.571-.714-5.357-1.428c-1.785-.715-8.035-2.679-8.035-2.679s-2.858-.536-4.822-1.071c-1.964-.536-8.75-1.786-8.75-1.786l-7.678-.179s-3.929 0-6.608.715c-2.678.714-9.285 1.785-11.964 2.5-2.678.714-8.393 1.25-9.643 1.428-1.25.179-1.964.179-6.428 1.072-4.465.892-9.822 1.25-12.322 1.785-2.5.536-11.428 1.786-11.428 1.786l-9.465.357-28.928 4.464-17.679 2.322s-3.393 1.25-10.535 2.321c-7.143 1.072-10.893 1.25-15.536 1.607-4.643.358-10.714.715-13.036 1.25-2.321.536-6.786 1.608-10.714 2.322-3.929.714-8.036 1.607-10.179 2.5-2.143.893-5.893 1.964-9.107 2.857-3.214.893-3.75 1.071-8.214 2.5s-10.893 3.214-10.893 3.214z"/><path d="M165.357 229.5s-.714-2.143-1.786 2.143c-1.071 4.286-2.142 6.071-2.142 6.071L162.5 242s1.429 4.643 1.429 7.143 1.071 5 .357 10c-.715 5-2.143 12.857-2.143 12.857s-1.072 6.429-1.429 9.643c-.357 3.214-1.428 10.357-2.5 13.928-1.071 3.572-2.5 8.572-3.214 10.715-.714 2.143-7.013 28.937-7.013 28.937l-1.01 15.153s-8.081 16.162-8.586 19.192c-.505 3.031-3.536 11.112-6.061 17.173-2.525 6.061-9.091 23.234-9.091 23.234s-5.051 4.545-9.597 9.596c-4.546 5.05-9.091 9.596-11.112 12.627-2.02 3.03-7.07 6.566-8.08 8.586-1.01 2.02-1.516 2.02-5.557 6.566-4.04 4.546-7.07 7.576-9.596 10.102-2.525 2.525-4.04 3.535-7.071 6.06-3.03 2.526-3.03 2.021-5.05 3.536-2.021 1.515-6.062 5.051-8.587 6.061-2.526 1.01-10.102 4.04-13.132 5.556-3.03 1.515-10.607 6.06-10.607 6.06l-8.081 3.031-6.566 3.03-2.02 1.516-.505 3.03 5.05 1.516s5.051.505 7.071.505c2.02 0 6.061 1.01 6.061 1.01s-4.04 1.01 3.536 0c7.576-1.01 6.566-1.515 11.112-2.525 4.545-1.01 12.121-4.546 12.121-4.546s1.01-3.03 5.051-4.04c4.04-1.01 13.637-6.062 13.637-6.062l9.092-7.07 10.101-10.607 12.122-10.102 10.607-9.596 8.08-15.153 4.547-11.616 4.545-10.102 6.061-17.678 7.576-18.182 2.778-11.365s2.02-9.343 2.526-10.606c.505-1.263 2.02-7.576 3.283-10.354 1.262-2.778 4.798-16.163 4.798-16.163l2.273-10.859 2.525-9.849 2.778-10.101 1.768-10.102 2.273-6.818s.252-5.809.505-8.082c.252-2.272 1.262-11.869 1.262-11.869v-6.313l-2.525-6.566-1.768-2.778-4.04-5.303-2.778-3.536zM225.011 237.491s-7.828 3.03-10.101 4.04c-2.273 1.01-7.576 4.546-7.576 4.546s-3.283 1.263-5.303 1.768c-2.02.505-3.031.758-4.799.758-1.767 0-3.03 0-4.545-.758-1.516-.758-3.536-2.02-3.536-2.02l-4.04-1.515-.758-3.789-.758-3.282s-.252-2.526-.252-4.799v-2.525h2.273c1.01 0 4.545.252 4.545.252s1.263 1.263 3.788.758c2.526-.505 3.283-.252 6.566-1.263 3.283-1.01 7.576-2.272 7.576-2.272h11.112c1.01 0 8.081-4.546 8.081-4.546s4.293-1.515 6.819-2.02c2.525-.506 8.081-1.768 8.081-1.768l4.293-3.536 5.051-5.05 1.768-3.031 2.525-.758s3.536-.757 5.05-.252c1.516.505 6.314 3.283 6.314 3.283l2.273 3.03s.253 0 .505 2.778c.253 2.778 1.01 4.04-.252 7.071-1.263 3.03-1.768 3.283-3.03 6.314-1.263 3.03-2.274 5.556-2.779 6.818-.505 1.263-1.262 5.556-1.767 6.566-.505 1.01-1.01 2.778-1.768 4.546-.758 1.768-1.768 5.556-2.273 7.071-.505 1.515.253.758-1.263 3.03-1.515 2.273-2.525 4.799-3.788 6.566-1.262 1.768-3.788 4.799-3.788 4.799s-3.788-1.263-4.546-2.526c-.757-1.262-1.767 2.02-2.02-3.788-.252-5.808-.252-7.576-.252-7.576l2.525-6.313s-1.263.252.253-3.283c1.515-3.536 2.02-5.051 2.02-5.051l1.515-6.061-3.535-2.02h-1.516c-3.03 0-4.04-1.263-7.07.757-3.031 2.02-5.304 2.778-5.304 2.778z"/><path d="M185.714 290.571s7.143-5 8.929-5.357c1.786-.357 4.643-2.857 6.786-3.214 2.142-.357 5.357-1.786 5.357-1.786L216.07 277l7.5-1.786 9.643-1.428 6.786-1.429 21.124-5.319 4.799-2.273s6.818-.757 8.586-.757c1.768 0 5.556-.506 7.576-.758 2.02-.253 7.324-.253 7.324-.253s2.02 0 3.283-1.262c1.262-1.263 2.778-2.02 2.778-2.02l.757-3.284.253-3.03-4.546-3.03s-3.283-1.516-4.798-1.768l-3.03-.505s-4.799-1.263-7.072-.505c-2.273.757-2.778.252-6.313 2.525-3.536 2.273-7.324 3.535-7.324 3.535l-15.152 3.789-14.9 4.293s-7.323 1.515-9.344 2.02c-2.02.505-12.627 2.525-12.627 2.525l-7.07 2.02-7.072 2.021-10.606 2.525-15.405 5.051-17.425 3.536-3.03 3.788 1.767 3.788 10.102 1.768 18.94-.505 6.06-.253zM186.786 347.357s1.428 11.072 1.428 14.643c0 3.571-.357 8.929-.357 12.143 0 3.214.357 13.214.357 13.214l-.357 11.786-1.071 7.143s-2.5 5.357.714 8.571c3.214 3.214 1.071 3.214 3.571 3.214s3.572.715 5-1.785c1.429-2.5 4.286-6.072 4.286-9.286 0-3.214-.357-6.071-.357-8.214V388.07s.357-6.428.357-10.357V363.43c0-3.215.714-8.215.714-10 0-1.786.358-12.143.358-12.143s.714-1.429 0-3.929c-.715-2.5-2.5-7.5-2.5-7.5L192.857 322s-3.571-3.214-5.357-3.571c-1.786-.358-3.571-1.429-3.571-1.429l-5.358-1.786L163.93 312 160 316.286l-2.5 9.643 3.571-.358 12.143 3.215s3.572 1.785 6.072 5.357c2.5 3.571 5 8.571 6.071 10 1.072 1.428 1.429 3.214 1.429 3.214zM226.071 294.5s-6.071 2.857-7.857 3.571c-1.785.715-2.5.715-5.714 2.143-3.214 1.429-4.286 1.786-6.429 2.143-2.142.357-7.5 1.429-7.5 1.429s-3.571-.357-5 1.785c-1.428 2.143-3.214 6.072-3.214 6.072s3.214.714 5 1.786c1.786 1.071 3.929 1.428 5.357 2.142l7.143 3.572h2.857s1.429-1.429 4.286-2.857c2.857-1.429 2.143-1.072 4.643-2.143 2.5-1.072 7.143-3.214 8.571-3.572 1.429-.357 3.215-1.785 3.215-1.785s1.785-3.572 2.5-5.715a79.805 79.805 0 0 1 1.428-3.928s.714-1.072-1.786-2.143c-2.5-1.071-3.214-1.429-3.214-1.429l-2.857-.714z"/><path d="M190.919 354.669s0 1.768.505 2.778 2.02 2.525 2.778 3.788c.757 1.262 6.818 2.273 9.091 2.02 2.273-.253 3.536-1.01 6.819-2.778s4.798-2.273 7.576-3.535c2.778-1.263 4.293-2.02 6.06-2.273 1.769-.253 8.335-2.526 8.335-2.526l5.05-2.272 3.536-1.516 4.546-1.767.252-1.263s-1.515-.758-2.525-1.01c-1.01-.253-3.283-2.778-3.283-2.778l-3.788-1.263-2.273-.758-4.798-.757s-3.283-1.01-4.546-.253c-1.263.758-7.829 3.788-7.829 3.788l-4.546 2.02-6.313 2.526zM258.571 292.357V302c0 2.143.715 22.5.715 22.5l-.357 7.857s-.358 8.929-.358 10.714v19.643l-1.071 10-.714 7.857s-.357 0-.715 2.858c-.357 2.857-1.428 7.857-.714 8.928l1.786 1.429s.357 2.5 2.143-1.786c1.785-4.286 2.143-6.071 2.143-6.071l1.071-13.215 1.071-8.928 1.429-8.929 1.786-15-.715-13.214 2.858-13.572.714-5.714s0-2.5.714-5.714c.714-3.214 1.072-5.357 1.072-7.857v-6.072l-3.215-2.5-2.5-1.785-3.571-1.072-5.357 1.072-1.429 5.357z"/><path d="M235 380.929s-6.786 5.357-9.643 6.785c-2.857 1.429-4.643 1.072-8.928 3.572-4.286 2.5-7.143 3.571-7.143 3.571l-16.786 9.107-24.464 11.25-9.107 3.572-9.643 2.143-8.929 3.392-2.321.715-2.143.714-7.41 1.071s-.09-.267-.447.536c-.357.804-.893 1.518-.893 2.143 0 .625.09 1.071.09 1.071s4.374 2.858 4.731 2.858c.357 0 3.482 2.41 3.482 2.41l4.733 4.197 3.392 5.357s.715 1.071 1.786 1.607c1.072.536.357 1.071 3.036.714 2.678-.357 4.464-.893 5.536-1.25 1.071-.357 1.25-.357 2.857-1.071 1.607-.714 6.25-3.393 8.035-4.286 1.786-.893 9.108-3.75 10-4.107.893-.357 10.536-6.25 11.429-6.429.893-.178 16.429-11.25 16.429-11.25s2.142-1.785 2.857-2.321c.714-.536 1.428-1.964 2.857-2.5 1.428-.536 2.678-1.429 4.643-1.786 1.964-.357 7.857-1.964 7.857-1.964s5.357-1.607 7.5-2.5 7.678-2.679 7.678-2.679l9.643-4.642 10.715-3.393 7.678-3.75.357-3.036.893-5.357L251.071 382s-7.678-4.107-9.642-3.75c-1.965.357-3.929.536-4.822 1.607-.893 1.072-2.143 1.964-1.607 1.072zM304.643 209.5s4.643 5 6.786 8.214c2.142 3.215 8.214 10.357 8.214 10.357s2.5 4.286 3.214 7.5c.714 3.215 2.5 10.358 2.5 10.358s1.429 3.928 0 8.214c-1.428 4.286-2.857 9.643-3.571 11.428-.715 1.786-2.857 7.5-3.215 8.929-.357 1.429-3.214 6.786-3.214 6.786s-1.428.714-3.214 3.571-2.857 3.929-4.643 5.357c-1.786 1.429-7.143 3.572-7.143 3.572l-4.643 2.5-2.5 2.857-1.785 4.286s-.715 3.928-1.072 5.714c-.357 1.786-.357 3.571-.357 3.571s0-1.428 2.5 2.857c2.5 4.286 5.714 3.572 7.143 2.858 1.428-.715 3.571-4.643 5-5.358 1.428-.714 2.143-2.142 8.571-5.357 6.429-3.214 9.643-5.714 13.572-7.5 3.928-1.785 12.5-7.857 14.285-8.928 1.786-1.072 3.929-2.5 8.215-5.357 4.285-2.858 11.785-7.5 13.928-8.572 2.143-1.071 6.429-2.143 10-3.214 3.572-1.072 7.143-2.5 9.643-3.214 2.5-.715 9.286-2.858 11.429-3.572 2.143-.714 6.071-1.786 7.5-2.143 1.428-.357 5.357-.714 10-2.857 4.643-2.143 6.785-3.571 8.928-3.928 2.143-.358 4.643-.715 7.5-2.143 2.857-1.429 8.929-3.929 8.929-3.929l5-1.786 6.786-1.071s6.785-.357 6.071-1.786c-.714-1.428-2.857-3.571-2.857-3.571s-2.5-1.429-6.429-2.5c-3.928-1.072-5.714-1.786-10-2.143-4.285-.357-7.143-.357-7.143-.357s-2.142.714-7.142 3.928c-5 3.215-9.643 2.858-13.215 4.286-3.571 1.429-9.285 2.143-14.643 4.286-5.357 2.143-11.071 3.928-11.071 3.928l-5 2.858s-2.857 2.5-4.643 3.928c-1.786 1.429-11.071 6.429-15 8.572-3.928 2.142-6.071 3.928-8.214 4.642-2.143.715-3.572 1.786-6.786 3.572-3.214 1.786-9.286 3.928-9.286 3.928l-3.571.358-.714-4.643 2.857-5.715s2.143-2.5 3.214-3.928c1.072-1.429 3.214-5 3.214-6.429 0-1.428 1.786-6.428 1.786-6.428s.357-3.215 1.072-4.643c.714-1.429 2.142-8.214 2.142-8.214l.358-8.572-3.215-8.571-5-5.715-6.428-5.714-7.5-3.571-3.572-5-4.643-2.5-8.571-3.572s-2.5 1.429-2.857 2.857c-.357 1.429 2.5 6.429 2.5 6.429zM381.429 288.071l-1.786 10.715s-1.786 5.714-2.5 7.857-2.143 6.786-2.857 8.928c-.715 2.143-3.929 9.286-5 12.5-1.072 3.215-2.857 5.715-3.929 8.572-1.071 2.857-1.071 1.786-3.928 8.214C358.57 351.286 355 357 355 357s-3.571 5.714-5.357 8.929c-1.786 3.214-5.714 7.857-5.714 7.857s1.785-.357-2.5 3.928c-4.286 4.286-8.572 6.786-10.715 8.572-2.143 1.785-2.857 3.214-7.5 5-4.643 1.785-5 .357-10.714 3.214s-10.714 4.643-10.714 4.643l-8.572 3.214s-2.857 0-6.071 1.072c-3.214 1.071-1.786.357-5.357 1.428-3.572 1.072-7.143 1.786-7.143 1.786l-3.214 3.214s-1.786 1.072-.358 2.143c1.429 1.071 2.5.714 4.286 1.071 1.786.358 8.572.715 8.572.715s5.714 0 10.714-2.143 12.5-5.714 15.357-6.429c2.857-.714 4.286-1.428 9.643-2.857 5.357-1.428 8.571-6.428 8.571-6.428s8.929-6.786 12.857-8.929c3.929-2.143 7.858-3.214 12.5-7.5 4.643-4.286 7.5-6.786 9.643-10.357 2.143-3.572 5.715-8.929 7.143-10.357 1.429-1.429 6.429-12.5 6.429-12.5s3.928-11.072 5-13.929c1.071-2.857 2.5-8.571 3.928-10.714 1.429-2.143 2.857-5.714 5-10s3.215-4.643 3.929-9.286 1.786-8.214 1.071-10c-.714-1.786.715-2.5-1.785-2.857-2.5-.357-5.358-2.143-5.358-2.143l-4.642.357z"/><path d="M279.643 322.357l.714 2.143 3.214 2.5s4.643 2.143 6.072 2.5c1.428.357 3.571 1.786 3.571 1.786s2.857 1.785 4.286 1.785c1.429 0 5.357 1.429 5.357 1.429s3.929 1.786 5.357 2.857c1.429 1.072 2.143 1.072 4.286 1.786s.357.357 3.571 1.428c3.215 1.072.715-.714 4.286 1.786 3.572 2.5 8.214 3.929 10.357 5.357 2.143 1.429 8.572 3.929 8.572 3.929l5 5 11.071 9.643 13.572 3.571s6.428 3.929 10.714 5.714c4.286 1.786 10.714 5.715 12.143 7.5 1.428 1.786 2.857 5 6.428 7.143 3.572 2.143 11.072 8.572 11.072 8.572l7.857 4.285 7.857 4.643 5.357 4.643 7.857 4.643 5.715 3.214 7.142 5.357s5 7.5 5.715 8.929c.714 1.429 7.5 7.143 7.5 7.143s3.571 4.643 5.714 6.071c2.143 1.429 7.857 7.143 7.857 7.143l6.429 4.643s3.571.357 5.357.357 5.714 1.786 6.428-1.428c.715-3.215 2.858-10.715 2.858-10.715s-1.786-5.357-2.858-6.785C495 439.5 492.143 434.5 490.714 432c-1.428-2.5-6.071-6.786-6.785-8.929-.715-2.142-7.858-10-7.858-10L460 402l-15.357-10-16.786-8.929-13.571-7.142-15.357-7.858-12.143-5.714-22.5-9.643-25.179-10.535s-11.071-3.929-11.786-4.822c-.714-.893-11.071-6.25-11.071-6.25l-17.5-6.071-8.214-2.143-6.607-1.25-3.393-.536z"/></svg>