<svg xmlns="http://www.w3.org/2000/svg" width="512" height="512"><path d="M193.444 40.764l7.071 2.02 5.051 3.536 3.536 1.01 4.545 4.293s-.505-.253 2.526 4.04c3.03 4.294 5.303 6.82 5.303 6.82l2.02 5.302 1.515 3.788h2.02l1.769 1.01h3.03l4.798-.757 3.283-3.283 1.768-3.788v-3.788s-.758-5.05-1.01-6.314c-.253-1.262-1.263-5.05-1.263-5.05l-3.03-5.556-3.788-2.526s-1.516-1.767-2.778-2.02c-1.263-.252-3.283-2.02-3.283-2.02l-3.283-2.02-3.788-1.768-2.273-1.263-4.798-2.525-7.071-.253-5.304 2.02-5.05.253-3.536 1.01-2.778 2.273-3.283.758-2.02 1.01-1.516 1.01 1.263 2.273 3.283.505h4.04z"/><path d="M230.714 67L210 72.357l-12.5 1.072-13.571 1.785-7.143 2.5-12.143 3.929-15.357 4.643-9.286 2.5-8.214 1.428-11.072 3.572-7.857 2.143s-7.143 1.428-8.571 1.428c-1.429 0-9.643.714-9.643.714l-6.786 1.072h-3.214l-5.714-1.429-6.786-.357-2.857 2.857v2.5l2.5.715h2.857L80 105.57l5.357 3.215 1.072 2.143 3.214 2.5s1.786 2.5 3.214 2.5c1.429 0 4.286.714 4.286.714h5.714c1.429 0 13.572-1.429 13.572-1.429l4.285-2.5 5.357-3.214 15.358-8.214 5.714-2.143 9.643-2.857 6.785-2.857 11.786-5 12.5-3.572 11.072-3.214 15.357-3.572 39.643-10.357 4.285-.714 10.715-1.429 15.357-2.142 13.214-1.072 9.643-1.071 12.143-1.429H347.857l8.572 1.429 3.571.357 5.357 2.857h2.143l6.071 3.214 4.643 1.786 5.357 1.429 3.572 1.428 3.214.357h3.929l2.143-1.071 2.142-2.5.358-4.286-1.429-6.786-6.071-2.142-7.5-3.572-6.786-1.786-11.072-2.857-5.357-1.785-8.214-.358-5.357 2.858L340 49.857c-3.571.714-15.714 2.143-15.714 2.143l-6.072 1.429-25.357 2.857s-8.214.714-11.428 1.071c-3.215.357-16.429 3.214-16.429 3.214l-13.214 1.786zM137.886 123.596l-1.515 24.75s0 6.565-.505 10.1c-.506 3.536-1.516 9.597-1.516 12.628 0 3.03-.505 14.647-.505 14.647v10.606l-2.02 22.729s0 2.02-1.01 9.596c-1.01 7.576-1.515 11.112-1.515 11.112s-.506 4.546-1.516 9.091c-1.01 4.546-1.515 5.556-3.03 11.112s-3.536 11.112-3.536 11.112l-3.03 9.091-4.546 22.728-5.556 15.153-7.07 11.616-6.567 10.607-3.535 10.607s-7.071 12.627-8.587 15.152c-1.515 2.525-2.02 2.525-5.555 8.586-3.536 6.061-4.546 7.071-6.566 9.597-2.02 2.525-10.607 12.122-10.607 12.122l-8.081 7.07-5.556 5.556-11.112 7.072-4.545 2.02h-3.536l-4.546-1.01-4.04.505v1.515l-.505 2.525-2.526 7.576 2.02 5.051 2.02 2.02 5.557.506 4.545.505 6.061-3.536 2.02-1.01 3.031-3.536 4.04-4.04 12.123-11.112 5.555-5.556 9.092-14.647 8.586-9.596 12.122-15.658 7.07-12.627 4.042-9.596 9.09-19.193 6.567-13.132 4.04-15.657 4.546-18.688 4.04-11.617 2.021-16.162s.505-6.061 1.01-9.092c.505-3.03 1.516-10.606 2.02-13.132.506-2.525 4.041-12.627 4.041-12.627v-6.566l4.04-20.708V179.66l2.021-9.597 2.02-13.132-1.01-18.182v-9.597l-1.01-5.05-3.535-3.536h-2.02zM304.056 114.505l5.05 3.03 3.031 4.546s.505 3.536 0 5.556-1.515 1.515-3.535 5.05c-2.02 3.536-4.041 7.072-6.061 8.082-2.02 1.01.505 2.525-5.556 5.05-6.061 2.526-14.142 4.041-14.142 4.041l-8.587 1.516-7.07 3.03-12.122 4.04-8.587 2.02-10.606 3.031-5.051 2.02-3.03.506-3.536 6.566 1.515 1.515s3.03.505 5.05.505c2.021 0 4.547 0 6.062-1.01 1.515-1.01 8.586-5.05 8.586-5.05s2.525-.506 8.081-2.526c5.556-2.02 11.617-4.04 11.617-4.04l12.122-2.021 8.586-2.02 7.576-2.02s4.04-2.021 6.566-2.526c2.526-.505 6.061-.505 6.061-.505l14.647-4.04 10.102-2.021 7.071-.505 5.556-1.515 4.04-5.051-.505-5.556s0-2.02-2.02-3.536c-2.02-1.515-4.04-4.545-4.04-4.545l-1.01-4.04-3.536-3.031-9.092-5.051-5.05-1.01-3.03-2.02-7.577-3.031-5.05-.505-4.041-1.515-3.536-1.516-1.515 3.536 1.515 2.525zM277.792 218.046l10.101-5.556 8.587-3.536 10.101-3.03 8.082-1.01 11.616-1.516 15.658-4.04 7.07-1.01 5.051-4.546-3.03-4.04-6.06-2.021-5.557-.505-9.596-1.515-9.597 1.515-10.101 3.535-6.566 2.526-10.102 2.525s-2.02-1.01-4.04.505c-2.02 1.516-11.617 3.536-11.617 3.536l-5.05 1.515-6.062 2.02-9.596 4.041-6.566.505-5.05 1.515H232.84l-1.011 2.526-1.01 4.04 6.566 4.546 4.04.505h3.03l3.536 1.01v4.04l3.536 2.021 3.536.505 5.555-1.01 6.061-3.03 4.546-3.536s.505-2.525 6.566-3.03zM368.706 241.28l-12.627-3.031h-5.051c-3.03 0-17.678 6.566-19.698 6.566-2.02 0-5.556.505-9.091.505-3.536 0-5.051.505-8.587 1.01-3.535.505-15.152 3.03-15.152 3.03l-8.586 2.526s-8.081 3.03-13.132 4.04c-5.051 1.01-14.647 2.526-14.647 2.526l-11.112 3.535-6.061 1.515-4.546-1.01s-4.04-1.515-5.05.505c-1.01 2.02-2.526 6.566-2.526 6.566l2.526 2.526s0-3.03 4.545 1.515c4.546 4.546 6.566 5.05 6.566 5.05l4.546 2.021h5.556c2.525 0 6.06-1.515 8.586-3.03 2.525-1.516 8.081-5.556 8.081-5.556l14.142-5.051 7.577-2.525s2.525-2.526 7.07-2.526c4.546 0 12.122-1.01 12.122-1.01l11.112-2.02 9.091-.505 7.072-.505 7.576.505h16.667l11.112 4.04 8.586 2.526 7.071-.505 2.526-5.556-6.061-9.597-11.112-8.08z"/><path d="M305.357 271.464l-1.071 8.393s-1.25 3.214-1.607 4.643c-.358 1.429-1.072 5.357-1.25 6.25-.179.893-1.25 3.393-1.429 5.357-.179 1.964-.179 3.214-.179 3.929 0 .714 2.322 5.357 2.322 5.357s.536 1.428 1.071 3.214c.536 1.786-.357 1.607 1.25 2.679 1.607 1.071 3.929 1.785 3.929 1.785l2.857.179s2.5-1.786 3.036-2.5c.535-.714 3.571-6.071 3.571-6.071l1.429-8.393.535-8.215.536-7.321.179-9.821v-3.572l-.715-14.821-.178-18.215.714-8.392.536-4.822-.536-11.786-.178-12.678-1.429-16.072v-4.464l-4.107-4.643-4.464-3.571-4.643-3.036L300 162l-3.75-1.786-9.107-6.785H282.5l-3.445 1.86-2.02 2.147 1.388 6.314 4.672 4.42 2.778 2.777s2.4 2.147 3.157 2.526c.758.378 4.42 3.661 5.177 3.914.758.253 3.41 2.652 3.41 2.652l2.65 4.545 6.697 15.095 1.965 13.928s-.075 5.701-.075 8.48v9.09c0 1.01-1.01 7.324-1.01 7.324l-.758 16.415zM188.214 143.071l-12.143 6.429-10.357 7.143-8.214 2.143-17.5 7.143-12.857 5.714-10 3.571h-6.786c-1.428 0-1.786.357-3.571 0-1.786-.357-3.929-1.071-3.929-1.071l-3.571-.357-1.429 3.928V182l3.572 3.571 4.285 3.572s3.215.357 4.286 2.143c1.071 1.785 3.571 4.285 5 4.285h8.571l5.715-2.857 9.285-8.214s8.75-5.536 9.643-6.25c.893-.714 6.786-4.643 6.786-4.643l6.25-3.393 7.143-3.214 6.25-3.214 5.357-2.857 4.643-2.5 2.143.357.893 1.607s.714 2.857-.358 4.107c-1.071 1.25-2.321 2.5-3.035 3.75-.715 1.25-2.143 4.107-2.322 5-.178.893.715 1.071-.893 5-1.607 3.929-1.607 3.75-1.964 4.464-.357.715-1.964 5.179-1.964 5.179l-1.964 5.357-1.965 3.929s-.714.714-1.607 3.214a66.331 66.331 0 0 1-1.964 4.821s-.714 2.322-.714 3.036-.893 4.107-1.072 5.179c-.178 1.071-.536 4.107-.536 4.107V225.75l1.25 3.036s.715 1.964 1.429 1.964c.714 0 2.143.357 3.393.357s4.286-.178 4.286-.178l3.571.178 5.714-.893 4.643 2.143 2.322.179.02.662 2.778 7.323 2.526 2.273.252 6.566v6.314s-.252 5.808-1.01 8.334c-.758 2.525-1.01 7.576-1.01 7.576l-1.768 7.576-2.273 6.566-.505 5.303v15.405l-2.273 4.798s-1.767 4.798-2.525 6.314c-.758 1.515-2.273 4.798-2.273 4.798s-4.546 6.06-5.808 7.07c-1.263 1.011-4.799 6.567-4.799 6.567l-4.293 5.556s-1.515 4.04-4.04 5.808c-2.526 1.768-11.617 6.819-11.617 6.819s-2.778 2.02-5.05 3.283c-2.274 1.262-10.102 4.04-10.102 4.04s-7.829 2.02-8.84 2.526c-1.01.505-7.07 2.273-8.585 2.273-1.516 0-10.607.252-10.607.252l-8.081-4.04-9.344-9.597-6.44-10.102S87 337.117 87 336.233c0-.883-.505-5.808-.505-5.808s-.378-2.652-.505-3.283c-.126-.631-.505-2.146-.505-2.146l-1.136-.884-1.515-.632-1.39.505s-1.515 1.894-1.515 2.652v10.102c0 1.388.127 5.05.505 6.187.38 1.136.505 2.651.505 3.535 0 .884 1.263 6.819 1.263 6.819l5.935 12.5 8.965 6.188s5.935 2.02 6.566 2.525c.631.505 5.43 2.273 5.43 2.273s3.788 1.01 4.419 1.136c.631.127 3.535 0 4.546.127 1.01.126 6.944-.253 6.944-.253s6.44-1.263 7.83-1.894c1.388-.631 4.671-2.147 5.555-2.147.884 0 7.071-1.262 7.071-1.262s5.303-3.03 6.819-3.915c1.515-.884 6.313-4.924 6.313-4.924s6.692-3.283 7.955-4.42c1.263-1.136 6.692-5.682 6.692-5.682l3.914-3.914 5.683-7.829 6.818-8.08 2.273-4.8 4.04-10.858 2.273-8.587 3.536-9.343 2.778-7.072 2.525-8.333 2.273-7.576 2.02-7.83.506-4.292 1.01-11.617-.758-4.546-1.515-5.303-1.768-5.303-1.768-4.799-7.576-4.798-3.283-3.03-5.05-3.788s-2.273-1.263-3.284-1.768c-1.01-.505-4.293-3.788-4.293-3.788l-2.525-5.05-.253-2.274.505-5.303s.505-2.525 1.01-4.798c.506-2.273 1.263-3.788 1.263-3.788l2.526-7.829 1.262-4.293 1.516-3.536 2.272-7.323 1.768-3.536 1.768-3.03 2.273-3.536 1.515-2.525 3.536-4.546 4.04-6.06 2.02-2.779s1.768-1.262 3.03-1.768c1.264-.505 3.536-2.272 3.536-2.272l1.516-4.041v-4.04l-.253-1.516-1.01-3.283-1.01-2.02-3.283-2.778-5.809-1.515h-3.788l-2.525 1.01-2.525 3.535s-1.263 2.273-2.273 4.294c-1.01 2.02-1.515 2.777-1.515 2.777l-1.263 3.283-.505 3.283z"/><path d="M207.5 302.357l11.429 7.5 3.571 1.786 5 1.071 7.857 5s5.714 2.143 7.143 2.143c1.429 0 5.714 2.143 5.714 2.143l10.715 8.571 4.285 1.429 9.643 5.357 8.572 3.214 11.785 3.215 13.572 5.714 8.571 2.857 6.429 2.5s5.357 1.786 7.143 2.5c1.785.714 10.714 4.643 10.714 4.643l7.143 1.786 8.214 3.571 10.357 3.572 6.429 2.142 10 3.572 7.143.714h8.214l7.143-2.857 6.785-2.143s4.643-2.143 7.858-2.857c3.214-.714 11.428-3.571 11.428-3.571s8.214-1.786 9.643-1.786c1.429 0 11.429-3.214 11.429-3.214L460 359.5l9.643-2.857L480 355.57 490.714 352l7.143-3.571 5.357-3.929 2.143-3.571-6.071-.715-3.572 1.429s-4.643 1.071-8.214 1.786c-3.571.714-7.5 1.785-8.929 1.785-1.428 0-10.714.715-12.142 1.072-1.429.357-2.5 1.071-7.5 1.428s-10.715 1.429-19.286 1.786c-8.572.357-15.357-.714-28.572-1.071-13.214-.358-17.857-.358-17.857-.358L379.286 347H370h-8.929c-1.428 0-18.928-2.5-18.928-2.5L335 343.071l-10-2.142-8.571-1.429-16.786-3.214-15-7.143-15.357-5.714-11.072-4.286-13.571-6.429-15.357-6.428-15.715-7.857L199.464 292l-15.535-11.25-15.536-6.786-6.429-3.571-11.785-4.107-7.5-3.572-3.215-1.071-10.535-1.072L118.036 262l-8.572 3.571-4.821 2.5-5 3.215-.893 1.607s-1.071.357-1.429 1.964c-.357 1.607-.535 3.214-.535 3.214l1.785.179 3.929-1.964s1.786-1.25 2.5-1.786 5-3.214 5-3.214l3.571-.715 11.965-2.321 9.107-1.786 6.428.893s3.393 2.322 4.643 2.857c1.25.536 5 1.965 6.607 3.036 1.608 1.071 5.893 5.357 7.5 6.071 1.608.715 6.786 2.679 6.786 2.679s4.286 2.321 5.893 2.857c1.607.536 6.964 3.75 6.964 3.75l6.072 2.322 10.357 5.178z"/></svg>