<svg xmlns="http://www.w3.org/2000/svg" width="512" height="512"><path d="M121.218 99.858l1.01 12.122-.505 7.07 7.071 4.041s5.556-.505 8.082 7.576c2.525 8.082 8.586 19.193 8.586 19.193s3.03 8.082 3.536 10.607c.505 2.525 3.535 13.132 3.535 13.132l1.515 10.101.505 9.092.505 6.06v8.587l-.505 3.03-1.01 2.526-8.586 3.535H135.866l-3.03 9.092 4.04 9.596v8.081l4.04 2.02 4.546-1.01 6.566-3.535 6.06-5.05 2.526-6.567 3.03-9.596 1.516-7.071 1.01-14.142 1.01-10.102v-8.081l-2.02-11.617-2.02-9.596-1.01-8.082-2.02-7.07-3.031-7.577-6.566-4.545-3.536-7.071-3.03-3.031-4.546-4.546-5.556-5.05-4.04-6.566-2.02-3.536-2.526-4.546zM233.85 69.553l-22.728 2.526s-8.081-1.01-12.122-1.01c-4.04 0-13.132 2.02-13.132 2.02l-7.576-1.01-5.05-2.526-3.031-1.01-2.526 3.03-2.02 5.556-.505 6.566 4.546 5.051 1.01 4.04 3.535 6.062 4.04 3.535 6.567 3.03 2.02-5.05 3.03-3.03 10.607-5.051h7.576l11.617-3.536 13.637-1.515 9.597-2.02 9.596-2.526 11.112-1.01 10.101-1.515 4.546-2.526 8.081-.505 2.526 2.02v9.597s-3.536 8.081-4.041 10.607c-.505 2.525-2.525 6.566-2.525 6.566l-2.526 5.556-1.01 6.06-3.03 11.112-2.02 5.556-2.021 7.576-2.525 12.627-3.536 11.617-2.02 10.101-2.02 10.102-2.02 6.566v4.04l-.506 7.577 2.02 4.04 2.02 3.536h3.031l2.02-4.04 3.031-6.567 6.06-10.607 2.526-9.09 1.515-16.163 3.536-16.163 3.03-9.091 5.051-8.586 3.03-10.102 5.051-11.617 2.526-10.606 1.515-2.526 2.525-4.04 3.536-2.526 6.566-3.03 1.515-7.071.505-5.556v-5.05c0-2.526-1.515-5.557-1.515-5.557l-2.525-3.03-3.536-3.536-1.01-3.535-1.01-3.536-4.546-2.525-5.05 3.535-5.556 3.536-4.546 4.546-8.081 5.555-11.112 1.01-14.142 1.516-13.132 1.515z"/><path d="M166.675 154.406l5.05 4.798 6.82 4.546 5.808 2.525 6.566 1.263 11.617-2.02s1.01 0 3.283-.758c2.272-.758 12.121-3.03 12.121-3.03l8.082-1.263 12.374-2.273 5.556-2.273 3.03-2.02 2.02-1.01 1.263-2.778-.252-1.263-2.02-3.283-3.031-4.04-4.798-1.01-4.293-2.526-8.587-1.768-5.303 1.01-5.303 2.526-6.566 2.525-5.556 1.263-6.566 1.768-7.829 2.272-6.06 2.02-6.314 1.769-4.546 1.01zM166.429 229.857l9.642-5 4.286-1.428 5-.358 14.286-1.785 13.571-.715 2.143-.714s4.643-1.786 6.072-1.071c1.428.714 6.071 2.5 6.071 2.5l3.214 1.071 5 3.214 7.143 1.072 1.786 1.786h2.857l2.5-.358 2.143-3.214 1.071-3.571.357-3.572 1.072-5-2.857-2.143-4.286-1.428-6.786-3.572-9.285-1.785H222.5s-1.786-.357-6.429 0c-4.642.357-13.571 3.928-13.571 3.928l-9.643 1.786-10.357 1.429-6.86 1.056-6.692.379-10.102 1.262-3.4.07-17.321 5.179 2.5 22.946 13.84-7.232zM138.896 298.353l20.708-7.071 16.668-6.566 12.121.505h6.566l7.577 2.02 4.545 5.05 1.01 2.021s1.263 1.768.253 3.03c-1.01 1.263-6.06 2.526-6.06 2.526l-8.587.758s-7.324 2.272-8.587 3.03c-1.262.758-10.101 3.283-10.101 3.283l-8.586 2.273-8.082 1.768-9.849 2.02h-8.333l-9.344-1.01-7.071.757-2.526-3.535 2.778-3.536 6.819-3.788z"/><path d="M98.742 265.523c-.252 1.01-1.767 4.545-2.02 5.808-.252 1.263-.505 5.05-.505 5.05l.758 6.062 3.03 4.546 3.788 3.03 3.283 1.515 6.314 2.778 2.778 4.04 2.272 4.799.31.813 2.679 15.893 1.25 2.679.055 6.626-.253 10.607s-1.768 5.808-2.02 7.324c-.253 1.515-.505 8.838-.505 8.838l-1.263 8.84-1.01 5.303-3.03 11.364-1.01 5.303-6.062 4.293-6.313 1.768-7.829 2.02-6.06 2.526-4.799-.758h-5.556l-2.273-2.02-1.894.287-2.5 5s-.357.714-.714 3.214.357 7.143.357 7.143v6.429s.357 1.428.714 3.571c.357 2.143.357 9.643.357 9.643l1.786 5 2.857.714 2.143 3.215 5.357.714s2.5.357 4.643.357 3.929-.714 3.929-.714l5.357-5 3.571-5 3.929-6.429 3.214-3.571 10.357-6.429 7.143-4.643 6.786-4.285 6.428-5 10.358-6.072 12.142-7.857 6.072-6.071 5-4.643 6.071-5.357 8.929-8.215 1.428-1.428 1.072-1.786 5.357-4.286 1.429-1.785 1.428-2.5-1.428-1.429h-2.858l-1.785 1.072-3.215 2.5-4.285 1.428-5.357 3.214-3.215 1.429s-6.071 1.071-7.857 2.143c-1.786 1.071 1.429-.714-2.143 1.071-3.571 1.786-2.857 1.786-5 2.857-2.143 1.072-11.071 6.072-11.071 6.072l-6.429 4.286-5.357 1.785-3.928-2.143-1.786-5.714v-12.5l1.428-5.357L135 336.286s.714-3.215 1.786-5c1.071-1.786 1.785-7.143 1.785-7.143l.358-2.143L140 305.929l-.714-3.572-6.965-12.321-4.464-5.357-2.5-3.215-2.5-.893-3.393-2.5-5-2.678-1.785-.714-2.5-1.072-1.25-3.036-.715-2.321-.714-3.036-.179-1.071-.714-2.322-.357-1.785-.893-1.072-2.143 1.429-.357.357-2.143 1.071s-1.071.536-1.25 1.25c-.178.715-.722 2.452-.722 2.452zM261.071 303.071l11.786-4.642 7.143-2.5 9.286-5.715 3.928-2.5 4.286-3.928 6.786-6.786 5.357-2.857 5-4.643 2.857-8.929.714-7.142.715-6.072v-14.643l6.071 2.143 2.857 3.214s.357 3.215 2.857 3.572c2.5.357 5 1.071 5 1.071l5.357 2.857 4.643 2.143 6.072 2.143 2.143 4.286 1.428 7.143s.714 7.143-.357 8.928c-1.071 1.786-5 7.5-5 7.5l-7.857 3.929-9.286 5-9.643 4.643s-3.214 1.071-6.428 3.214c-3.215 2.143-11.786 5.714-11.786 5.714s-6.429 2.143-7.857 2.5c-1.429.357-8.214 3.215-8.214 3.215l-6.429 2.142-10 2.143s2.143 0-2.5 1.429c-4.643 1.428-7.5 1.786-7.5 1.786s-5 1.785-7.5 1.785-3.571.715-6.429.715c-2.857 0-3.928-3.572-3.928-3.572l-1.786-2.5 3.929-1.071 3.214-2.143 4.286-1.429z"/><path d="M239.464 235.393l4.286 10.714.536 5s.893 3.036 1.428 5c.536 1.964 2.143 7.322 2.143 7.322s.714 3.035.893 4.107c.179 1.071-.179 6.428-.179 6.428l-1.964 5.179-.887 2.542-.505 7.829-1.263 5.808-.758 5.304-.505 3.283 1.01 20.96 1.263 7.324-.758 12.627s-.252 6.313-.252 7.323v8.082s1.768 3.283 3.283 6.313l3.788 7.576c.505 1.01 5.556 8.081 5.556 8.081l5.808 6.566 4.293 4.799s6.566 4.04 8.081 4.04c1.516 0 20.709 2.526 20.709 2.526l7.576 3.03 15.657 2.02 10.86 1.01 4.797.758s6.566 2.02 10.102 2.273c3.536.253 16.162 2.273 16.162 2.273l8.334.757 6.819 1.768 10.859 2.02 7.323 1.263 7.577 1.515 4.293.505 3.03-1.01 2.778-2.778.758-2.777-.253-2.526-1.768-3.03-2.777-3.03-2.526-4.041-4.546-4.294-1.01-1.515-3.788-2.02-6.06-5.05-6.567-2.526-9.091-1.263h-4.293l-8.839 1.515s-3.283 1.263-6.06 1.768c-2.779.505-9.85.758-12.375.758H313.147l-13.637-.758h-1.262l-14.143-4.04-8.08-3.536-4.294-3.788-6.06-4.293-4.8-4.04-4.545-7.072-.505-6.313-.505-8.587v-9.596l.758-8.081.505-6.061 2.273-25.002 2.525-4.293 1.768-9.596 3.283-11.617.757-6.566-.757-3.535V247.845l-1.263-4.04-1.01-3.031-1.01-2.273-3.536-4.545-2.146-1.39-3.283-1.388-4.294-.127-4.545.632-4.293.757-1.39 1.642s.117.475-.194 1.31z"/></svg>