<svg xmlns="http://www.w3.org/2000/svg" width="512" height="512"><path d="M44.286 183.429l-2.143-15-5.714-8.572-7.858-7.143-7.142-4.285-5-1.429L10 149.857 8.571 152l-1.428 5.714.714 4.286 5.714 5.714 9.286 5s5.714 2.857 5.714 7.143v13.572L30 207.714v7.857c0 2.858-.714 19.286-.714 19.286l-.715 7.857-.714 17.143-.714 17.857-.714 13.572-2.858 6.428-7.142 2.857-7.858.715-7.142 3.571-.715 6.429-1.428 9.285V327L5 334.857l12.857-2.143 13.572-8.571 5.714-4.286 10.714-7.143 10-6.428 13.572-10 10-7.857L85 284.857l5-5L92.143 272l-5.714-.714-9.286 4.285-7.857 5-15 4.286-2.857 1.429h-9.286l-3.572-7.857.715-12.143v-17.857l-.715-13.572v-15.714l-.714-10L40 198.429z"/><path d="M113.571 89.143L90.714 95.57l-17.143 4.286-11.428 5s-5 2.143-8.572 2.143c-3.571 0-7.142.714-7.142.714h-5s1.428-5-3.572 0-2.143 12.143-2.143 12.143l5 9.286 7.143 6.428 8.572-.714 11.428-5 7.857-5.714L85 121.286l12.143-3.572 4.286 2.143 3.571 5s2.143 5 2.143 7.857.714 7.143.714 11.429c0 4.286-2.143 20-2.857 26.428-.714 6.429-1.429 14.286-1.429 14.286l.715 20.714 1.428 13.572v38.571l-3.571 30L100.714 302S100 316.286 100 320.571v13.572l-.714 9.286v15s.714 2.142 3.571 2.857c2.857.714 6.429.714 6.429.714l3.571-3.571 4.286-8.572 2.143-13.571L118.57 322s.715-10.714 0-14.286c-.714-3.571-1.428-17.857-1.428-17.857v-50.714l3.571-25v-10.714-28.572l.715-12.143 4.285-15 .715-3.571s3.571-10.714 5.714-13.572c2.143-2.857 2.857-16.428 2.857-16.428V107l-2.857-4.286L125 98.43l-3.571-3.572-3.572-.714z"/><path d="M45 198.429s2.679.714 3.75 1.071c1.071.357 3.036 3.036 3.571 3.929.536.892 3.215 5.535 3.215 5.535v4.286c0 1.25.535 6.071.535 6.071l3.036.536 5.357.536 5.179-.893 4.286-.893s2.321-1.786 3.035-1.964c.715-.179 1.607-.893 2.322-1.607.714-.715 2.678-4.822 2.678-4.822s1.25-3.571 1.25-4.464c0-.893.179-4.464.179-4.464s-1.072-2.143-2.5-3.75c-1.429-1.607-3.036-4.286-3.036-4.286s-.357-.536-1.786-.893c-1.428-.357-4.642-1.607-4.642-1.607s.178-1.25-3.75-1.429c-3.929-.178-6.965-.178-6.965-.178l-8.035-.536-4.108-.893-8.392-3.214-3.393.179-3.036 3.392s-1.071 2.5-.357 3.929c.714 1.429 13.036 6.607 13.036 6.607zM304.561 79.655l-4.546-12.122-1.515-7.576-1.01-6.061-2.525-7.576-6.061-3.03h-4.041l-12.122 2.02-1.515 1.01-2.525 7.07v5.557c0 2.525 1.01 5.555 3.03 7.576 2.02 2.02 1.01 1.515 4.04 3.535 3.031 2.02 5.051 3.03 5.051 3.03l4.546 7.577 4.546 1.01 7.576 1.01h4.546z"/><path d="M304.056 91.019s7.324-2.778 9.091-2.778c1.768 0 8.84-.758 8.84-.758l14.394-1.767s8.839-.758 10.859-1.01c2.02-.253 12.88-.253 12.88-.253s7.323-.253 8.333-.505c1.01-.253 7.324-.505 10.354-.758 3.03-.252 11.617-1.768 11.617-1.768s4.546-.757 5.303-.757c.758 0 6.314-.253 6.314-.253l1.262-.252 2.526-2.526s.505-3.283-.758-3.788c-1.263-.505-5.05-3.283-7.07-3.535-2.021-.253-6.567-2.526-8.082-3.283-1.515-.758-4.798-3.283-6.819-4.04-2.02-.758-7.07-2.526-7.07-2.526s-3.284-1.263-7.072 1.01c-3.788 2.273-5.303 2.778-8.839 4.04-3.535 1.263-13.384 3.031-13.384 3.031s-5.05 1.515-7.829 2.02c-2.778.505-6.06-.252-9.344.758-3.283 1.01-12.374 3.788-13.384 4.04-1.01.253-18.857 2.889-18.857 2.889l-30.178 8.571-10.817 2.935-10.969.815-14.286 2.858-7.857.714-4.643 3.214S215 99.5 215 100.93c0 1.428-.714 4.642-1.071 6.071-.358 1.429-1.786 15.357-1.786 15.357l-1.786 8.572s-1.071 7.857-3.214 13.928c-2.143 6.072-3.572 11.429-3.929 13.572-.357 2.142-.357 11.071-.357 11.071l-3.214 16.429s-2.5 6.071-3.929 9.285c-1.428 3.215 0 2.857 0 2.857l-4.643 12.5-1.071 6.072-3.571 8.214-2.143 5-17.143 49.286-9.286 18.571-11.428 23.572s-.715 10-3.572 15-7.143 13.571-10.714 19.285c-3.572 5.715-9.286 12.858-13.572 19.286-4.285 6.429-12.142 17.857-12.142 17.857l-15.715 17.857L82.143 422s-5 6.429-10.714 10.714c-5.715 4.286-10 7.857-13.572 10-3.571 2.143-10.714 5.715-10.714 5.715s-4.286 0-5.714-.358c-1.429-.357-5-2.142-6.429-2.5l-4.286-1.071-3.214-.714-4.286 2.857s-1.071 2.857-1.071 5 0 4.643 1.071 5.714c1.072 1.072.357 1.429 1.429 3.214 1.071 1.786 4.286 5.358 4.286 5.358L35 467l11.071-2.143 6.429-4.286s5.714-4.285 9.286-6.071c3.571-1.786 6.428-3.929 10.357-5.714 3.928-1.786 11.786-8.572 11.786-8.572l6.785-6.785 8.572-7.858 8.571-7.857 16.072-18.928L135 381.643l8.571-13.929 7.858-15 15-31.071 7.142-23.214 12.143-26.072L197.5 237l6.429-18.571 4.642-15.358 1.786-8.571 6.429-20.714 11.428-42.143 2.857-8.572L235 109.857l1.429-3.928 3.214-3.215s4.286-1.785 6.071-2.143c1.786-.357 7.5-1.428 7.5-1.428l18.215-2.5 14.285-2.5s8.215-1.072 11.429-1.429c3.214-.357 6.913-1.695 6.913-1.695z"/><path d="M252.857 190.214c2.5-1.071 25-6.071 25-6.071l18.572-5.714s13.214-3.929 16.428-4.643c3.214-.715 11.072-2.857 15.357-4.286 4.286-1.429 27.5-8.929 27.5-8.929s7.5-3.214 10-3.928 13.929-1.786 17.143-3.214c3.214-1.429 8.214-3.215 11.429-5 3.214-1.786 6.428-4.643 6.428-4.643l1.072-2.857s1.071-1.072-.715-2.858l-4.285-4.285S392.5 132 390 131.643c-2.5-.357-4.286-.714-9.286-.714s-8.214-1.072-12.143.714c-3.928 1.786-11.428 3.928-11.428 3.928s-9.286 1.429-10.714 1.786c-1.429.357-9.643 2.143-11.786 2.857-2.143.715-6.072 1.429-8.214 2.143-2.143.714-10 4.286-10 4.286L303.214 152l-4.285 1.071-11.429 3.215s-6.071 2.143-8.214 2.5c-2.143.357-8.929 2.857-8.929 2.857l-6.786 2.857-4.642 1.429-9.643 3.214-4.643 1.786s-2.857 0-5 1.785C237.5 174.5 235 176.286 235 176.286l-1.071 3.571 3.928 3.572 5.714 2.857c1.429.714 7.858 2.857 7.858 2.857z"/><path d="M326.429 105.929s.535 2.321.892 3.571c.358 1.25 1.25 5.179 1.786 6.786.536 1.607 2.5 10 2.5 10s.357 5.535.536 6.25c.178.714-.714 17.321-.714 17.321s-.893 4.822-1.429 7.679-3.929 20-3.929 20 .179 3.393-.892 5.535c-1.072 2.143-1.965 3.75-2.858 6.786-.892 3.036-1.785 6.964-2.142 8.214-.358 1.25-.715 1.608-.715 3.75 0 2.143-1.428 1.965 0 2.322 1.429.357 2.679.714 3.572.714.893 0 4.285-.714 4.285-.714s3.929-2.322 4.465-3.036c.535-.714 3.214-3.393 4.464-5.893 1.25-2.5 2.857-6.071 3.571-8.571.715-2.5 1.965-8.393 1.965-8.393l3.214-8.393 7.143-18.214 1.607-6.607 1.071-3.215 3.026-11.785-.127-4.672.127-3.788-.38-2.525-3.535-2.652-3.283-2.02-2.651-.884-2.284-2.03-6.428-2.322-5.715-1.786-3.035-1.071-4.286-.893zM269.107 189.5s-.178 3.393-.178 4.107c0 .714-.179 3.572-.358 5.179-.178 1.607-.178 8.214-.178 8.214l.893 4.821s2.143 1.965 2.857 2.322c.714.357 4.107.357 4.107.357s4.107-1.25 5.357-2.143c1.25-.893 5.179-5.536 5.893-7.321.714-1.786 2.857-8.215 3.214-9.822.357-1.607 4.822-24.107 4.822-24.107l.893-8.393 2.5-17.678s.714-5.536.892-7.322c.179-1.785.179-3.75.179-5.535v-3.929l-3.929-6.786-6.25-4.107-5-.536s-2.678 1.072-3.392 1.072c-.715 0-4.643 2.857-4.643 2.857l-2.679 3.036s-.178 5.535-.536 6.428c-.357.893 1.25 5.536 1.25 5.536s1.429 3.393 1.965 6.429c.535 3.035 1.607 8.392 1.607 8.392l-.357 15.715s-2.322 9.285-2.857 10.357c-.536 1.071-6.072 12.857-6.072 12.857z"/><path d="M138.214 212.714l8.215 12.857s3.214 8.929 4.642 11.786C152.5 240.214 155 242 155 242l3.571 5.357s2.858 5.714 3.215 7.857c.357 2.143 3.214 9.286 3.214 9.286l10.714 5.714 20-8.928.715-11.786L200 242l6.071-3.214 14.286-3.929 15-2.143 10-3.214 22.5-5.714 23.214-3.572 38.572-8.928L345.714 207l17.857-2.857 20.358-2.857s30.357-2.857 32.142-2.857c1.786 0 16.072-1.786 17.5-1.786h16.072s8.214 0 9.643.357c1.428.357 6.785 2.5 6.785 2.5l9.643 4.286s3.215 2.143 5.357 2.5c2.143.357 8.215 1.785 8.215 1.785l4.285-2.857.715-3.928-2.5-6.072-17.5-8.214-13.572-3.571-10-5-5.714-1.786-6.786.714s-7.5 1.072-11.071 2.5c-3.572 1.429-21.786 5.714-21.786 5.714s-6.428.358-10.357 1.786c-3.929 1.429-16.786 3.214-16.786 3.214l-15.714 3.215-15.357 2.143-20.179 2.5-20.178 7.142L295 207.18l-16.25 1.428-23.036 6.429-16.964 3.571-26.607 6.964-18.572 3.215-19.642 2.5-8.215-3.572-10-4.643-2.5-2.142-4.285-5.358-2.858-2.142-6.785-3.572z"/><path d="M200.01 271.584l10.607 4.545 10.101 9.092 9.092 8.081 6.06 12.122s2.526 4.04 3.536 10.606c1.01 6.566 3.536 23.739 3.536 23.739l.505 14.647 2.02 7.071 2.525 14.142 3.536 2.526 3.03 7.07-.505 8.082-9.596 9.597s-2.02 4.545-4.546 8.08c-2.525 3.536-10.606 10.102-10.606 10.102l-5.556 4.546-.505 4.04 8.08 3.031 13.133-5.05s7.576-2.526 10.607-3.031c3.03-.505 12.626-4.546 12.626-4.546l5.556-6.566 3.03-12.122-3.03-9.091-2.525-11.617-3.03-12.627-3.031-16.667-4.546-21.719-2.02-13.132s-3.03-8.586-3.03-11.616c0-3.03-.506-18.183-.506-18.183l-10.606-9.596-14.142-8.587-11.112-6.566-5.556-2.525-5.556-2.778-19.193-12.88-3.788 2.778-1.767 6.061 2.778 4.799zM370 218.786s-27.5 5.357-30.357 6.428c-2.857 1.072-16.786 4.643-21.072 7.143-4.285 2.5-12.142 4.643-15.714 6.072-3.571 1.428-13.928 4.285-13.928 4.285l-11.786 3.572-7.5.357s-2.857-1.429-5 0c-2.143 1.428-5.357.357-6.429 3.928-1.071 3.572-2.857 0-1.428 3.572 1.428 3.571 6.428 6.071 6.428 6.071l6.429 2.857 7.857.358h8.571s9.643-2.5 11.429-3.572c1.786-1.071 12.143-3.571 12.143-3.571l13.214-5L333.214 247l8.572-2.143c1.428-.357 16.071-3.571 16.071-3.571h12.5s2.5 1.428 3.572 3.571c1.071 2.143 2.142 8.214 2.142 10.357 0 2.143.358 6.786-.714 10.715-1.071 3.928-1.786 9.285-3.214 15.357-1.429 6.071-1.786 7.857-1.786 9.643 0 1.785-2.143 8.571-2.5 11.428-.357 2.857-1.428 8.572-1.428 8.572s-1.072 5.714-2.143 10.357c-1.072 4.643-1.072 7.143-1.072 7.143l.715 6.428L365 344.5l4.286 7.143s.357 5.357 1.071 8.928a46.268 46.268 0 0 0 1.786 6.429h3.571s1.786 2.857 3.929 0 4.286-15.714 4.286-15.714 1.428-9.286.714-13.572c-.714-4.285-1.786-11.071-1.786-11.071l3.214-14.286 1.786-12.143 3.572-16.785 2.142-10.358 3.572-8.571s1.071-1.786 2.5-4.643l2.857-5.714 3.929-8.214s.357-7.5-2.5-9.286c-2.858-1.786-6.072-7.5-6.072-7.5l-14.643-6.072-4.643-1.428z"/><path d="M340.714 279.857l-21.071 3.572S310 286.286 305 288.07c-5 1.786-14.286 2.858-17.143 4.286-2.857 1.429-6.786 4.286-12.143 5-5.357.714-5 .714-7.143.714-2.142 0-22.142-5.714-22.142-5.714s-5.358 1.072-4.643 4.643c.714 3.571 2.5 4.643 2.5 4.643l16.428 5.714s3.572 2.857 7.857 3.572c4.286.714 13.215 1.785 16.072 1.785 2.857 0 15-1.428 15-1.428s8.928-1.429 12.857-2.5c3.929-1.072 17.143-5.357 17.143-5.357s9.643-2.143 11.071-2.143c1.429 0 9.643-1.786 9.643-1.786l6.072-1.429 3.214-2.142-.714-5L353.57 287l-4.285-2.143z"/><path d="M303.571 245.571l-10 5.715-3.928 5.357 2.143 13.571 1.428 12.143.357 17.5v20l-.714 10.714.357 7.143 3.215 4.643s1.785 3.572 3.928 3.572 3.214 4.642 7.5 0c4.286-4.643 6.786-10 6.786-10l1.428-14.643 1.072-25 .714-21.072s.357-5.714.357-8.571c0-2.857-3.299-5.16-3.299-5.16l-6.313-12.88-5.809-2.273z"/><path d="M288.214 357.714s9.286-3.214 10.715-3.571c1.428-.357 20.714-4.286 20.714-4.286l13.571-2.5 8.572-1.786 11.428-1.428 20.542 1.434 3.03-1.262v-9.092l-6.313-4.545-17.425-.253s-7.07-1.515-9.849-.758c-2.778.758-12.374 3.536-13.89 4.041-1.514.505-8.08 1.768-8.08 1.768l-15.405.252-18.183 7.577-10.102 2.525-20.96 6.566s-5.809 1.515-6.819 2.273c-1.01.757-4.293 6.818-4.293 6.818l7.829 2.02h7.323l17.678-1.767zM340.169 384.973l11.112 7.829 9.596 8.586 7.071 6.061 5.303 6.819 7.463 4.875s4.286 3.571 5.715 6.071c1.428 2.5 9.285 8.215 10.357 10.357 1.071 2.143 2.857 6.786 4.643 8.215 1.785 1.428 10.208 7.1 10.208 7.1l7.576 2.525 8.587 9.092 12.121 9.596s7.072 9.596 9.092 12.122c2.02 2.525 6.06 12.627 9.596 16.667 3.536 4.04 7.576 6.566 7.576 6.566h6.061l5.051-1.01s4.04 0 5.556-2.02c1.515-2.02 3.03-9.092 3.03-9.092l-3.535-17.677s-9.597-6.566-11.617-7.576c-2.02-1.01-16.667-13.132-20.708-15.153-4.04-2.02-25.254-13.132-25.254-13.132l-10.606-14.142-7.072-12.627-8.08-11.111-9.092-10.102-11.112-8.081s-7.576-5.05-12.122-7.071c-4.545-2.02-8.586-3.536-8.586-3.536s-7.576-1.515-10.101-1.515c-2.526 0-9.092 1.515-9.092 1.515l-2.525 5.556z"/></svg>