<svg xmlns="http://www.w3.org/2000/svg" width="512" height="512"><path d="M95.964 91.777L84.853 87.23l-7.071-3.03-7.071-5.051-4.546 1.515-4.546 4.546 1.01 6.06 3.536 4.041 3.536 4.546s3.03 4.545 3.535 6.566c.505 2.02 4.546 7.07 4.546 7.07l3.535 6.567 2.526 7.07 7.576 11.113 2.525 9.09 5.556 1.011H108.591l2.526-3.03 2.525-3.536 1.01-4.546v-14.142l-1.01-8.586-2.525-8.081-2.526-5.556-5.05-5.05zM20.708 206.934l2.02 10.101 2.02 8.082 5.051 8.08 7.577 2.526 7.576 5.556 4.04 2.02 5.051 4.546.778.584 1.965 1.964 2.678 3.036 2.5 1.964h1.429l1.428-.179.893-1.428.536-1.25.893-3.215-.893-7.142v-4.465-8.928l-2.143-3.215-5.013-6.01-2.525-6.314-5.304-6.313-2.273-3.03-2.525-4.041-1.263-1.768-4.798-2.525-2.02-2.273-3.03-2.273-3.536-1.263-2.273-.505-1.515.505-2.02 2.02-1.263 4.294-1.01 5.556zM75.509 321.334l-8.081 8.839-3.788 4.04-2.526 4.04-5.808 5.052-3.536 2.525-4.545 4.798-3.788 3.788-2.02 1.515-2.274.253-1.262-.505-1.768-1.01-1.01-1.515-.758-2.526h-2.02l-.505 1.515-1.01 3.788-1.263 5.051-1.768 5.303-1.768 6.566-1.01 3.536-1.515 3.536-.252 3.283L25 385.983l1.768 3.283 3.03 3.789 2.526 3.283 2.273 4.798 2.273 3.788 3.03 4.798 2.02 1.515 3.788 2.273 6.314 2.273 3.788 1.768 3.03.252s.758.505 2.273-.252c1.515-.758 3.283-2.273 3.283-2.273l2.02-2.778s-.252-1.515.758-2.778c1.01-1.263 1.263-3.283 1.263-3.283v-2.778l-1.263-1.263-.757-2.272-1.768-3.536-1.263-3.535v-3.283l.253-4.294s.757-5.303 1.767-6.06c1.01-.758 3.283-4.546 3.283-4.546l2.273-5.304 3.536-7.828 2.778-8.334 1.01-4.04 2.525-6.567 1.01-7.828 3.03-8.84 1.011-5.555 1.01-6.06.253-3.536-1.263-1.01H84.6l-2.778 1.767s0-.757-1.262.758c-1.263 1.515-3.03 3.03-3.03 3.03l-1.516 2.778zM246.477 192.792s-9.091 2.02-11.111 3.03l-22.224 11.112s-9.596 4.04-15.152 6.06c-5.556 2.021-9.597 2.526-12.627 4.041-3.03 1.516-19.698 4.546-19.698 4.546h-20.203l-2.525-1.01-3.536-2.02-3.535-3.03-.506 5.555-1.515 3.536 1.01 6.06s3.536 4.041 5.556 4.546c2.02.505 14.647 8.587 14.647 8.587l2.02 6.06 8.587 8.587 1.01 2.02 2.02 4.04h3.03l4.042-3.03s1.01-1.515 3.535-2.525c2.525-1.01 12.122-8.081 12.122-8.081l6.566-5.556 14.647-9.597 9.091-6.06 9.092-6.567 17.678-10.606 17.172-8.081 12.122-2.526 11.617-5.05 9.091-4.041 10.607-3.03 11.111-2.021h4.041l2.525 1.01-1.01 4.04-3.03 6.062-4.546 9.596-4.546 7.071-3.03 3.03-5.05 7.072-6.567 9.091-5.05 7.576-3.031 5.051-2.525 5.05-3.536 8.082-.505 8.586 1.515 1.516 1.515 1.01 4.041 3.03 7.071-2.02 6.566-9.092 6.566-8.586 4.546-9.091 5.05-4.04 7.072-8.587 4.545-10.102 6.061-7.07 6.566-9.597 7.576-9.092 6.566-9.596 2.526-3.03 1.515-6.061-2.02-9.092-4.041-3.535-1.515-2.526-10.102-5.05-5.05-3.03-7.577-2.526-11.111-1.01-5.556 1.01-6.566 6.566s0 .505-4.04 3.03c-4.041 2.526-15.153 7.576-15.153 7.576s-5.556 4.041-7.576 5.051c-2.02 1.01-10.607 5.556-10.607 5.556l-11.111 5.05s5.05-1.515-4.546 2.526c-9.597 4.04-10.607 4.546-10.607 4.546z"/><path d="M172.231 182.185v16.668l-1.515 12.122-.253 3.03-.757 16.415s-1.01 14.647-1.516 15.91c-.505 1.263-1.767 6.06-1.767 6.06l-1.516 16.92-2.02 8.84-.252 6.06-.506 4.294.758 4.04s-.758-.252 1.01 5.051 4.04 13.385 4.04 13.385l1.264 5.555 4.798 9.85 7.323 9.343 11.112 10.102 9.344 6.566 6.313 3.535 8.082 2.02 12.121 4.041 11.617 2.02 19.193 5.051 4.04-.505 12.628 2.02h5.05l16.668 2.021 15.152 1.01 14.647 1.515h10.607l19.193.505h19.193l8.081-.505h15.657l5.051-.505 13.637-1.01h32.325l10.102-2.02 7.07-2.02 10.607-.506 4.04-2.02 8.082-3.03 6.061-5.051v-5.556l.505-4.04-3.535-6.061-5.051-7.072-5.556-8.08-5.05-7.072-4.041-5.556-2.02-4.545-3.031-3.536-4.04.505-5.052 4.04-3.535 4.546-1.01 5.051-1.515 8.587v2.525l-6.566 4.04s-3.536 3.536-8.587 5.051c-5.05 1.516-14.647 5.051-14.647 5.051l-18.688 5.05-9.596 2.021-15.152.505-11.617.505h-13.132l-19.193.505H287.893l-19.697-1.01-13.638-2.525-5.05-1.515s-6.566-2.526-8.587-2.526c-2.02 0-11.616-3.03-11.616-3.03l-12.627-4.04-14.647-6.567-7.072-3.03s-1.515 0-5.555-4.04c-4.041-4.042-7.071-8.587-7.071-8.587l-4.041-7.576-3.536-15.658V276.13l1.768-6.566.253-2.778 7.07-22.728 2.526-11.112 5.303-7.828 1.01-3.788 5.304-19.193.758-5.051v-5.303l-1.01-4.041-1.01-3.788-3.284-2.778-5.05-3.535-3.536-2.526-4.546-2.525-4.798-2.273-2.273-.253-1.01 1.263-2.525 2.273v2.02l.252 3.788z"/><path d="M267.69 103.898l-10.101-5.555-11.617-5.051-5.05-1.515-9.092-2.526-3.536 2.526-.505 8.08 4.546 4.546 4.546 8.082 4.545 8.08 2.526 7.072 6.06 8.081 4.041 11.617 1.516 5.556 2.02 10.101-1.01 9.597-4.293 11.364-4.546 19.698-3.283 24.244-2.02 5.808-2.526 8.334-3.788 6.06-3.03 5.556-3.03 8.587s-1.263 2.273-2.526 4.293-3.03 4.546-3.03 4.546l-2.779 4.04-2.02 4.798-2.273 5.304-1.01 2.273-.757 4.04s.252 4.04.757 5.051c.505 1.01 3.283 5.303 3.283 5.303l1.263 2.02 1.263 2.778h4.292l3.284-2.272 1.767-1.516 4.799-7.07 3.283-6.82 3.535-13.636 1.263-6.314 4.293-13.132 2.525-7.323 3.283-14.142 2.526-11.112 1.263-5.556 7.576-22.728 8.586-23.739 3.788-14.142s.505-3.03.758-4.04c.252-1.01 2.525-10.355 2.525-10.355v-4.04l-.758-3.536-2.02-6.06-3.03-6.314-2.273-6.314-1.263-4.293-1.515-4.04z"/></svg>