<svg xmlns="http://www.w3.org/2000/svg" width="512" height="512"><path d="M130.815 137.233l-8.081-19.192-3.536-9.092-3.536-7.576-8.08-4.04-10.607-3.536-9.597-6.566-9.596-4.04-7.071 2.02-3.03 3.03-2.021 7.576 5.05 8.081 4.546 8.587 6.061 9.091 5.051 6.566 4.546 8.081 12.122 5.556s3.03.505 5.555 1.01c2.526.505 7.071.505 7.071.505h6.061l5.051-3.03zM66.165 231.178L56.063 218.55l-10.606-3.536-9.092-1.01-5.555-1.01-8.082-2.02-5.555 10.101 5.555 6.061 6.566 7.071 6.566 2.525 3.03 4.546 4.547 3.03-1.516 8.587-3.535 5.05 3.535 3.031 9.092-1.515 6.06-2.02 4.546-4.546s3.03-.505 5.051-2.526c2.02-2.02 7.071-6.565 7.071-6.565l-2.02-6.566zM125.764 305.424s-7.576 8.081-8.586 10.101c-1.01 2.02-8.082 10.607-8.082 10.607s-3.535 2.525-5.555 4.546c-2.02 2.02-11.617 10.101-11.617 10.101l-5.05 3.03-11.113 5.556-6.06 2.526-6.566.505h-8.082l-4.545-2.02h-5.051l.505 4.545 4.04 12.122s1.516 1.01 2.526 5.05c1.01 4.041 9.091 20.204 11.112 22.224 2.02 2.02 7.576 9.092 7.576 9.092l4.545 4.04 8.082 3.536 7.576 2.02 6.566-.505.505-12.627v-10.101l1.515-14.648 1.01-10.101 3.03-13.637s3.536-7.576 4.546-10.102c1.01-2.525 4.546-11.111 4.546-11.111l5.05-8.587zM193.444 149.86l4.546 17.173s.505 8.586.505 14.647-.505 20.708-.505 20.708l-1.515 10.102v28.284l-.505 10.607-.505 12.121-.506 11.617v17.678l-1.515 16.667v8.082l.505 9.596-1.01 8.081v7.576l-.505 9.597-2.02 10.606-1.515.506.505 2.525-.505 1.01v1.01l-1.516 2.526 2.526.505 3.03 2.02 4.04-1.515 6.567-4.04s.505-1.516 2.525-3.536 1.515 1.01 2.02-3.536c.505-4.546.505-8.586.505-10.606 0-2.02-.505-14.648-.505-14.648l1.516-11.111 1.01-9.597.505-10.101V289.26l-2.02-14.142.505-16.667-1.516-14.142 2.02-13.132s0-4.546 1.01-10.607c1.011-6.06 1.516-7.576 1.516-7.576l.505-7.071 3.03-13.132 1.01-4.546 2.021-11.617v-7.07l-1.515-4.546-2.02-3.03-4.041-5.557-9.091-6.06-2.526-.506-1.515-2.02h-1.515zM385.373 62.482l-20.708 5.556s-22.223 2.525-24.244 3.535c-2.02 1.01-10.101 3.031-20.708 4.041-10.606 1.01-28.79 6.061-28.79 6.061l-23.233 8.586s-10.606 2.02-14.142 3.03c-3.535 1.01-12.627 4.041-12.627 4.041s-4.04 0-10.101 2.526c-6.061 2.525-6.566 2.525-6.566 2.525l-7.071 1.515-1.515 2.526 2.02 6.06 4.04 8.587s3.03 1.515 3.536 3.536c.505 2.02 1.515 4.04 4.546 5.555l8.08 4.041 10.608-1.515 6.566-4.546 5.555-5.05 9.597-5.557 8.586-3.03 14.142-7.071 12.122-5.05 16.668-6.062 7.07-2.525 17.678-2.02 12.122-2.02s9.092-2.021 11.112-2.021c2.02 0 17.678-1.01 17.678-1.01s7.576-1.01 10.101-1.515c2.525-.506 4.546-.506 4.546-.506s2.525.506 4.545 2.02c2.02 1.516 6.061 5.557 6.566 8.587.505 3.03 1.516 4.04 2.526 9.597 1.01 5.555 2.525 15.657 2.525 15.657s.505 7.071 1.01 10.606c.505 3.536 1.01 13.638 1.01 13.638s2.02 14.142 2.02 18.687c0 4.546-1.01 22.729-1.01 22.729l1.01 14.142s1.01 16.162 1.01 18.688v13.132l2.021 14.142 1.01 14.647 1.01 10.102-1.01 21.213 1.516 18.688s.505 4.545.505 8.586c0 4.04.505 15.152.505 15.152v20.708l-.505 10.607-1.516 4.04-2.525 3.031-4.546-.505-3.535-2.02-10.102-3.03-1.01 7.07v2.02l6.566 8.082 2.02 6.06 2.526 10.102 5.556 13.637 3.03 11.617 4.546 8.081 6.06 2.02h5.052l6.06-2.525 6.566-9.596.505-11.112v-12.122l-3.03-12.122-2.02-9.596-1.515-16.163-.506-11.111-1.515-22.729-4.545-19.193-2.02-18.687-1.01-16.163v-19.698l-2.021-19.698-.505-16.667v-9.597l-2.02-10.101v-25.254l-.506-15.152-1.515-13.132 1.515-14.142 2.02-8.587 3.031-10.101 1.01-8.587v-6.06l-2.02-6.566-2.02-5.051-3.536-7.071-3.535-4.546-7.577-3.03-8.08-5.556-7.577-2.526a51.667 51.667 0 0 0-5.556-1.515l-7.07-.505z"/><path d="M343.957 150.365l-12.122 3.536s-2.525 0-8.081 1.01c-5.556 1.01-15.152 3.03-15.152 3.03l-10.102 2.526-15.152 6.06h-8.081l-4.041 1.516h-5.556l-5.05-.505-1.01 3.03 5.555 4.546 2.525 4.04 1.516 3.031.505 2.526 1.515 3.535 3.03 1.01 6.061-1.01 6.566-1.01 8.587-4.04 6.566-3.031 11.616-4.546h6.061l14.647-1.01 4.041-2.02 7.576-3.03 7.071-1.516 5.051-1.01 5.556-5.556-1.01-2.525s-2.02-3.03-4.04-3.03c-2.021 0 2.02-.506-4.041-2.021s-8.587-2.525-8.587-2.525zM269.206 269.058l-9.597-7.07-8.586-3.536-7.576-5.051-6.061-1.515-7.576-5.556-5.051-2.525h-4.546v3.03l2.02 2.525 6.567 5.556 5.05 5.556 8.082 4.546 5.05 2.525 5.051 6.566 4.546 5.556 4.04 9.091.505 6.566 1.516 11.617.505 6.566-.505 5.556 4.545 1.515h3.536l6.566-3.03 3.03-3.536 2.02-5.556.506-7.576v-7.07l-3.03-8.082-2.526-5.05-2.526-5.052zM258.599 243.3l5.556 8.08 3.03 1.01 3.536 1.516 6.06 1.01h10.102l4.04-.505 7.072-2.02 8.081-3.03s3.536-2.021 6.061-3.031c2.526-1.01 6.061-1.515 6.061-1.515l6.061-2.02 6.06-2.021 5.052-1.515 5.05 2.02 9.092 2.02s1.01 5.556 1.01 8.082v8.08l-3.536 7.072c-2.02 4.04-.505.505-2.525 4.546-2.02 4.04-6.06 9.596-6.566 12.121-.505 2.526-4.546 10.102-4.546 10.102s-1.01 1.01-1.01 3.03c0 2.02-.505 7.072-.505 7.072V311.988l2.525 4.546s-2.02 1.516.506 1.516c2.525 0 5.555-.505 5.555-.505s1.01-6.566 1.516-9.597c.505-3.03 3.03-12.122 3.03-12.122l1.515-4.545s1.516-6.061 2.526-8.587c1.01-2.525 2.02-6.06 2.02-6.06l2.02-7.577.505-7.07 4.041-6.062 7.071-5.05 3.03-2.526 4.041-7.576 3.03-8.081-3.03-.505-2.02-6.061-2.526-5.556-7.07-3.03-8.082-2.02s-2.02-.506-5.556 0c-3.535.504-5.556 5.05-5.556 5.05s-3.03 1.515-6.566 3.03c-3.535 1.516-9.09 3.03-9.09 3.03l-8.587 2.021-8.586 1.515-15.153 3.03-9.596 2.526-7.071 2.526s-2.02-2.02-7.576.505c-5.556 2.525-10.102 4.545-10.102 4.545z"/><path d="M367.948 309.717l-7.324-4.293-8.08-2.273-3.536-1.263-9.85-.757-14.141 1.262-6.314 2.02-6.313 2.779-3.536 2.272-4.546 4.041-2.777 6.06s-.758-.252-.758 2.021c0 2.273 0 .758 1.01 2.273 1.01 1.515 3.03 1.515 3.03 1.515h2.778l4.799.253 7.07-1.263 13.89-1.263 11.87-1.262 7.323-1.263h3.788l7.071-1.01 3.788-1.01 1.516-1.768 1.262-3.03z"/></svg>