<svg xmlns="http://www.w3.org/2000/svg" width="512" height="512"><path d="M1.515 203.903l10.86 3.536 5.05 3.283 3.536 4.04 5.556 7.577 2.02 5.05 21.97 7.324 9.345 3.536 39.395 11.111 6.314-.505 8.334 4.293 8.333 4.294 10.86 8.333 13.384 24.244 7.324 26.516 2.273 16.92 2.525 21.719 3.283 22.223 1.263 6.061 2.02 4.798 4.293 4.546 3.536 5.808 12.627 4.799 6.06-1.768 1.516-3.03-.253-3.789-1.263-4.798-2.525-6.818-4.293-11.112-2.02-8.839-1.768-12.88-4.04-17.172-3.536-17.173-2.273-12.374-4.04-12.627-3.284-14.647-.252-5.556-2.526-12.122-2.525-8.081-4.546-8.334-10.606-7.828-7.829-4.799-20.203-9.091-23.739-9.091-42.426-13.637-19.698-4.799-15.405 3.283zM169.643 202.714l-10 1.786-1.072 4.286.358 3.571 5.714 8.214 6.428 8.572h7.5L232.5 214.5l48.929-11.429 58.214-10.714h4.643s7.5 2.5 10.357 2.5c2.857 0 38.214 1.786 38.214 1.786l16.429.357 7.143 2.143-.358 4.286L410 222.357l-8.929 31.429-7.857 16.428L375 329.143l-9.643 20-5.714 8.928-16.786 22.143 2.857 21.072 2.143 11.071 3.214 17.143 5 5 5.715-2.5 4.285-8.571L372.143 397l3.571-17.857L380 364.5l5.357-21.786 7.5-26.071 8.214-20 10.715-26.786 11.071-23.571 11.429-24.643 7.857-17.5-3.572-12.5-9.642-8.929-16.786-9.285-7.5-6.072-8.214-2.143-8.215.715-18.571 2.142-25 6.072-26.429 6.428-37.143 5.715-23.571 3.928-28.929 5.357-32.142 4.643z"/><path d="M260.18 274.023c-8.036 2.5-14.107 4.524-21.906 6.667-7.799 2.144-17.32 4.405-24.166 6.429-6.845 2.024-11.012 3.809-14.464 4.821-3.453 1.012-6.19 1.25-8.668 1.894-2.477.644-4.784 1.737-5.142 2.928-.357 1.191 1.19 2.5 3.511 4.464a945.155 945.155 0 0 0 8.155 6.845c2.738 2.262 5.12 4.167 7.203 5.417s3.869 1.846 6.607 2.143c2.737.298 6.43.298 11.522-1.474 5.094-1.772 11.693-5.372 17.585-8.05 5.893-2.679 11.132-4.465 17.619-6.548s14.227-4.464 20.834-6.25c6.607-1.785 12.084-2.976 18.63-4.821 6.547-1.845 14.168-4.346 20.06-5.833 5.893-1.488 10.06-1.965 13.69-3.274 3.631-1.31 6.727-3.453 9.048-5.655 2.321-2.202 3.87-4.465 3.334-6.785-.535-2.32-3.156-4.703-8.453-6.25-5.297-1.548-13.273-2.262-21.53-1.315-8.258.947-16.862 3.576-26.149 6.374-9.286 2.798-19.285 5.773-27.32 8.273z"/><path d="M245.417 225.274c.654 1.845 3.512 5.178 6.594 10.095 3.083 4.916 6.441 11.512 8.465 17.166 2.024 5.655 2.738 10.417 3.036 15.417.298 5 .178 10.237.178 16.726 0 6.49.12 14.226.596 21.19.476 6.965 1.31 13.155 1.666 21.668.358 8.512.238 19.344-.119 29.106-.357 9.763-.952 18.452.411 22.62 1.364 4.168 4.71 3.81 7.804 1.845 3.095-1.964 5.953-5.537 7.976-11.428 2.023-5.892 3.214-14.109 4.464-23.93 1.25-9.82 2.56-21.25 3.393-31.071.833-9.821 1.19-18.036 1.786-26.786.595-8.75 1.428-18.036.952-26.25-.476-8.213-2.262-15.357-4.821-21.309-2.56-5.952-5.893-10.714-10.12-14.047a26.459 26.459 0 0 0-14.463-5.595c-5.12-.358-10.238.833-13.571 1.606-3.334.774-4.88 1.131-4.227 2.977z"/><path d="M185.06 376.583c-3.63.893-7.916 2.083-11.25 3.036-3.333.952-5.714 1.666-7.262 3.035-1.548 1.37-2.262 3.392-1.905 5.239.358 1.846 1.786 3.512 4.107 5.893 2.322 2.38 5.536 5.476 9.584 6.904 4.048 1.429 8.929 1.19 15.06-.059 6.13-1.25 13.512-3.512 24.106-6.31 10.594-2.797 24.406-6.13 37.858-8.869 13.452-2.738 26.548-4.88 37.321-6.428 10.774-1.548 19.227-2.5 27.083-2.976 7.857-.477 15.12-.477 22.381.119 7.262.595 14.524 1.786 20.298 1.488 5.774-.298 10.06-2.084 13.095-4.286 3.036-2.203 4.822-4.823 4.643-7.321-.178-2.5-2.322-4.881-5.43-7.178-3.109-2.296-7.368-4.608-13.321-6.267-5.954-1.658-13.927-2.746-22.32-2.567-8.394.178-17.321 1.607-26.727 3.035-9.405 1.429-19.285 2.857-29.107 4.94-9.822 2.084-19.582 4.822-29.88 6.965-10.299 2.143-21.131 3.69-31.012 5.179-9.882 1.488-18.81 2.916-24.762 3.928-5.953 1.012-8.928 1.607-12.56 2.5z"/></svg>