<svg xmlns="http://www.w3.org/2000/svg" width="512" height="512"><path d="M350.523 65.513l-44.447 15.152-39.396 6.06-20.203 4.041-22.223 2.02-21.213 5.051-18.183 3.03-12.122 1.011h-4.04l-2.02 2.02 5.05 6.061 9.091 3.03 9.092 1.01 13.132 7.072h7.07l13.133-1.01 16.162-9.092 19.193-5.05 11.112-6.061s13.132-1.01 17.172-2.02c4.04-1.01 14.142-4.041 14.142-4.041l18.183-5.05h49.498l7.07-1.011 11.112-1.01 1.01-5.051-6.06-5.05-9.092-1.01-12.122-5.052zM207.857 149.143l-5 7.857-2.143 16.429s-1.428 11.428-2.143 15.714c-.714 4.286-9.285 23.571-9.285 23.571l-8.572 20.715-5 15-5 20.714s-11.428 22.143-12.857 25c-1.428 2.857-7.143 16.428-8.571 19.286-1.429 2.857-7.143 15-7.143 15l-14.286 31.428-8.571 11.429-20 30L88.57 412 75 429.143l-14.286 14.286c-2.857 2.857-15 12.857-15 12.857l-6.428 2.143-5 3.571-3.572 4.286-7.143 3.571-5.714.714L11.43 472l-2.858 2.857h5l7.143.714h8.572l12.143-7.142L52.857 462l13.572-9.286 21.428-12.143 17.857-16.428 21.429-20.714L140 382.714 149.286 362l10-17.857 12.143-26.429 6.428-23.571 15.714-28.572L207.143 237l12.143-40.714L225.714 182l2.143-6.429-5.714-12.857-3.572-6.428z"/><path d="M183.214 209.143l-8.571-1.429-7.143-2.5-3.929-.714-3.214.357-1.071 4.643s4.285 4.643 6.071 5c1.786.357 6.786 6.429 6.786 6.429l5.536 7.5 14.107 12.142 1.607 1.608 3.84 5.161 6.818 9.344 4.293 7.071 2.525 12.374 3.03 10.354s3.284 7.83 3.284 8.84c0 1.01 1.768 24.748 1.768 24.748l2.835 5.5 1.428 15 3.215 11.786 5.714 13.214 3.214 10.358 3.572 5.357h5l3.571-2.857 2.857-8.215-2.5-9.643-3.214-9.285-1.786-12.5-1.786-13.929-5.714-14.643-1.786-12.143-3.214-14.642-3.928-16.072L223.57 257l-.714-9.643-1.071-5.714-5-12.857-10.357-10.715-3.572-3.214-4.286-1.428z"/><path d="M355.069 187.741l-18.688 2.02-22.224 5.556h-12.626s-13.132 2.02-15.153 3.03c-2.02 1.01-11.617 4.546-11.617 4.546l-24.243 2.526-21.718 8.08-12.122 5.052-15.658 7.828s-3.03 4.546-2.02 6.566c1.01 2.02 3.679 2.626 3.679 2.626l8.214 2.679 5 .179 15.714-5.179 8.214-3.75L250 226.464l17.438-5.893 9.596-3.788 18.94-4.293 16.668-5.556 10.102-2.778 10.606-1.515 10.86-1.263 8.08-2.02 3.789-.253 1.262 2.778s1.263 4.04-.252 7.829c-1.515 3.788-3.536 7.829-3.536 7.829s-1.767 6.06-2.02 7.828c-.252 1.768-1.515 5.809-1.515 5.809l-3.03 11.364s-1.516 4.798-1.768 6.06c-.253 1.263-1.516 6.567-1.768 8.082-.253 1.515-1.263 11.112-1.263 11.112l-1.263 7.576-1.01 6.06-1.262 7.324-1.263 7.576s-1.01 7.072-1.263 8.082c-.252 1.01-.757 8.08-.757 8.08l-.758 7.324v5.051l1.515 3.03 2.273 3.031s2.02 0 3.283-.757c1.263-.758 6.566-7.83 6.566-7.83l3.03-9.343 1.768-14.9 3.283-12.122 2.273-11.616 2.273-8.334 2.02-9.85 2.778-9.343 2.02-8.334 1.516-5.556 3.535-5.555 2.273-5.809 4.293-7.323 4.546-2.273 5.05-2.526 4.546-2.02 3.283-2.778s1.263.758 1.516-1.515c.252-2.273.757-4.798.757-4.798l-.505-5.051-2.525-2.273-2.02-2.778-2.273-2.525-2.02-2.526-3.789-2.02-5.05-3.283-5.051-3.535h-6.061s-2.526.505-4.04 1.767c-1.516 1.263-4.294 3.788-4.294 3.788s-1.01 2.526-1.768 4.041c-.757 1.515-1.515 3.535-1.515 3.535z"/><path d="M255.316 345.577s10.102-4.04 12.374-5.303c2.273-1.263 4.041-2.02 4.041-2.02l10.354-4.04 12.88-1.011 11.111-2.02 10.102 1.262h11.364c1.263 0 17.425-.252 17.425-.252s10.102-.505 11.364-.505c1.263 0 10.607-1.515 10.607-1.515l.252-3.03-3.03-6.062-4.546-4.293-14.394-8.586-5.809-2.02-7.828-.253-10.86 1.01-9.596 2.778-15.91 1.263-10.354 2.778-10.102 2.777-9.343 3.283-9.344.506-7.576 2.272-16.415 6.819s-3.536 4.04-4.041 5.808c-.505 1.768 1.515 7.829 1.515 7.829s6.819 4.04 8.334 4.293c1.515.253 10.101-.757 10.101-.757z"/></svg>