<svg xmlns="http://www.w3.org/2000/svg" width="512" height="512"><path d="M196.786 143.429L182.857 147s-11.428 2.5-13.571 3.214c-2.143.715-13.572 2.5-13.572 2.5l-9.643.357-5.357.358h-3.571l-4.643-1.072-1.429 2.857 1.072 3.215L135 162l3.571 2.857 5.715 2.5 4.643 3.929s3.928 1.071 5.357 1.071h5.357l8.571-4.643 2.857-2.143 2.858-2.5 9.642-4.285 4.643-1.429 3.215-1.071 1.428-1.786 5.357-1.429L201.43 152h17.5l9.285-2.5 6.072-1.071 3.928-1.072 2.857-1.786-2.5-2.857-4.285-5-8.215-1.428-5-1.429-6.428 1.786-10.357 4.286zM163.645 183.7l-.505 16.668 1.515 8.586-1.515 9.092-5.556 11.616-8.081 19.193-6.566 10.102-7.071 16.667-10.102 17.173-2.525 4.04-10.607 14.648-7.576 9.596s-6.566 8.586-9.092 10.607c-2.525 2.02-8.08 8.081-8.08 8.081l-6.567 9.596-3.535 6.061-23.234 19.698-9.091 8.082-11.617 7.07-3.535.506-1.734-.39-1.607-2.142h-1.607l-1.607.179-1.607 2.857-.893 1.428-1.071 2.5-1.072 2.679-1.25 3.214.179.893.714 1.786 1.429 2.321 1.071 1.072 1.964.714 3.75-.179L30 405.93l3.75-1.429 3.75-2.321 5-1.786 3.214-1.607 3.215-4.107 3.035-2.858 3.215-2.5L63.036 382l4.107-3.393 7.143-5.714 6.785-5.714 5-5.179 16.786-22.143 4.643-6.786 5-8.214 11.786-13.928 4.643-9.286 8.571-13.572 4.643-10.714 5.357-11.428 3.214-7.143 3.929-11.072 2.5-5.357 3.214-5.714 2.5-10 2.5-3.572 2.143-5.357 4.643-5.357 3.571-5.714 1.429-5L178.57 197l-1.428-5-1.786-3.571-3.214-3.572-1.429-2.143-4.285-1.428z"/><path d="M149.821 265.393s3.036 7.143 3.036 7.857c0 .714 1.25 10.536 1.25 10.536s3.214 7.857 3.393 10.178c.179 2.322.714 12.5.714 12.5l.715 6.786s.357 9.643.178 10.536c-.178.893-.357 9.643-.357 9.643v2.857l1.429 3.75 1.607 3.75 3.928 3.214 2.5 1.071 2.143 1.608h2.679l1.607-1.965-.179-3.214s-.178-.893-.357-2.5c-.178-1.607-.536-5.893-.536-5.893l-.178-3.214-.179-3.393-.535-2.143 1.071-1.071 1.25-1.25 4.464-1.429 3.393-.178 5.893-.893 8.214-.893 9.286-1.072 5.893-.178 6.071-.893 5.179-.536 2.5-.893 2.143-.714 2.5-1.428 3.214-1.965 1.607-3.035-1.428-1.608-.893-.892-1.072-.536-1.25-1.786-.178-3.214.535-4.464.893-4.822 1.786-6.25 1.429-4.286 1.607-4.821 1.964-7.321 2.143-7.322 2.143-5.178 3.928-4.822 1.965-2.857 1.25-1.607 1.607-2.679.357-2.143-.714-1.785-1.786-1.607-2.679-2.143s-.357-1.072-2.321-1.25c-1.964-.179-5.536-1.072-5.536-1.072l-2.143-.893-1.785-1.964-4.108-1.786-4.642-.535-3.393 2.143s-3.75 1.785-4.822 2.678c-1.071.893-4.821 3.393-4.821 3.393s-1.607.893-4.107 1.786-8.75 2.857-8.75 2.857l-3.393 1.607-3.572.536-4.642 1.428-4.643.536-5.893.357-3.214.714-4.822.893-1.786 1.072-.714 2.678L170 255.75s1.429.357 2.143 1.429c.714 1.071 2.321 5 3.036 5.357.714.357 2.5 3.928 2.5 3.928l2.321 2.857 2.857.893s4.822.357 6.607 0c1.786-.357 4.822-1.25 4.822-1.25l2.678-1.607 3.393-1.964 3.214-2.143 5.179-1.607 5.893-1.072 1.964-.357s.893.893 1.25 1.607c.357.715 1.25.179 1.25 1.965 0 1.785-.178 6.428-.178 6.428l-1.429 5.715s-1.071 5.535-1.071 6.25c0 .714-.536 5.357-.536 5.357s-.714 5.535-.893 6.785c-.179 1.25-.893 3.572-.893 3.572l-2.857 3.036-4.286 1.964-5.357.714-7.5 1.786-5.714 1.25-5.179 1.428-5.893 1.429h-6.785l-3.036-7.321-.179-5.358-.714-5.714-.714-7.678-.357-7.143-.357-3.75-1.25-5.536-1.429-3.75-.893-.357-2.678-2.679-2.5-1.785-1.786-1.608-5.179-3.035s-1.428.893-1.518 1.339c-.089.446-.535 3.304-.625 3.84-.089.535 2.5 6.428 2.5 6.428zM310.357 209.5l1.786-6.429 1.428-9.642-1.428-11.786-2.5-16.072-2.5-11.785-4.643-12.5-5.357-9.286-3.929-7.5-2.5-3.214-3.571-5.715-2.5-2.142-2.143-3.572-2.857-.357-2.857 5s-2.143 5.714-2.143 6.786c0 1.071 1.786 10.357 1.786 10.357l2.142 7.143s1.429 3.928 2.858 5.357c1.428 1.428 5.357 8.214 5.357 8.214l5.357 7.143s3.571 9.286 4.286 11.786c.714 2.5 1.785 12.143 1.785 12.143L300 190.57l.357 7.858.714 4.642 1.072 3.572 2.143 3.571 3.214 3.215.714-2.143zM398.214 78.429l-6.071 1.428-5.714 4.286L385 87.357l-2.857 2.143-16.072 3.571-11.428.358s-3.929.714-10 2.5c-6.072 1.785-16.072 1.428-16.072 1.428s-8.571.357-11.071 1.429c-2.5 1.071-8.571 1.071-8.571 1.071l-3.572-.714s-3.214 1.071-3.214 2.857c0 1.786 1.428 3.929 1.428 3.929l3.572 3.571 4.643 2.5 4.643 5.714 5.357 1.786 5.714-1.071 6.071-2.5 9.643-2.143 7.5-2.5 7.5-1.429 8.572-.714 13.571-1.786H385l2.857 3.572 1.072 5.357v6.428s-1.429 7.143-1.786 8.572c-.357 1.428-1.429 5-1.429 5l-2.143 6.785-.714 8.929-1.428 7.5s-1.072 3.571-1.429 5.357-2.5 8.929-2.5 8.929l-1.429 5.714c-.357 1.429-1.071 5-1.071 5l-1.429 5.357-1.071 6.786-.357 7.5v1.786l1.786 5.357 1.785 3.571h4.643l2.857-1.428 4.286-5 1.786-7.858 1.785-8.928 2.143-15.357 2.143-8.929 1.072-8.928 2.857-9.286L403.57 137l2.143-14.286 3.572-9.285 3.214-7.858 4.286-4.285 5.714-3.929 1.786-7.857-2.857-1.786-3.572-5-5-2.5-7.857-2.5z"/><path d="M356.786 140.929l-10 2.857s-6.072 1.071-7.5 2.143c-1.429 1.071-10 2.857-10 2.857l-1.429 2.143 2.857 4.285 5.357 1.429h5.715l7.5-1.786L357.5 152l4.643-2.143 2.143-2.143 1.071-6.785-5.714-.715zM363.655 187.741l-16.92 1.768-19.698 5.303-6.061 1.01h-2.778l-12.122 2.526-11.87 2.525-10.606 1.263-4.545 1.01h-2.273l-2.02 2.525.252 3.788 2.525 5.304 1.768 2.02 3.788 2.525h4.798l4.546-1.262 5.05-2.526 21.972-8.081 5.808-1.768 15.91-3.283 6.313-1.01 9.85-2.02 9.343-1.01 32.325-1.516 3.03-1.262 1.263-4.04-2.02-3.284-5.556-2.525h-15.405zM317.693 224.107l-9.091 10.101-5.051 7.576-7.576 9.597-10.607 7.07-9.596 8.587-5.556 5.05-7.071 5.557-3.536 3.535 11.112 2.526 11.617-6.061 15.657-10.607 17.173-8.586c3.03-1.516 11.616-7.071 11.616-7.071l3.536-4.546 1.515-6.566-4.546-4.04-3.03-7.072zM462.65 236.733l-12.122 2.02-33.335 1.516L398 241.784l-16.667 2.02-20.203-1.01-4.041-1.515-6.061-1.01-6.06 1.01-1.516 7.576 1.01 5.556s0 3.03 2.02 3.03 2.526 4.041 2.526 4.041h11.616l14.143-6.06 4.04-.506s8.587.505 11.112-.505c2.525-1.01 10.606-1.515 10.606-1.515l21.719-3.536 17.172-2.02h12.627l8.587-1.01h4.798s1.515.757 2.273 2.02c.757 1.263 1.01 6.314 1.01 6.314s-.253 5.05-.505 6.06c-.253 1.01-2.02 5.051-2.02 5.051l-3.284 11.365-5.045 13.789-6.428 12.142-4.286 10-6.072 10.715-2.857 12.5-11.071 16.071-5.357 9.643-5.715 8.214s.358-1.785-1.428 1.786c-1.786 3.571-7.143 12.5-7.143 12.5l-5.357 6.071-5 4.286-6.072 2.5-11.785-5-3.572-3.571-7.857-2.143-2.143-2.857-1.785 4.285v7.858l2.857 6.071s1.428 4.286 1.428 6.429c0 2.142 1.429 12.5 1.429 12.5s1.428 5.357 1.428 7.142v5.358h4.286l9.643-1.072 5-1.428 14.643-12.5 8.571-10 11.072-13.572 2.5-4.643 5.357-14.285 5-8.215 6.786-12.5s4.285-8.214 5-9.643c.714-1.428 6.785-13.214 6.785-13.214l5-10.714 7.5-14.286 3.929-15.714 5-12.857L482.5 262l3.571-11.786-.357-6.071-6.785-6.072-6.429-2.142h-3.929z"/><path d="M295 311.643l-6.786-5.357-10.357-5-6.786-2.143-5-.714-2.857-1.072s-1.785 3.929-1.785 5.357c0 1.429.714 7.5 2.857 7.857 2.143.358 2.5 2.5 2.5 2.5l6.428 2.5 5.715 5 2.5 7.858 2.142 8.214v12.5s-.714 1.428-1.785 3.214c-1.072 1.786-2.143 1.072-3.572 4.286-1.428 3.214-2.5 8.214-2.5 8.214l1.429 6.429s1.786.714 3.214.714c1.429 0 5.714 1.071 7.143 1.071h5l8.571-3.571 8.929-3.571 13.929-1.786 13.928-2.857L350 359.857l15.714 1.072 10 .357 6.072 1.071 3.214-3.571.714-2.5-3.214-3.215-4.286-3.571s-5.714-3.214-11.071-2.857c-5.357.357-10.714.357-12.857 1.071-2.143.715-14.286 3.572-14.286 3.572s-6.071 1.071-7.857 1.428c-1.786.357-15 .715-15 .715l-6.786.357-8.214.714-4.286-1.786-3.214-3.571.714-8.214.357-7.5 1.786-6.786v-5.714z"/><path d="M335 276.643l-3.929 6.786s-2.857 7.142-2.857 8.928c0 1.786-2.857 9.643-3.928 11.072-1.072 1.428-3.572 6.785-3.572 6.785L316.43 317l-5 3.929s.714 3.928 2.142 4.285c1.429.357 5.715 1.072 5.715 1.072l7.143-4.643 7.5-6.786s5-3.214 6.428-3.928c1.429-.715 8.214-6.786 8.214-6.786l5-6.072.358-6.071-4.286-2.857-3.572-4.643-3.571-4.286-4.286-3.571zM362.5 303.786l4.643 3.571 3.928 5 5.715 2.857 5.714 1.072 2.857.357.714 2.143.358-3.929-3.929-7.5-3.929-3.214s-6.071-3.572-7.142-5c-1.072-1.429-6.072-1.072-6.072-1.072l-1.786 1.786z"/></svg>