<svg xmlns="http://www.w3.org/2000/svg" width="512" height="512"><path d="M10.714 122.714L20 119.143l8.571-.714s3.572-5 6.429 2.857 12.857 27.857 12.857 27.857l5.714 15 3.572 23.571v28.572L55.714 222 55 223.429s-2.143 3.571 0 9.285c2.143 5.715-1.429 3.572 2.857 6.429C62.143 242 64.286 242 64.286 242l7.143-7.857L82.857 217l-6.428-38.571L72.143 157l-3.572-20s-.714-2.143-.714-5.714c0-3.572-.714-8.572-.714-8.572l-3.572-7.143-1.428-4.285-10.714-7.857L49.286 102l-3.572-6.429-12.143-1.428s-.714 0-7.142 6.428C20 107 17.857 107 17.143 109.857 16.429 112.714 15 121.286 15 121.286zM73.214 103.071S87.143 95.93 88.93 95.93c1.785 0 9.642-2.5 12.857-3.929 3.214-1.429 12.857-5 12.857-5l26.428-7.857L147.857 77l8.572-2.857 12.266-5.6 3.03-6.06 2.526-2.021 4.04-4.546 6.567 1.01v11.112s-1.515 14.647-2.525 18.688c-1.01 4.04 1.01 2.02 1.01 2.02v10.607s1.515 1.515 1.515 5.556c0 4.04 1.515 4.545 0 13.132-1.515 8.586-2.02 12.626-2.02 14.647v26.769s-.505 7.07-.505 9.091v11.617s0 3.535 2.02 7.071c2.02 3.535 3.03 7.576 5.05 7.576s6.062 4.04 10.102 4.04 9.597 1.516 12.122-4.04c2.525-5.556 5.556-17.678 6.06-23.233.506-5.556 0-16.668 1.011-23.234 1.01-6.566 3.03-25.759 3.03-25.759s.506-16.667.506-22.728 1.01-10.102 0-15.153c-1.01-5.05-4.041-21.718-4.041-21.718s-1.01-20.708-1.01-23.233c0-2.526-1.01-11.617-1.01-11.617L204.05 23.59s-14.142 4.546-20.708 9.597c-6.566 5.05-6.566 4.545-6.566 4.545"/><path d="M176.777 37.733l-29.8 12.627s-15.152 7.071-18.183 7.576c-3.03.506-16.162 4.041-19.698 5.556-3.535 1.515-16.162 5.051-19.192 6.061-3.03 1.01-16.163 6.566-19.193 8.586-3.03 2.02-13.132 8.082-13.132 8.082l-21.15 19.708 5.357 7.142 7.5 1.786 23.928-11.786"/><path d="M126.429 3.071S120 12 118.57 15.214c-1.428 3.215-4.285 17.5-4.285 17.5s-5.357 10.357-5.357 12.5c0 2.143-.715 8.215-.715 8.215s.357 15 1.429 16.785c1.071 1.786 3.214 5 9.643 3.572 6.428-1.429 7.5-2.5 8.928-3.929 1.429-1.428 3.572-7.5 3.572-7.5l1.071-4.643-2.143-12.143s2.143-5.714 2.5-9.285c.357-3.572 1.072-9.643 1.072-9.643s1.428-3.929 1.428-5.357c0-1.429.357-8.215.357-9.643v-5zM159.643 124.857l-20 8.572s-7.5 4.285-10.714 5.714c-3.215 1.428-17.5 4.643-20 6.071-2.5 1.429-7.143 3.929-11.786 5.715-4.643 1.785-6.429 1.785-10.714 3.214-4.286 1.428-7.143 2.143-7.143 2.143l-15 8.571s-1.429 1.072-1.429 7.143 5.714 9.643 5.714 9.643l2.858.714s15.357-3.571 18.928-5.357c3.572-1.786 6.429-3.929 11.786-6.071 5.357-2.143 11.786-5.358 11.786-5.358s10.714-3.214 16.428-5c5.714-1.785 20-7.142 20-7.142l13.572-10 8.928-3.572 21.072-2.5 10.357-4.643s2.857.715 5-3.214 6.071-5 3.214-10.357c-2.857-5.357-14.286-6.786-14.286-6.786L190 117.714s-15 3.572-18.214 4.286c-3.215.714-12.143 2.857-12.143 2.857zM155.357 187.714S139.643 200.214 135 202c-4.643 1.786-13.571 4.643-16.071 5-2.5.357-15 1.786-15 1.786l-10.715 1.785-22.143 4.286s-6.428 3.929-6.428 6.072c0 2.142.512 9.744.512 9.744s25.506 2.777 27.274 2.272c1.768-.505 19.193-6.818 19.193-6.818l15.657-5.556 19.95-10.102s12.123-4.798 15.153-5.808c3.03-1.01 15.405-5.556 16.415-6.06 1.01-.506 26.769-14.143 26.769-14.143l4.546-7.829v-7.07s-3.03-5.051-6.566-4.799c-3.536.253-13.385 7.576-13.385 7.576s-10.101 8.586-14.142 9.85c-4.04 1.262-19.445 5.555-19.445 5.555zM83.338 267.543c-6.061 4.546-9.597 8.081-12.627 12.122-3.03 4.04-7.576 7.071-11.112 11.112-3.536 4.04-12.122 7.07-12.122 7.07s-4.546 2.526-9.091 3.536c-4.546 1.01-11.617 1.515-11.617 1.515l-7.071 1.516s-6.566.505-4.546 6.06c2.02 5.556-1.01 7.072 3.03 9.092 4.041 2.02 10.607 8.586 10.607 8.586l5.051.505 10.102 1.01s8.08-1.01 10.606-1.515l2.526-.505s-.505-12.122 4.04-.505c4.546 11.617 6.061 16.163 6.061 16.163l2.02 9.596s.506 8.586.506 10.607c0 2.02-.506 10.101-.506 12.121 0 2.02 6.566 4.546 6.566 4.546l8.587.505h8.586s9.091-4.546 11.112-8.586c2.02-4.04 4.04-18.183 4.04-18.183l.505-14.647.505-15.657V311.99v-10.607-13.132c0-3.03-.505-15.657-.505-15.657l-3.03-9.092-7.071-1.01-15.657 3.536-2.02 6.06z"/><path d="M162.635 291.282l7.07-2.526 10.607-3.535 9.092-2.02h10.606l9.092 4.04s0-3.03 2.525.505c2.525 3.536 7.071 10.102 7.071 12.122 0 2.02 1.01 7.576.505 11.112-.505 3.535-5.05 16.162-5.05 16.162l-2.526 4.546s1.515 5.05-1.515 6.06c-3.03 1.01-2.02 1.516-5.556 1.516s-10.607-.505-12.627-.505c-2.02 0-1.01-6.566-3.03 0-2.02 6.566-1.516 3.535-1.516 3.535l1.01 5.556s0-.505 3.03 3.03c3.031 3.536 2.526 1.516 3.031 3.536.505 2.02 1.516 10.102 5.051 10.607 3.536.505 5.05 2.02 5.05 2.02l3.536 9.091 4.041 6.566s-.505 6.566 1.01 10.607c1.515 4.04 4.04 6.566 4.04 6.566l7.072 2.02 9.091-3.03 2.02-18.688-2.02-8.081s-.505 9.596.505-7.071c1.01-16.668 1.516-19.698 1.516-19.698l1.01-15.658 1.515-7.07v-10.102l1.515-11.617v-9.596l-3.535-11.617-7.071-5.05-8.587-7.577-4.04-4.546-3.536-1.515-7.071-2.525-8.586-2.02s-7.576-.506-10.102-.506c-2.525 0-20.203.505-22.728.505-2.526 0-5.051 1.516-10.102 1.516h-11.111c-1.516 0-6.061.505-10.102 1.515-4.04 1.01-15.152 2.525-15.152 2.525L95.459 270.7l-4.798 1.768-4.293 3.156L80 282.18s-1.786 2.142-2.679 3.392c-.892 1.25-8.214 6.25-8.928 7.322-.714 1.071-3.214 3.571-3.036 7.5.179 3.928 1.25 9.643 2.679 10.536 1.428.892 1.25 1.428 5.178 3.392 3.929 1.965 2.143 1.965 7.5 3.036 5.357 1.072 13.393 0 15.893-.357s25-11.25 25.893-11.607c.893-.357 8.036-2.5 10.714-3.214 2.679-.715 9.286-3.036 12.5-3.929 3.215-.893 16.92-6.968 16.92-6.968z"/><path d="M151.018 235.723s-8.081 6.314-9.344 8.334c-1.263 2.02-4.798 9.091-4.798 9.091l-3.03 15.91v11.112c0 4.798 1.262 9.344 1.262 9.344l6.06 30.052 2.274 5.808s1.01 8.334 1.262 9.85c.253 1.515 0 1.262-.757 5.808-.758 4.545-1.515 18.182-1.515 18.182s-2.02 7.577-2.02 10.354c0 2.778.252 10.86.252 13.385 0 2.525.505 7.829.505 9.849 0 2.02-.758 5.303-1.515 9.091-.758 3.788-.758 6.566-1.01 8.587-.253 2.02-1.01 3.535-1.01 7.323 0 3.788.252 4.546 2.02 6.314 1.767 1.768 2.02 2.02 3.03 1.768 1.01-.253-.505 1.262 2.778-1.01 3.283-2.273 1.768 5.303 4.546-3.789 2.778-9.091 2.272-16.92 2.272-17.677 0-.758 3.03-17.678 3.03-17.678l1.011-8.839s.253-10.101.253-12.122c0-2.02 1.515-12.88 1.515-14.142 0-1.263 1.01-12.88 1.01-14.395v-12.121l1.01-9.597V284.211l-.757-7.577V250.37l.505-2.525c.252-1.263 1.515-4.293 1.767-6.06.253-1.769.505-3.031.505-4.041 0-1.01 1.263-2.273-.252-2.778-1.515-.505-5.05-1.516-5.05-1.516s-3.284.506-5.81 2.273zM356.584 47.33l3.535 6.06s2.526 7.072 2.526 9.092c0 2.02 0 1.515-1.01 5.556-1.01 4.04-5.051 13.132-5.051 13.132l-3.03 12.122s-2.02 3.03-3.031 5.05c-1.01 2.02-7.576 8.587-7.576 8.587s-4.04 3.535-5.556 5.556c-1.515 2.02-5.556 6.566-5.556 6.566l1.01 2.525c1.01 2.525 3.536 2.525 3.536 2.525s3.03 0 5.05-.505 4.041-.505 4.041-.505 3.03-3.03 5.05-4.04c2.021-1.01 3.536-2.02 5.557-4.04 2.02-2.021 6.06-4.547 8.586-6.567 2.525-2.02 4.546-5.556 4.546-5.556l4.04-6.06c3.03-4.546 9.092-12.628 9.092-12.628s2.02-3.03 2.525-5.05c.505-2.02.505-1.516 1.515-5.051 1.01-3.536 1.01-5.05 1.01-5.05l-1.01-5.557s-1.01-.505-1.515-2.525c-.505-2.02-.505-3.03-.505-3.03"/><path d="M384.363 57.936l-8.081-9.09-3.03-2.526-2.273-1.01-2.526-2.526-3.788-.505s-2.778-1.01-3.788-1.01c-1.01 0-2.525 1.263-2.525 1.263l-1.768 4.798M393.707 231.178l7.324-9.85 4.293-5.808 4.293-3.535 4.04-5.809.758-2.02.505-6.819-8.081-3.283s-3.788-1.262-5.808-1.01c-2.02.253-8.84 5.556-9.597 6.566-.758 1.01-5.303 7.071-6.566 9.092-1.263 2.02-2.778 3.788-4.798 8.08-2.02 4.294-3.536 6.567-3.536 6.567s16.163-26.264-1.262-.253c-17.425 26.012-20.456 29.295-20.456 29.295l-4.798 4.293-7.829 5.808-3.788 2.778s-6.06 10.102-8.839 12.375c-2.778 2.272-5.808 4.798-8.081 5.808-2.273 1.01-4.546 2.525-6.566 2.525h-7.576H294.965s-4.799-.505-5.809-.505h-6.313s-5.304 1.01-6.819 2.02c-1.515 1.01-1.515 1.263-2.778 2.02-1.262.759-5.05 4.294-5.808 6.314-.758 2.02-2.525.758-2.02 4.799.505 4.04 4.293 9.343 4.293 9.343l3.283 3.283s1.01 1.516 2.273 2.02c1.262.506 1.01 1.01 4.293 1.01 3.283 0 7.828 1.264 11.616.759 3.789-.506 8.84-3.03 13.385-3.789 4.546-.757 11.112-3.535 11.112-3.535h6.818c2.02 0 12.122-2.02 12.122-2.02l10.607-5.556 7.07-4.546s3.284-.505 6.062-2.02c2.778-1.515 11.616-5.05 11.616-5.05l10.102-1.769s5.556-1.262 7.071-1.515c1.515-.252 9.344-1.515 10.607-1.768 1.262-.252 1.01 0 3.535-1.01 2.525-1.01 5.303-2.02 5.303-2.02l6.061-1.768 4.04-1.768 1.516-1.262 3.536-2.273 2.273-6.819s-.253-2.778-3.283-3.535c-3.03-.758-3.283-1.768-7.324-1.768-4.04 0-8.334 1.01-10.86 2.525-2.525 1.516-4.04 2.02-6.565 3.536-2.526 1.515-7.829 3.283-10.102 3.535-2.273.253-10.354 1.516-10.354 1.516s-3.788.252-7.576 1.262-10.354 2.02-10.354 2.02l-2.778.253s-1.263-2.778-.758-3.788c.506-1.01 2.02-4.798 2.02-4.798l2.021-4.04c.505-1.01 3.03-5.304 3.03-5.304l3.536-3.536 5.05-4.04 6.567-5.556 8.334-6.314z"/><path d="M406.586 253.906l-2.479 7.201 4.286 8.75 3.928 3.929s5.893 7.857 6.072 8.75c.178.893.893 2.143 1.964 5.178a182.628 182.628 0 0 0 2.679 7.143c.714 1.786 2.5 5.893 3.571 6.607 1.072.715 3.036 1.965 3.036 1.965s2.678 2.142 4.643 2.857c1.964.714.357.357 2.857 1.785 2.5 1.429 2.5 1.25 4.107 1.786 1.607.536 5.179 1.964 5.893 2.143.714.179 2.5.357 3.928.179 1.429-.179 2.858-2.322 2.858-2.322s.178-.536.357-2.321c.178-1.786.178-3.929.178-5.715 0-1.785-.178-4.821-1.25-5.892-1.071-1.072-2.678-3.572-3.393-6.965-.714-3.393-1.25-4.464-1.607-5.178-.357-.715-4.107-5.357-4.464-6.429-.357-1.071-1.25-2.321-2.679-4.107-1.428-1.786-4.285-5.893-4.285-5.893l-3.393-4.107-2.857-4.643-2.322-2.5-2.678-3.571-2.322-3.036M420.357 247.179l2.857 2.321z"/><path d="M404.107 261.107l-4.286-12.857.893 1.964 3.393 10.893s-1.25-4.821-1.428-6.071c-.179-1.25-.179-2.143-.179-2.857 0-.715 4.086 1.727 4.086 1.727s-4.622-2.799-5.872-3.692c-1.25-.893-1.607-2.857-1.607-2.857s-.178-2.857.893-5.893c1.071-3.035 2.321-1.607 3.393-2.143 1.071-.535 1.25 0 2.143 0 .893 0 3.75.715 3.75.715L412.5 242l2.857 1.429 5 3.75M342.143 313.071L345 324.857s1.071 13.214 1.429 14.643c.357 1.429 2.5 4.643 2.5 10.357v11.072c0 1.428.357 6.785.714 8.571.357 1.786.714 6.786.357 9.643-.357 2.857-.357 10.714-.357 13.571 0 2.857 2.143 9.286 2.143 9.286s-.715 2.5-1.072 7.857c-.357 5.357-.714 5.714-1.785 7.857-1.072 2.143 0 1.072-1.429 2.5L345.714 422l-5 3.214s-2.857 1.786-7.143 1.429c-4.285-.357-6.428-4.286-6.428-4.286"/><path d="M327.143 422.357l-8.214 1.072s-5 2.5-3.215 3.571c1.786 1.071 2.143 3.214 2.143 3.214s2.143-.357 3.572 3.572c1.428 3.928 5 7.5 5 7.5l9.285 8.214s.357.714 1.429 3.214c1.071 2.5 1.071 1.429 2.5 4.286 1.428 2.857 6.071 8.571 6.071 8.571l6.072 5.358h1.785s0 .357 2.143-1.429 3.929-5.357 3.929-5.357l2.143-8.214.357-7.5s.714-6.072 1.071-7.5c.357-1.429.357-3.572.357-7.143V423.07c0-1.428-1.428-4.285-1.428-4.285s-.357-.715-.714-3.929c-.358-3.214-.358-8.571-.358-10.357v-5s.358 2.857 1.429-5.714c1.071-8.572.357-11.786.357-11.786s-.357-2.5-.357-4.286v-12.143l2.143-11.428s.714-3.929.714-6.429V342s.714-3.929 0-5.714c-.714-1.786-1.428-5.715-1.428-5.715l-1.786-7.5-1.072-2.5s-.357-1.071-1.428-2.857c-1.072-1.785-3.214-5-3.214-5l-3.572-6.071-5.714-11.786-3.214-1.964h-2.679l-2.5 6.964 1.429 9.286 1.964 3.928M286.429 365.571s-.358 4.286-1.429 5.715c-1.071 1.428-4.286 6.428-5.714 7.5-1.429 1.071-5.357 6.071-5.715 7.857-.357 1.786-2.142 4.643-2.142 4.643s-1.429 5.357-2.5 7.143c-1.072 1.785-1.786 6.785-1.786 6.785l3.214 7.143s-1.428 3.214 2.143 3.214c3.571 0 4.286.715 6.071.715 1.786 0 5-1.429 6.786-1.786 1.786-.357 4.286-1.429 4.286-1.429s1.428 0 3.571-1.785c2.143-1.786 1.429.714 3.215-2.143 1.785-2.857 3.571-6.072 5.357-8.929 1.785-2.857 3.571-10 3.571-10v-5-6.785s-.714-2.858-1.071-5.358c-.357-2.5-1.429-5.714-1.429-5.714l-1.071-5-3.215-2.5h-3.214l-6.071 1.429zM412.857 363.429s3.214 12.5 3.929 15.357c.714 2.857 7.5 14.285 7.5 14.285s1.071 5.715 2.857 9.643c1.786 3.929 5 7.5 5 7.5l6.428 4.286 4.286.357h5.714l4.286-6.428 2.5-10.715s-.714-3.214-.714-5.357c0-2.143-1.429-16.786-1.429-16.786l-13.571-18.214-3.929-1.071-4.643-2.857-10.357-3.572-4.285-2.5-4.643-1.428s-3.929 2.5-3.572 5c.357 2.5 1.429 4.285 1.429 5.714 0 1.428 3.214 6.786 3.214 6.786zM375.714 154.857l-4.285 10-11.072 7.5-3.571 3.929-7.143 6.071-5.714 4.643-6.072 3.929-5.714 3.571-4.643 2.857s.714.714-2.857 2.857c-3.572 2.143-5.714 2.857-7.143 4.286-1.429 1.429-6.786 4.643-6.786 4.643l-8.571.357-3.929-2.5h-4.643l-2.142-1.429-7.143 4.643s-2.857 5.715-.715 7.5c2.143 1.786 3.572 5 3.572 5l.714 3.215 1.072 5.714 1.071 4.643s.714 3.571 2.5 3.571 5.357 1.429 7.5 1.429 2.857.714 10.357.714c7.5 0 14.286-3.929 14.286-3.929l4.286-.714h6.428l7.5 1.429L355 239.857l16.071 1.786L375 239.5l6.071-3.214 3.036-3.572s.714-3.393-1.071-3.571c-1.786-.179-19.107-3.036-19.107-3.036l-7.5-1.964-5.536-1.25-6.786-2.143-5-.714s-4.643.178-5.893 0c-1.25-.179-3.75-1.072-3.75-1.072l-.535-3.393L330 212s.714-1.25 2.679-1.964c1.964-.715 5-2.5 5-2.5l5.892-2.5L348.75 202s6.429-3.571 8.393-4.464c1.964-.893 8.571-5.536 8.571-5.536l5.357-3.75 6.608-2.5s3.392-3.036 5.178-5.893c1.786-2.857 3.036-7.678 3.036-7.678l.536-5-.536-7.679-1.786-2.321s-1.786-1.429-3.214-1.429c-1.429 0-5.179-.893-5.179-.893z"/></svg>