<svg xmlns="http://www.w3.org/2000/svg" width="512" height="512"><path d="M196.43 122.595c-6.19 2.738-16.667 7.5-23.691 10-7.024 2.5-10.595 2.738-14.286 2.976-3.691.239-7.5.477-10 1.667s-3.69 3.332-3.571 4.88c.119 1.55 1.547 2.501 3.213 3.692 1.667 1.19 3.572 2.619 5.678 5.063 2.106 2.445 4.56 6.127 6.585 7.913 2.024 1.785 4.167 1.785 6.07 2.38 1.905.595 3.81 1.787 5.715 2.382 1.905.595 3.81.595 5.375-.876 1.565-1.47 2.72-4.245 5.34-6.268 2.618-2.023 6.667-3.214 12.023-5.118 5.356-1.905 12.025-4.525 18.215-7.024 6.19-2.5 11.905-4.882 16.905-8.096 5-3.214 9.286-7.262 14.304-10.551 5.02-3.29 11.172-5.996 15.696-8.615 4.523-2.62 7.62-5.239 10.952-8.096 3.333-2.856 6.905-5.953 9.167-8.214 2.261-2.262 3.214-3.691 2.976-4.643-.237-.951-1.667-1.428-4.167-1.904-2.501-.476-6.071-.952-10.953-.476-4.881.476-11.07 1.904-15.237 3.57-4.167 1.667-6.31 3.572-11.55 6.192-5.24 2.62-13.569 5.951-19.879 8.57-6.31 2.62-10.595 4.524-13.69 5.834-3.096 1.31-5 2.024-11.19 4.762z"/><path d="M172.857 70.571L190 74.857l12.857 13.572L207.143 102l-2.857 32.857 4.285 23.572-2.142 19.285 1.428 12.857 5 7.143 7.857 1.429 8.572-9.286L231.429 172l5.714-18.571L235.714 137l2.857-23.571 2.858-17.858 1.428-15.714-2.143-5-10-3.571-20-8.572-14.285-1.428L185 62.714z"/><path d="M95.714 221.286l-38.571 7.857L37.857 232H23.571l-7.142.714-2.858 1.429v3.571L20 241.286 26.429 247l2.857 5.714 6.428 6.429L40 261.286l7.143 4.285h5.714l15-8.571 8.572-7.143 11.428-5.714 25-7.857L130 229.143l22.857-6.429L165 218.43l10.714-2.858 26.429-5.714 65-10.714 21.428-1.429 47.143-5h55l35.715 2.857 25.714 10 25 6.429s3.571-10.714.714-10.714-20-15.715-20-15.715l-25.714-10L415 172.714l-56.429 6.429-69.285 5.714z"/><path d="M170.714 229.143l7.5 11.071 11.429 9.643 2.143 10.714 5 17.858V289.5l.714 17.5-.357 13.214-1.072 14.643-.714 11.786-1.428 9.643-1.072 15.357-1.071 9.286L190 394.143l-2.5 5.357-5-3.214-4.643-1.072-5.714-3.571-2.857-1.072h-1.429L165 393.43l1.071 6.071 2.5 8.571 7.5 8.572L180 430.214 183.214 442l3.215 11.071 4.285 7.858 5 2.142 2.857-4.642 3.572-8.572 1.071-7.857.715-12.5-.358-13.929v-18.214l-.714-25-1.428-22.143L203.214 337 205 323.429l1.786-22.5.357-20.358.357-17.142v-12.5l-.357-9.286-3.572-7.143-5.714-5-8.571-6.071-6.786-2.858h-9.286l-2.857 4.643zM266.071 217L255 215.214l-8.571-2.857-5.358-.714-1.785 3.571-1.072 3.572s-.714 5.714.715 5.714c1.428 0 3.571 1.071 3.571 1.071l1.786 5.358 5 5 7.143 1.071 5 3.214s2.142 3.572 3.571 9.643c1.429 6.072 2.857 25.357 2.857 25.357s.357 1.786.357 6.072v12.143l.357 7.142v45.715L270 369.143l1.429 12.5V399.5l-.358 14.286-.714 16.785L275 434.5l1.071 2.857 3.215 6.786 3.928 5.357 3.215.357 3.928-1.071 3.929-3.572 1.428-8.571.357-10.357s-.714-3.215-.714-6.072-2.857-16.785-2.857-16.785l-.357-4.643-2.5-13.215-1.072-11.071-1.428-6.786-.357-10V333.43L285 318.786l1.429-13.929-1.072-16.786v-12.857l1.429-12.143 1.785-10.357 2.5-6.785L292.5 237l-1.071-2.5-3.929-6.071-4.286-4.643-9.643-3.929zM119.643 290.214l-6.786 2.857-5.714 22.143-6.429 16.429 3.215 8.571L107.143 352l2.143 5.357 4.643.714 5.714-1.071 6.428-3.214 3.572-3.572 3.214-5.357 4.286-11.428 1.786-6.072L141.07 317 140 308.429l-4.286-7.5-4.643-3.215-3.928-5zM340 260.929l8.571 12.5s6.786 6.071 7.858 8.214c1.071 2.143 6.071 11.786 6.071 11.786l7.5 7.5 8.929 10.714 9.285 14.643 5.715 7.857 5.357 8.571 2.5 2.5L405 347l4.286 1.786 5 .714 3.571-1.071 1.786-2.858v-5l.357-2.5V319.5l-1.786-6.071-5-8.215-2.857-5-5.357-8.928-2.143-1.786-3.571-3.929-8.929-4.285s-10-5-11.428-5c-1.429 0-12.143-4.286-12.143-4.286l-12.857-5.357z"/></svg>