<svg xmlns="http://www.w3.org/2000/svg" width="512" height="512"><path d="M236.376 58.442l4.04 13.131 6.061 8.082v6.06l-5.05 9.092-5.051 8.081-6.061 13.132s-1.01-3.03-6.061 5.051c-5.05 8.081-14.142 9.091-14.142 9.091L199 137.233l-13.132 4.041-4.04 7.071s5.05 4.04 9.09 4.04c4.041 0 6.062 1.01 12.123-1.01 6.06-2.02 12.121-6.06 12.121-6.06s5.051-4.041 9.092-7.071c4.04-3.03 4.04-3.03 8.081-5.051 4.04-2.02 11.112-7.071 11.112-7.071l8.081-4.04 9.091-6.062 5.051-4.04 5.05-3.03 6.062-7.072 2.02-16.162-5.05-9.092-12.122-7.07-4.041-7.072-5.05-4.04-7.072-1.01zM157.584 190.771l3.535 6.566 2.526 8.082 3.535 2.525 5.556 3.536 5.05 3.03 8.587 3.03 5.05.506 3.031-1.516 2.02-7.07-3.535-8.587-1.515-2.525-2.525-4.546-8.587-6.566-3.03-2.525-8.081-8.082-4.041-5.05-3.536-4.041-1.515-3.536-2.02 2.02-3.536 6.062s-1.515-.505-2.02 4.04c-.505 4.546-2.02 5.556-1.01 7.576 1.01 2.02 6.06 7.071 6.06 7.071zM209.607 155.921l4.04 5.556s.505 3.03 2.526 5.05c2.02 2.021 4.545 5.557 4.545 5.557s2.526 5.05 4.546 6.06c2.02 1.01 6.566 1.01 6.566 1.01s2.525.506 5.05.506h6.567l.505-7.071-3.536-5.051-3.03-4.546-2.02-2.525-5.051-1.515-4.546-3.03-3.03-1.01-5.556-2.274-3.788-.252zM378.807 141.274l-12.122 5.05s-5.05 2.021-9.596 4.041c-4.546 2.02-7.576 2.526-9.597 2.526-2.02 0-5.555.505-7.576 1.01-2.02.505 2.02-1.01-4.545 2.02-6.566 3.03-5.556 8.081-5.556 8.081s1.515 2.526 3.535 3.03c2.02.506 9.597 1.011 11.617 1.011 2.02 0 6.566-4.546 6.566-4.546l9.091-4.04 7.072-2.02 7.07-2.02s2.02 1.01 3.536 3.03c1.515 2.02 2.02 5.05 2.02 10.101 0 5.05 1.01 7.576 0 12.627-1.01 5.05-.505 2.02-1.01 6.061-.505 4.04-4.545 12.627-4.545 12.627l-.505 6.06v7.072c0 2.02-1.01 4.04-2.02 6.06-1.01 2.021-1.01 6.567-1.01 6.567l.504 4.545s1.01 1.516 3.03 0c2.02-1.515 5.051-9.09 5.051-9.09l2.526-11.618 4.545-12.627s2.526-3.535 3.536-6.566l2.525-7.576 2.02-7.07 2.526-8.082 2.02-2.525 1.01-7.071-2.525-5.556-3.535-4.04-2.526-2.526-7.07-2.02-4.041-2.02zM354.058 203.398l-9.09-2.02-7.072 2.02-4.04 2.02-6.567 2.021-5.05 2.525-.505 6.566s-.505 1.516 2.02 3.536 6.06 4.04 6.06 4.04l8.587 1.516 5.05-1.515 6.567-8.587 2.02-4.04 2.526-3.03zM314.157 265.523s16.668-5.051 19.698-5.556c3.03-.505 13.132-5.556 13.132-5.556l8.587-2.525h10.606l2.526 8.08s-1.01 2.526-3.536 4.042c-2.525 1.515-1.515 1.01-4.546 3.03-3.03 2.02-8.586 4.546-8.586 4.546l-5.05 1.515s-3.031 1.515-6.062 2.525c-3.03 1.01-5.555 2.02-5.555 2.02l-7.071 2.02s-4.546 1.011-8.082 2.526c-3.535 1.516-4.545 2.526-4.545 2.526l-4.04-.505s-1.516.505-2.526-1.516c-1.01-2.02-1.516 0-1.516-4.545 0-4.546 1.516-7.576 1.516-7.576l2.02-3.03zM411.132 243.3l-8.081 7.576-2.02 4.04s1.515 1.01-3.03 4.04c-4.547 3.031-4.547 4.041-6.567 5.052-2.02 1.01-3.535 2.525-3.535 2.525"/><path d="M387.899 266.533s-5.556 7.071-5.051 9.091c.505 2.02-1.515 1.516 2.525 3.03 4.04 1.516 3.536 1.516 5.556 1.516s6.061-2.525 8.586-3.03c2.526-.506 6.566-2.526 6.566-2.526s6.566-1.515 9.597-2.525c3.03-1.01 5.05-3.03 5.05-3.03l3.031-3.031 1.01-5.556-1.01-7.576-2.273-3.03-1.01-5.304-2.02-1.768-2.02-1.01-5.304 1.515M276.782 138.244s1.515 1.01 4.04 3.03c2.526 2.02 2.526 5.05 2.526 7.576s-.505 3.536-1.515 5.556c-1.01 2.02-6.061 8.081-6.061 8.081l-2.02 6.061s-1.516 1.01-3.031 4.04c-1.515 3.031-6.061 9.092-6.061 9.092l-5.556 6.566-2.02 4.546 2.525 1.515s3.03.505 5.051 0c2.02-.505 6.566-5.05 6.566-5.05l6.566-3.536s0-2.02 5.556-5.051l5.556-3.03 3.03-1.01s3.536 5.05 4.04 7.07c.506 2.02 1.516 6.061 2.021 8.587.505 2.525 1.515 7.576 1.515 12.122 0 4.545.505 15.152.505 15.152l1.01 15.657V247.845l3.536 6.314s-2.02 10.354-2.02 11.111V326.637l-.758 3.536s-.758 1.515-.758 4.04c0 2.526-.505 4.293-.757 6.314l-.758 6.06-1.515 5.304-1.263 1.768-1.01 1.262-2.273 2.273s-1.767 1.01-3.03 1.768c-1.263.757-1.01.252-2.02 1.515s-.758 0-1.01 1.515c-.253 1.516-.758 3.536-.758 3.536l1.515 2.02s.505.505.758 2.02c.252 1.516 1.515 5.051 1.515 5.051l.757 3.788 1.263 2.02 1.263 1.263 1.515 1.263"/><path d="M295.217 382.953l7.576-5.303 6.314-3.536s3.788-2.778 5.808-4.546c2.02-1.767 6.314-7.576 6.314-7.576l3.283-4.04s1.767-.758 4.04-2.273c2.273-1.515 7.071-6.061 7.071-6.061l5.303-5.808 4.041-3.536s1.263-2.273 2.778-2.778c1.515-.505 5.303-3.03 5.303-3.03s2.526-2.02 3.788-3.283c1.263-1.263 4.799-6.061 4.799-6.061l.252-3.788-2.778-1.01h-2.02l-1.768 2.272s-5.303 2.273-6.313 3.03c-1.01.758-.505 2.021-3.788 4.041a61.428 61.428 0 0 1-6.061 3.283l-4.546 3.03s-2.525 1.769-4.04 3.031c-1.516 1.263-6.567 3.788-8.587 4.546l-6.06 2.273s-2.274.252-3.284 0c-1.01-.253-3.283-2.778-3.535-3.788-.253-1.01-1.01-1.768-1.01-2.778s-.253-2.273-.506-4.546c-.252-2.273 1.01-9.849 1.263-11.111.253-1.263.758-7.324.758-7.324s1.01-7.829 1.01-9.849c0-2.02-.758-9.091-.758-9.091l.85-6.95.536-34.822.382-25.909v-15.91c0-1.262 1.01-12.879 1.01-14.647 0-1.768.505-9.849.758-11.364.252-1.515.505-7.576.505-8.586v-5.051l-2.02-3.536-.505-2.525-.506-3.535 1.263-5.304.505-2.525.758-9.092-3.283-6.566-2.526-3.283-5.808-3.283-3.03-2.777-7.071-3.03-3.536-1.011-6.819-.253-2.272 1.263s-.253.253-.758 1.515c-.505 1.263 0-2.525-.758 2.778l-.757 5.304M358.571 301.643l6.786 4.643 1.072 1.785 2.142 6.072s2.143 3.571 3.929 4.643c1.786 1.071 7.5 4.285 7.5 4.285v3.215s4.286 6.785 4.643 8.214c.357 1.429 4.286 9.286 4.286 9.286l3.928 5 2.857 6.785 4.286 5 3.929 5.358s1.785 1.428 3.928 1.785 2.5.357 2.5.357l4.643.358 1.786-10.715v-11.071s-2.5-5-4.643-8.572c-2.143-3.571-4.286-7.142-6.786-10.714-2.5-3.571-4.286-6.071-4.286-6.071l-6.785-5.357-6.072-4.286-3.214-2.857-5.357-3.572-6.786-3.214-3.571-.714c-1.786-.357-7.5-1.072-7.5-1.072zM208.596 231.683l-7.576 8.08-6.06 5.557-7.072 5.556s-1.01 1.01-4.04 2.525c-3.03 1.515-4.04 2.02-6.566 2.02s-6.061-1.515-6.061-1.515l-2.526 2.02-5.05 6.061 2.02 5.051v5.556l-2.02 3.535s-2.02.505-3.536 5.051c-1.515 4.546-.505 3.536-1.515 5.556l-3.03 6.06s2.02 2.526 4.04 2.021c2.02-.505 4.04-.505 6.061-2.02 2.02-1.515 5.556-4.546 5.556-4.546l5.05-4.04s-1.01.505 3.031-2.526c4.04-3.03 5.05-4.04 7.576-6.566 2.526-2.525 7.576-9.596 7.576-9.596l6.566-11.112s2.02-3.535 4.041-5.05c2.02-1.516 3.535-4.041 3.535-4.041l2.526-3.536 1.01-3.03 2.525-3.03v-3.031s-.505-.505-2.525-.505-3.536-.505-3.536-.505z"/><path d="M271.731 273.099l-3.03 11.112s-3.03 7.576-4.041 11.111c-1.01 3.536-3.03 7.576-3.536 9.597-.505 2.02-2.525 8.081-3.03 9.596-.505 1.515-2.02 7.071-2.02 7.071l-.758 6.819-.758 3.535s.253 2.273-.505 3.283c-.757 1.01-2.272 4.546-2.272 4.546l-1.01 2.525s-1.01 2.526-1.263 3.788c-.253 1.263-.758 3.536-.758 3.536s1.515 1.263 2.525.758c1.01-.505 3.283-1.768 3.283-1.768l1.768-.758s-.505.505 1.768-.252c2.273-.758 2.525-.505 4.04-3.03 1.516-2.526 3.031-8.587 3.031-8.587l2.273-7.324s1.01-6.313 2.273-8.839c1.262-2.525 3.535-7.828 4.04-8.838.505-1.01 2.273-8.334 2.273-8.334l5.051-10.102s1.768-7.576 2.273-8.586c.505-1.01 2.02-6.313 2.273-7.576.252-1.263 1.262-6.314 1.515-7.829.252-1.515.757-4.798.757-4.798l.253-3.283-2.525-4.546-1.516-2.778-4.04-3.03-4.293-1.768-6.819-2.02-4.546-.758-7.07-.505h-14.648l-4.546-.757-5.05-2.778-4.293-3.536-1.768.253-2.02 1.01s-1.01-.505-2.526 3.535c-1.515 4.041-1.768 3.788-2.02 5.051-.253 1.263-1.768 4.798-1.768 4.798s.253 0-.505 1.263-3.03 4.798-3.03 4.798-3.284 6.314-3.789 7.324c-.505 1.01-3.535 6.313-3.535 6.313l-4.798 6.314s-1.263 1.768-2.273 2.778c-1.01 1.01-3.536 4.293-4.293 5.303-.758 1.01-3.536 3.788-4.293 4.798-.758 1.01-4.041 5.051-5.556 7.071-1.516 2.02-3.283 4.546-5.809 6.566-2.525 2.02-5.303 3.788-7.828 5.556-2.526 1.768-4.041 2.525-5.809 4.293l-3.788 3.788-4.546 2.273-2.525 1.263s-.758 1.515-1.263 3.283c-.505 1.768-1.01 4.293-1.01 4.293l.505 3.283s1.263.505 3.03.758c1.769.252 3.284 0 4.294-.253 1.01-.252 4.04-4.798 5.303-6.06 1.263-1.264 9.85-8.335 9.85-8.335s1.514-2.02 2.777-3.535c1.263-1.515.758-2.02 4.04-5.05 3.284-3.031 6.314-6.567 6.314-6.567s1.515-1.263 4.293-3.788c2.778-2.525 6.819-7.324 6.819-7.324s2.273-2.777 4.293-5.05c2.02-2.273 3.283-4.799 5.303-7.071 2.02-2.273 4.293-5.051 4.293-5.051l2.526-3.283 5.05-6.566s.758-1.768 1.768-3.03c1.01-1.263 3.03-3.536 3.03-3.536l2.526-2.526 1.768-1.01 3.536-.757 2.525-.253 4.546 1.01s3.788 2.273 4.798 2.526c1.01.252 6.06.757 6.06.757h7.072c2.02 0 6.313-.505 6.313-.505l4.546 1.515s.505 1.516 1.01 2.526c.505 1.01.758 4.293.758 5.808 0 1.515-.758 5.304-.758 5.304z"/><path d="M239.659 272.089l-6.061 13.132s-.758 1.768-3.03 5.303c-2.274 3.536-4.799 6.819-6.062 9.091-1.262 2.273-5.303 8.84-6.06 10.354-.758 1.516-1.01 2.526-3.284 5.556-2.272 3.03-3.282 4.799-5.05 6.819-1.768 2.02-3.283 3.535-6.314 6.566-3.03 3.03-5.05 4.293-7.323 6.566-2.273 2.273-4.799 4.798-6.061 6.566-1.263 1.768-2.02 3.788-5.809 7.07-3.788 3.284-6.818 5.052-6.818 5.052l-4.546 3.03-3.788 1.01h-1.263l-2.02 3.536s0 2.02-.758 4.545c-.757 2.526-1.515 4.546-1.515 4.546l.758 1.515.505 4.546s-.253.505.252 1.768c.506 1.263 7.072-.253 7.072-.253s2.272-1.262 3.535-2.273c1.263-1.01 4.293-3.535 4.293-3.535H186.878l4.293 1.01s3.03 3.03 3.536 5.808c.505 2.778.758 6.061 1.515 8.082.758 2.02 1.263 3.535 1.768 5.303.505 1.768 2.525 3.283 2.525 3.283s.505 1.515.758 4.293c.252 2.778-1.01 5.303-1.515 6.314-.505 1.01-.758 1.767.252 3.788 1.01 2.02.758 1.767 1.768 2.525s3.283 1.263 4.546 2.02c1.262.758-1.768 0 2.02.758 3.788.758 2.525 1.263 5.05.758 2.526-.505 3.284-.758 5.051-1.768l3.536-2.02 3.283-3.283 2.02-2.02c1.01-1.01 2.02-1.769 2.02-1.769s-2.02-.505 1.263 0c3.283.506 4.546.758 6.061.506 1.515-.253 3.283.757 3.283.757l1.515-.757.758-.758-1.01-1.768-2.525-2.273s-1.768-1.262-2.778-1.262-2.778-1.01-2.778-1.01l-.758-3.789s-.758-2.02-1.515-3.535c-.758-1.515-2.02-5.809-2.02-5.809l-1.01-2.272-1.263-4.041s-.505-1.01-2.273-1.515l-8.839-2.526s.758-.757-3.283-1.262c-4.04-.505-8.586-1.768-10.607-2.526-2.02-.757-3.283-1.262-4.293-1.515-1.01-.252-3.788-1.263-3.788-1.263l-2.525-2.272v-4.546c0-1.263-.253-2.526 1.01-3.788l3.03-3.03 2.02-5.556s1.01-3.536 3.284-5.556c2.273-2.02 4.293-5.051 4.293-5.051s-.253.252 1.263-2.02c1.515-2.273 4.545-5.809 4.545-5.809s2.526-1.768 3.536-3.03c1.01-1.263 4.798-7.576 4.798-7.576l4.546-6.566 2.02-3.283s1.515-1.768 2.525-3.536 3.03-5.05 3.03-5.05l3.536-4.041 1.516-2.526s.757-.757 1.767-1.515c1.01-.757.758-.252 2.526-2.273 1.768-2.02 3.03-4.545 3.03-4.545s1.263-3.283 2.273-4.546c1.01-1.263 2.525-4.04 2.525-4.04s1.01-4.294 0-4.546c-1.01-.253-2.272-1.263-2.272-1.263l-2.02-1.01zM66.165 145.82s-3.03 1.515-7.576 2.02c-4.546.505-12.122 4.04-12.122 4.04l-6.566-5.555-5.05-4.546s-2.021 0-4.041-2.525l-4.041-5.051s.505-3.03 2.525-3.536c2.02-.505 8.587-1.01 8.587-1.01s1.515-1.515 3.535-1.515c2.02 0 6.566-2.525 6.566-2.525s1.515-1.516 4.04-2.526c2.526-1.01 6.062-4.04 6.062-4.04s1.515-.505 4.04-1.01c2.526-.506 2.526-2.02 5.556-.506 3.03 1.516.505 1.01 5.051 1.516l4.546.505 6.06 3.03s4.546 1.515 6.567 2.02M89.904 124.607l4.293 3.535 2.02 3.536-.253 3.283s-2.777 1.262-3.788 1.515c-1.01.252-2.525.252-3.535.252-1.01 0-4.293.758-4.293.758s-1.263 2.525-1.515 3.788c-.253 1.263-.506.505-1.263 2.778-.758 2.273-2.273 6.313-2.273 6.313s-.758 2.273-1.263 3.536c-.505 1.263-1.767 4.293-1.767 4.293s-1.263 3.03-2.02 4.546c-.758 1.515-3.536 6.06-3.536 6.06l-.758 3.789s-1.263 3.03-2.02 6.566c-.758 3.535-1.768 7.323-1.768 7.323s-.505 3.788-1.263 5.304c-.757 1.515-1.01 2.525-1.767 4.04-.758 1.515-1.263 3.536-1.516 4.798-.252 1.263-1.262 2.526-1.767 4.041-.506 1.515-.758 1.768-1.263 3.536-.505 1.767-.505.757-.758 3.283-.252 2.525-1.768 5.05-.505 5.303 1.263.252 3.03.758 4.293.252 1.263-.505 4.293-2.272 4.293-2.272s1.263-1.01 2.778-2.02c1.516-1.01 1.768-.758 3.536-2.526 1.768-1.768 7.071-4.798 7.071-4.798l2.273-1.263s2.273-.505 3.283-.253c1.01.253 1.263.506 5.556 1.768 4.293 1.263 6.06 1.01 7.07 1.515 1.01.506 3.031.758 3.284 2.02.252 1.263 1.767 4.799 1.767 5.557 0 .757-.757 3.788-.757 3.788s-1.01 2.02-1.768 3.03c-.758 1.01-1.263 2.02-2.02 3.536-.758 1.515-5.842 7.597-5.842 7.597S90.714 239.5 90 241.286c-.714 1.785-3.929 10.357-6.071 13.571-2.143 3.214-2.5 4.286-3.215 5.714-.714 1.429.357-3.571-1.785 5l-2.143 8.572-.357 8.571-.358 8.572 3.572 9.643s.714 2.5 2.143 5c1.428 2.5 1.785 3.571 2.857 6.071 1.071 2.5 3.928 8.214 3.928 8.214s2.5 2.5 3.572 4.286c1.071 1.786 5.357 5.714 5.357 5.714s2.143 1.786 3.214 3.215c1.072 1.428 3.215 7.857 3.215 7.857s2.857 4.643 3.214 7.143c.357 2.5.714 6.071 1.071 8.928.357 2.857.357 8.929.357 8.929s.358 2.5-.357 5.357l-1.785 7.143s-1.072 2.143-1.429 3.928c-.357 1.786-1.071 3.929-1.071 3.929s0 2.5-1.786 4.286c-1.786 1.785-6.429 5-6.429 5l-5.357-2.858.357-8.571 1.072-3.214 2.857-6.072s.714-1.428 1.428-3.571c.715-2.143 1.072-7.143 1.072-7.143l.714-2.857-.714-8.572s-.357-2.857-.357-4.642c0-1.786-1.429-7.858-1.429-7.858L87.5 330.214l-5.714-4.285s-2.143-2.5-3.215-4.643c-1.071-2.143-3.214-6.072-3.214-6.072s-1.428-3.928-2.857-6.428c-1.429-2.5-3.214-11.786-3.214-11.786V273.786s-.715-2.143 0-4.643l2.143-7.5s.357-1.429.357-2.857v-3.929l.714-5s2.857-2.857.357-3.571c-2.5-.715-3.928-.715-3.928-.715s-.715-1.428-1.786 1.429c-1.072 2.857-1.786 3.214-2.857 4.643-1.072 1.428-.715.714-1.786 2.143-1.071 1.428-4.643 4.643-4.643 4.643s-1.428 1.428-2.143 3.214c-.714 1.786-2.143 6.071-2.143 6.071s0 1.429-1.428 4.286c-1.429 2.857-6.072 9.286-6.072 9.286l-1.428 2.5s-1.072 1.785-3.572 4.285-2.5 2.858-2.5 2.858H28.214L25 285.57l-4.286-4.285s-1.785-2.857-1.785-5.715c0-2.857-.358-8.214-.358-8.214s-.357 1.072.358-2.857c.714-3.929-1.429-2.5 1.428-8.571l2.857-6.072s.715-2.5 3.929-3.928c3.214-1.429 6.071-6.786 6.071-6.786S35 237 37.143 235.214c2.143-1.785 5-5.357 5-5.357L45 227.714s1.429-2.5 4.643-8.571c3.214-6.072 4.643-14.643 4.643-14.643l3.928-12.143S61.43 177 62.143 175.214c.714-1.785 2.857-6.428 3.214-7.857l2.143-8.571.357-4.286-1.692-8.68"/><path d="M62.63 408.46s7.576 2.525 12.121 1.515c4.546-1.01 9.092-1.516 12.122-1.516H118.188l12.627 4.041s-2.526 0 9.596 2.525c12.122 2.526 17.173 3.03 17.173 3.03s17.677 17.173 23.233 19.194c5.556 2.02 15.658 3.535 19.698 4.545 4.04 1.01 25.254 7.071 33.84 7.071 8.587 0 7.577.506 16.163 0 8.586-.505 20.708-.505 20.708-.505s24.749 2.526 27.78 3.536c3.03 1.01 10.1 2.525 14.141 2.525 4.04 0 9.597 1.516 15.153 1.516 5.555 0 23.738 4.04 23.738 4.04s7.576.505 13.637 2.02c6.061 1.516 21.719 6.566 21.719 6.566s9.09 1.516 12.626 1.516c3.536 0 13.637-4.546 13.637-4.546l6.566-5.556s5.556-4.04 7.577-5.05c2.02-1.01 3.03-2.02 7.07-3.536 4.041-1.515 6.062-3.536 12.123-5.556 6.06-2.02 5.05-.505 12.626-4.04 7.577-3.536 15.153-4.041 19.193-6.567 4.04-2.525 4.546-3.03 7.071-4.04 2.526-1.01 12.122-4.546 12.122-4.546l7.071-3.03 3.03-5.556-2.02-4.04-8.08-2.021s-10.607 1.01-13.133 2.525c-2.525 1.516-24.243 3.536-24.243 3.536s-13.132 1.515-18.688 2.02c-5.556.505-21.719.505-24.244 1.01-2.525.505-17.678 2.02-21.718 3.03-4.04 1.01-23.739 2.526-31.82 2.526h-34.345s-19.193-.505-24.244-1.01c-5.05-.505-11.617-1.01-23.738-1.515-12.122-.505-10.607-.505-19.698-.505-9.092 0-26.77-1.516-26.77-1.516l-59.093-11.616s-11.112-5.556-17.678-8.082c-6.566-2.525-16.162-5.555-22.223-7.07-6.061-1.516-21.214-5.051-21.214-5.051L81.822 378.66l-14.142-5.05H55.558l-3.03 2.524-3.536 6.061s-1.01.505-1.515 6.061c-.505 5.556-2.02 7.576-.505 10.607 1.515 3.03 8.081 9.596 10.607 10.607 2.525 1.01 5.05-1.01 5.05-1.01z"/></svg>