<svg xmlns="http://www.w3.org/2000/svg" width="512" height="512"><path d="M96.429 116.286L80 109.857l-21.429-4.286H47.143c-4.286 0-10.714-.714-10.714-.714l-4.286 2.857-2.857 6.429s1.428 5.714 5 7.143c3.571 1.428 7.143 9.285 7.143 9.285l7.142 2.858L55 146.286h11.429l3.571-5s7.857-2.857 10.714-3.572c2.857-.714 8.572-3.571 8.572-3.571l5-3.572 4.285-2.857-2.142-8.571zM78.571 236.286l11.429-10 2.857-5 3.572-17.143-12.143-6.429-13.572-2.143-14.285-2.142-9.286 5.714s-4.286 4.286-9.286 7.143-17.143 9.285-17.143 9.285l-3.571 3.572L10 229.857l-2.143 4.286s-5 2.857-5 6.428c0 3.572 1.429 10 1.429 10s2.143 5 7.143 5.715c5 .714 11.428 1.428 14.285 1.428 2.857 0 10 .715 10 .715l11.429-2.143L55 247.714l3.571-1.428-2.857 7.857L54.286 267l-.715 7.857 3.572 11.429h8.571s1.429 0 4.286 1.428c2.857 1.429 8.571 6.429 8.571 6.429l5.715 6.428 3.571 7.858 3.572 10 .714 10s-.714 5-2.857 7.857c-2.143 2.857-3.572 5.714-8.572 7.143-5 1.428-12.857 3.571-12.857 3.571l-7.143-.714H45l-7.857.714L35 353.429s7.857 2.142 12.143 2.857c4.286.714 10 .714 13.571.714h20l15 6.429 15 .714 17.857 5s15 5 18.572 5.714c3.571.714 27.857 5 27.857 5s17.857 8.572 24.286 10c6.428 1.429 31.428 8.572 38.571 10 7.143 1.429 35.714 10.714 41.429 12.857C285 414.857 290.714 417 295.714 417S315 419.143 315 419.143l10 3.571 17.857.715 17.857 1.428 11.429 4.286L385 432.714l16.429 3.572s5 2.143 8.571 2.143h4.286l1.428-10 4.286-3.572 7.857-1.428 15.714-2.858 25-8.571 6.429-2.857L489.286 402l7.143-5 4.285-4.286.715-5-6.429-5-10.714-1.428-10 2.143-20 2.142-20 5.715-18.572 2.143-35 2.857s15.715.714-13.571 3.571-45 2.857-45 2.857l-18.572-2.143-25.714-.714-25-5L231.43 392l-30.715-9.286L160 369.857l-18.571-5.714-6.429-6.429-5.714-16.428-17.857-11.429-4.286-9.286L105 309.143l-4.286-13.572L99.286 292l-5.715-6.429-9.285-15.714-7.857-11.428-.715-17.143zM277.857 88.429l-21.428 6.428L240 99.143l-17.143 6.428-10 2.858v5s6.429 2.142 9.286 2.857c2.857.714 10.714 7.857 10.714 7.857s4.286 1.428 7.857 1.428c3.572 0 3.572 4.286 3.572 4.286l7.143-3.571 9.285-5.715 8.572-4.285c4.285-2.143 23.571-13.572 23.571-13.572s1.429 1.429 5-.714c3.572-2.143 11.429-5.714 11.429-5.714l10-2.857s7.857 0 10.714-.715c2.857-.714 8.571-5 8.571-5l.715-2.857L335 80.571l-15.714-7.857s-6.429 1.429-9.286 2.857c-2.857 1.429-7.857 3.572-10.714 5-2.857 1.429-4.286 2.858-10 4.286-5.715 1.429-11.429 3.572-11.429 3.572z"/><path d="M277.857 77.357s1.072-7.143 1.072-8.928V58.07l-6.072-5-6.428-3.214-4.286-6.071-4.643-3.572-3.929-4.643-1.785-6.428v-4.286l-.357-2.143s.714-2.143 2.5-2.857c1.785-.714 8.928-4.643 8.928-4.643s6.072.357 7.143.357c1.071 0 3.571.715 5 1.072l5.714 1.428s4.286.715 5.715 2.5c1.428 1.786 7.5 8.215 7.5 8.215s.357.714 4.285 4.285c3.929 3.572 9.643 8.929 9.643 8.929s1.429 4.286 2.143 8.929c.714 4.642.714 9.642.714 9.642l-6.071 6.072s-5.357 20-5.357 21.071c0 1.072-1.786 26.429-1.786 26.429s-.357 7.5-.357 9.643c0 2.143-1.429 7.5-1.429 9.285 0 1.786 0 4.286-1.428 7.143-1.429 2.857-2.857 7.143-2.857 7.143s.357.714-2.143 1.786c-2.5 1.071-3.215 1.071-3.215 1.071l-5.714-6.071-1.071-7.857 1.071-10.357 1.072-11.786-2.858-14.286z"/><path d="M373.251 121.071l-19.698 5.05s-12.627 5.051-16.667 5.557c-4.04.505-20.203 3.03-20.203 3.03l-6.566.505-22.729 4.04-20.455 8.082-10.607 2.778-17.425 4.798-8.839 2.273s-10.101 3.03-13.384 4.04c-3.283 1.01-13.637 3.536-14.647 3.789-1.01.252-8.334 2.272-8.334 2.272l-7.071 1.516-11.87 3.283s-6.06 1.262-8.08 1.515c-2.021.252-9.092 1.515-9.092 1.515l-4.546.758-4.293 1.01-4.04 1.263-2.779 2.272 1.516 4.041s.757.505 2.525.758c1.768.252 5.05 1.515 6.061 2.272 1.01.758 3.03 2.02 3.03 2.02l4.041 3.031s2.273.505 3.283.758c1.01.252 7.324.757 8.586 1.01 1.263.253 11.617-.253 12.88-.505 1.262-.253 4.293-4.798 6.06-5.303 1.768-.505 14.648-6.061 14.648-6.061l6.313-4.04 10.354-4.547 11.365-4.545 15.404-2.526 11.112-3.03 11.112-3.788 10.859-3.03 13.384-3.536 11.112-2.273 9.092-1.768s12.121-3.535 13.384-3.788c1.263-.252 14.142-2.273 14.142-2.273l15.152-1.01 10.86-2.02 12.121-1.515 9.092.757 5.808 1.263s5.051 1.515 6.061 2.02c1.01.505 6.314 3.03 6.314 3.03h5.303l7.07-2.02 2.779-2.272-1.263-5.304-1.263-2.778-6.313-4.293-11.112-1.515-7.576-2.273-8.839-2.02-5.303-.758z"/><path d="M273.246 211.985l4.546-7.576 2.525-9.092 2.526-5.556 1.01-5.555-2.526-6.566-4.545-1.516-4.04-4.04-5.052-2.526h-5.555s-5.556 2.02-5.051 5.051c.505 3.03 3.03 6.566 3.03 6.566l-2.525 9.091s-2.525 2.02-3.536 7.577c-1.01 5.555-1.515 6.566-2.02 8.586-.505 2.02-4.04 11.617-4.04 11.617l-2.526 3.535-5.556 3.03-12.122.506-7.576 1.515h-4.04l-6.061-1.515-4.546-2.02h-4.546s-6.566 5.555-2.525 7.576c4.04 2.02 6.566 11.111 6.566 11.111s-5.556 1.515 3.535 3.536c9.092 2.02 12.122 1.01 14.648 1.01 2.525 0 15.152-2.526 15.152-2.526l9.091-4.04 7.577-5.05 14.647-5.052 15.657-6.06 3.536-5.051 8.08-3.03 5.557-.506s-4.04 11.617-5.556 13.637c-1.515 2.02-5.556 7.071-7.071 9.092-1.515 2.02-2.526 4.545-6.061 8.586-3.536 4.04-5.556 7.07-6.566 9.091-1.01 2.02-5.556 8.587-7.576 10.607-2.02 2.02-6.061 6.566-6.061 6.566l-7.071 8.586-7.576 9.597-6.061 7.576s-2.02 3.535-4.546 5.556c-2.525 2.02-5.556 5.05-5.556 5.05L227.284 313l-2.525-1.515-1.515-4.04h-3.536l-4.04 1.01-4.041 8.586s-.505 4.04-1.01 6.06c-.505 2.02-5.051 15.153-5.051 15.153l-.505 5.05s4.546.506 6.566.506c2.02 0 7.576-3.536 7.576-3.536s1.01-1.515 6.061-5.556c5.05-4.04 8.081-6.06 8.081-6.06l12.122-15.153 11.617-13.637 15.152-19.193 9.091-13.132 16.163-26.769 14.647-21.213 7.576-11.112 3.536-11.617 4.546-2.02 7.07-4.04 8.587-3.536 5.05-2.02-1.515-5.051-5.05-4.546-6.566-3.535-6.061-2.526-6.566-3.03s-1.01 0-1.515 3.535c-.506 3.536.505 6.061-1.01 10.607-1.516 4.546-2.526 9.596-2.526 9.596l-6.06 7.577s-2.021 2.525-6.567 4.545a736.368 736.368 0 0 1-8.081 3.536s-11.617 2.02-13.637 3.03c-2.02 1.01-10.102 3.03-10.102 3.03zM368.706 211.985l3.535 9.091-1.515 6.566s-.505 4.04-3.536 9.091c-3.03 5.051-3.535 6.566-5.555 9.092-2.02 2.525-7.577 10.101-7.577 10.101h-9.596l-2.02 4.04s-1.516 3.536-1.516 5.557c0 2.02 1.01 8.586 1.01 8.586h6.062c2.02 0 6.566-3.03 6.566-3.03l5.05-5.556 7.071-6.061 5.556-5.05 5.051-5.557 5.05-2.525 3.536-.505 2.526-.505 3.03-4.546v-9.091l-6.566-6.061-2.525-4.04-7.071-5.052-4.04-2.525zM341.964 278.429l-9.464-.536s-7.321-.714-8.036-.714c-.714 0-7.678-.893-7.678-.893l-2.5-1.429s.535-2.857-.357-4.464c-.893-1.607-2.858-4.643-2.858-4.643l-1.964-2.679-4.286-1.607-3.75-.893s-4.464-.714-4.464 0c0 .715-.714 2.679-.536 4.286.179 1.607 1.072 9.464 1.072 9.464l1.428 2.858 1.444 8.294v6.061c0 1.263-.757 6.061-.757 7.324s-1.263 6.818-1.263 8.586c0 1.768-.505 8.586-.505 8.586s.252 6.314.252 7.577c0 1.262-.757 8.586-.757 9.849 0 1.262-.758 10.606-.758 10.606l-.505 7.071-.757 4.293-1.516 7.324v3.536s1.01 2.777 1.516 4.545c.505 1.768 1.767 6.314 1.767 6.314s1.768 3.535 3.03 5.303c1.263 1.768 5.557 6.06 5.557 6.06l5.05 3.284 6.061 1.01 3.536-3.283v-10.102l-.758-8.838-1.01-12.375s-1.515-12.374-1.515-14.394c0-2.02-2.02-14.9-2.02-16.163s-1.516-18.183-1.516-18.183l-.757-6.818c-.253-2.273-1.01-10.607-1.01-10.607v-2.778l.757-4.798 2.526-2.02 3.535.505s1.768 2.273 2.525 3.535c.758 1.263.758 2.526 2.273 5.556 1.516 3.03 2.273 3.283 3.788 4.04 1.516.759 5.304 4.294 5.304 4.294s4.04 2.02 6.313 2.273c2.273.252 9.091.505 10.102.505h5.555c1.263 0 4.799 0 7.83 2.273 3.03 2.273 6.313 5.808 7.323 6.566 1.01.757 5.303 4.04 6.313 4.798 1.01.758 8.334 6.313 8.334 6.313s.758 1.01 3.03 3.03c2.273 2.021 4.799 4.294 6.566 5.81 1.768 1.515 2.526 3.282 6.314 4.798 3.788 1.515 6.313 2.777 6.313 2.777l8.082 1.768 3.03-1.768s1.01-3.03 1.515-4.798c.505-1.768.758-3.535.758-5.556 0-2.02-1.515-6.566-3.283-9.344-1.768-2.777-3.788-5.808-3.788-5.808l-5.809-6.818-9.344-6.061-6.566-7.829-9.09-4.546s-5.052-1.262-8.335-2.273c-3.283-1.01-10.606-3.03-10.606-3.03l-4.546-1.768s-2.02-.757-4.798-1.01c-2.778-.252-7.324-1.01-7.324-1.01z"/></svg>