<svg xmlns="http://www.w3.org/2000/svg" width="512" height="512"><path d="M96.975 219.056l-6.061-34.345-5.051-18.183-6.06-19.193-4.042-22.223-2.02-8.082-4.04-8.08-8.082-8.082-10.101-1.01-2.02-1.01-4.546-1.01-3.536-.506-1.515 4.546 1.515 2.525 7.071 5.556 2.02 10.607 6.567 13.132 1.01 10.606 5.05 14.143 2.02 12.627 2.526 8.586 1.01 8.586 2.02 16.668 4.546 12.627 2.02 8.586-9.596 3.03-10.606 3.536-2.02 4.04s3.535 2.02 5.555 2.02c2.02 0 11.617 5.557 11.617 5.557h22.728l5.051-3.536 1.01-6.566-3.535-8.586zM230.82 61.977l-24.244 6.566-16.162 2.02s-13.637 1.516-16.163 2.526c-2.525 1.01-15.152 3.03-15.152 3.03l-16.162 2.526-24.244 2.525-4.546.505-12.122 1.515-4.04-.505h-5.051v9.597l4.04 7.07 4.041 5.557 10.607 5.555s4.04-2.02 6.06-2.525c2.021-.505 13.638-7.071 13.638-7.071l6.06-2.02 15.658-3.536 11.112-4.04 13.637-2.526 10.101-2.02 10.607-4.04 9.596-3.031s2.526-.505 5.556-1.01c3.03-.506 6.566-.506 6.566-.506l3.03 4.041 2.021 5.05v7.072s-4.04 9.596-5.556 12.627c-1.515 3.03-5.05 10.606-5.05 10.606l-3.031 7.577-2.02 11.616s-3.03 9.092-4.546 12.627c-1.515 3.536-5.05 10.607-5.05 10.607l-4.546 13.637-4.546 12.627-3.536 9.596-3.535 7.576-.505 7.577-1.01 6.566 1.515 6.06 3.535 4.041 7.071-2.525L199 220.57l7.071-16.162 4.04-15.153 4.041-14.647 3.03-8.586 6.062-12.627 1.01-6.061 4.04-10.102 4.041-12.626 4.546-7.577 4.545-7.07 7.072-8.587 2.02-4.546 2.525-4.545 1.515-5.051.506-3.536-1.516-7.576-2.525-3.535-3.03-4.546-6.061-2.02-3.536-1.01z"/><path d="M169.706 133.698l-16.163 5.05-12.122 2.526-12.121 3.03-12.627 4.546-9.597 5.05-9.091 4.042-2.02 5.05s0 2.02 2.02 2.02 10.101 1.01 10.101 1.01l8.082 1.516 6.566.505 11.111-2.525s8.587-2.02 10.607-3.03c2.02-1.01 16.667-7.072 16.667-7.072l11.617-3.535 9.597-4.546 3.03-2.525-.505-4.041-4.546-2.525-6.566-2.526zM127.784 216.278l-11.869 3.535-9.849 1.263-4.546 1.01-17.425 6.314-12.374 3.283 8.081 6.818 12.627-1.01 18.435-4.293 8.84-2.02 7.575-1.516 26.517-6.313 5.556-2.273h9.09l5.052-.505h15.405l4.798-4.293-.758-5.809-18.435-2.02-13.385.758z"/><path d="M141.421 89.251l-6.818 3.536-3.532 1.534-3.928 4.286 2.678 10.357 3.036 8.215 1.964 7.5s0 6.785-.178 7.857c-.179 1.071-1.429 16.964-1.429 16.964l-1.071 6.964v28.75l.357 14.107-.17 3.067-.253 6.566.506 27.78v29.799l.505 9.091-.505 24.244v24.749l-.253 9.596-.253 7.576.253 6.314.253 3.03 1.01 3.283 1.767 2.526 2.526 1.01 2.02.252s1.263 0 2.273-1.01c1.01-1.01 5.556-8.586 5.556-8.586v-4.546l2.02-13.384.505-11.365-.252-16.667.505-7.576.505-19.446-1.01-14.9-.505-20.455.505-7.576 1.01-31.062-1.01-10.86 1.01-20.708 1.262-19.95 2.273-33.588 1.768-9.091v-5.556l-10.859-9.344z"/><path d="M194.286 280.214l-28.215-4.285-22.142 2.142-29.286 6.072L97.5 288.07l-21.786 2.5-10.357 2.858L55 297.357l-5 3.214 2.5 3.929 6.429 2.857s3.571 2.143 5.357 2.143c1.785 0 5 1.786 7.5 1.786h6.071l9.286-1.429 10.357-4.286 11.786-2.857 10-1.785 21.071-4.286 17.143-4.286 5.357-.357 12.143-.357h9.643l4.643-1.429 4.285-5zM196.071 338.786l-30.357 6.071-7.5.714-18.571 3.572-27.143 4.286s-8.571 0-13.929 1.428c-5.357 1.429-15.714 2.857-15.714 2.857L71.786 359.5l-12.857 3.214-16.072 2.857-11.071 1.786-10 .357-7.857 2.5s-.715-.357-2.5 0c-1.786.357-3.929 1.429-3.929 1.429l-1.429 8.928S12.5 382 13.93 382.357c1.428.357 11.071 5.357 11.071 5.357l6.429 5.715 6.785 1.071 10.357-1.786 9.286-6.428 9.643-7.5s6.429-2.143 11.071-2.857c4.643-.715 5-2.858 5-2.858l10-2.5 8.572-2.5 9.643-.714 12.857-1.071 3.141-2.273 14.142-1.768s5.177-1.768 6.314-1.768c1.136 0 7.45-.126 7.955-.126.505 0 9.47 1.389 10.228 1.389.757 0 9.091-1.39 9.091-1.39h5.556l7.323-1.136h9.344l7.577.253 12.374 2.525s12.88 2.02 13.89 2.02c1.01 0 8.08.758 8.08.758l5.304-.252s1.263-1.263 2.02-3.283c.758-2.02 1.263-6.566 1.263-6.566l-4.798-4.546-6.061-4.293L224 343.052s-9.344-3.03-11.111-3.283c-1.768-.253-2.02-1.01-8.587-1.263-6.566-.252-8.232.28-8.232.28zM395.98 49.855l-24.749 6.566-16.667 5.051s-11.112 2.525-15.658 3.535c-4.546 1.01-18.183 2.526-18.183 2.526l-9.596 2.02h-8.081l-7.071-2.02-4.04-4.546-4.042 2.526s-4.04 5.05-4.545 7.576c-.505 2.525 0 9.596 0 9.596l9.091 5.05 8.081 6.062 3.536 6.566 4.04 2.525s7.577 1.515 10.607 1.515c3.03 0 4.04-1.01 4.04-1.01l6.062-4.04 5.05-7.576 4.041-4.041 7.576-3.03 6.566-6.567 14.142-5.05 7.071-2.526 8.587-3.535 10.101-3.03 2.526.504 4.04 2.02-2.02 7.577s-2.526 4.04-2.526 6.06c0 2.021-3.03 9.597-4.545 13.638-1.515 4.04-2.02 4.546-3.03 6.566l-4.041 8.081-4.04 8.081-2.526 5.051-6.061 10.102-1.01 4.04-5.051 6.061-2.02 3.03-2.526 4.041 1.515 8.081 8.587-2.02 4.04-9.596 4.546-6.566 4.04-9.092 7.577-12.122 6.566-10.606 3.535-6.566 7.576-9.092 8.082-7.576 4.04-6.06 6.061-6.062 11.617-3.535 1.01-8.586-5.556-11.112-4.04-7.071-5.051-2.525-3.03-3.03-2.526-.506-4.546-.505-4.545-.505h-6.566l-6.566 5.05-1.01 3.536z"/><path d="M317.693 143.8s6.566 9.09 8.586 9.09c2.02 0 9.597 5.052 9.597 5.052l8.586 6.566s6.566 5.555 9.091 6.566c2.526 1.01 13.637 3.535 13.637 3.535l6.566-.505 1.516-10.102-9.736-15.395-10-4.107-5.893-2.679-5.714-.714-8.393-1.786-7.857.893s-4.108.715-5.179 1.25c-1.071.536-4.807 2.335-4.807 2.335zM393.214 182.714l-40 8.572-22.857 2.5S315 197 313.571 197.357c-1.428.357-4.642 1.429-6.428 1.786-1.786.357-11.429 3.571-15 3.928-3.572.358-8.572.715-10.714.715h-15l-3.572-.715-6.428-1.428-2.143-.714-6.429 1.428s-2.143 2.857-2.5 4.643c-.357 1.786-1.428 9.286-1.428 9.286s1.071 2.857 2.857 3.571c1.785.714 4.285 2.143 6.071 4.286 1.786 2.143 4.643 6.428 4.643 6.428l5.357 3.572 6.429 6.786 1.785 2.142s3.929.715 6.072.358c2.143-.358 6.786-5.358 6.786-5.358l8.571-7.142 11.071-7.143 10.715-3.572s16.428-9.285 17.857-10.357c1.428-1.071 16.071-8.928 16.071-8.928s7.5-3.215 11.429-3.929c3.928-.714 1.071 0 8.571-1.786 7.5-1.785 11.429-3.571 11.429-3.571l11.071-1.429 12.143-4.285 11.072-2.143s13.214-2.5 15.357-2.5c2.143 0 16.071-2.5 16.071-2.5l7.143-.715s1.071 2.5.357 5.358c-.714 2.857-.714-.715-.714.714 0 1.428-5.714 10.357-5.714 10.357s-2.5 8.214-5 11.786c-2.5 3.571-11.786 9.643-11.786 9.643s-3.214 4.642-3.929 6.071c-.714 1.429-6.071 6.071-6.071 6.071l-2.143 4.286 1.429 4.286s2.5.357 5 .357 6.071.714 8.571 0 11.429-6.071 11.429-6.071l6.785-4.286 10.357-3.214 6.786-2.143L475 218.07l8.214-2.142 4.643-2.143 1.786-1.786 1.428-6.429-1.428-3.214-5.357-8.214-2.857-5.714-4.286-5.358-3.572-3.928-3.214-3.214-3.928-2.5-4.286-2.5-5.714-1.429s-2.5-2.143-6.429-1.429c-3.929.715-12.5 2.5-12.5 2.5l-10.714 2.858s-11.786 3.214-14.643 3.928c-2.857.714-12.5 3.214-12.5 3.214z"/><path d="M342.442 223.096l-9.597 3.03s-4.545 3.536-7.07 5.557c-2.526 2.02-10.102 7.576-10.102 7.576s-7.071 4.546-7.576 7.07c-.506 2.526-.506 7.577-.506 9.597 0 2.02 5.051 8.082 5.051 8.082h6.061s4.546-4.041 4.546-7.072c0-3.03.505-8.586.505-8.586l2.525-5.05s2.526-2.02 6.061-3.031c3.536-1.01 10.102-2.525 10.102-2.525s3.03 4.04 4.545 7.07c1.516 3.031 3.536 4.041 5.051 10.607 1.515 6.566.505 15.658 1.515 19.193 1.01 3.536 5.556 18.688 5.556 18.688l-1.01 21.718s-.505 7.576-.505 9.597c0 2.02-2.02 29.294-2.02 29.294l-2.526 11.617v12.627s-1.515 7.576-2.02 13.132c-.505 5.556-2.525 10.101-3.03 13.637-.506 3.535-3.536 19.698-3.536 19.698v5.556s.505 3.535-4.546 6.566c-5.05 3.03-11.616 4.545-11.616 4.545l-8.082 3.536-9.596 4.04-4.546 3.03-1.515 11.113 3.03 4.545 5.051 13.132 4.546 3.03 5.05 6.062 8.082 3.03s7.07 1.515 9.091 2.02c2.02.505 13.132.505 13.132.505l10.102-2.02 4.545-4.04 3.536-8.587.505-7.07-2.525-14.648-1.01-8.081s-1.01-3.03-1.01-6.566-6.062-15.658-6.062-15.658l2.02-12.121s-1.01-4.546 0-8.587c1.01-4.04 3.536-18.182 3.536-18.182v-24.75l3.03-19.697v-36.366l.506-19.698V272.09l.505-14.647V246.33l-.505-8.586-4.04-7.071-3.536-3.536-6.061-3.03-6.061-.506-5.05-1.01z"/></svg>