<?xml version="1.0" encoding="UTF-8" standalone="no"?>
<!-- Created with Inkscape (http://www.inkscape.org/) -->

<svg
   xmlns:dc="http://purl.org/dc/elements/1.1/"
   xmlns:cc="http://creativecommons.org/ns#"
   xmlns:rdf="http://www.w3.org/1999/02/22-rdf-syntax-ns#"
   xmlns:svg="http://www.w3.org/2000/svg"
   xmlns="http://www.w3.org/2000/svg"
   xmlns:sodipodi="http://sodipodi.sourceforge.net/DTD/sodipodi-0.dtd"
   xmlns:inkscape="http://www.inkscape.org/namespaces/inkscape"
   width="512"
   height="512"
   viewBox="0 0 512 512"
   version="1.1"
   id="svg4564"
   inkscape:version="0.92.4 (5da689c313, 2019-01-14)"
   sodipodi:docname="U+5929.svg">
  <defs
     id="defs4558" />
  <sodipodi:namedview
     id="base"
     pagecolor="#ffffff"
     bordercolor="#666666"
     borderopacity="1.0"
     inkscape:pageopacity="0.0"
     inkscape:pageshadow="2"
     inkscape:zoom="0.98994949"
     inkscape:cx="-116.33569"
     inkscape:cy="293.32847"
     inkscape:document-units="px"
     inkscape:current-layer="svg4564"
     showgrid="false"
     units="px"
     inkscape:window-width="1920"
     inkscape:window-height="1017"
     inkscape:window-x="-8"
     inkscape:window-y="-8"
     inkscape:window-maximized="1">
    <inkscape:grid
       type="xygrid"
       id="grid4588" />
  </sodipodi:namedview>
  <metadata
     id="metadata4561">
    <rdf:RDF>
      <cc:Work
         rdf:about="">
        <dc:format>image/svg+xml</dc:format>
        <dc:type
           rdf:resource="http://purl.org/dc/dcmitype/StillImage" />
        <dc:title></dc:title>
      </cc:Work>
    </rdf:RDF>
  </metadata>
  <g
     inkscape:label="圖層 1"
     inkscape:groupmode="layer"
     id="layer1"
     transform="translate(0,-161.53331)">
    <path
       style="fill:#000000;stroke:none;stroke-width:1px;stroke-linecap:butt;stroke-linejoin:miter;stroke-opacity:1;fill-opacity:1"
       d="m 133.21387,254.19373 c 0,0 14.31376,7.89318 22.22335,9.21765 5.62856,0.94251 11.45326,-0.14847 17.08857,-1.04977 17.29319,-2.76585 33.94565,-8.64112 50.82887,-13.29524 12.72255,-3.50716 25.79018,-6.07795 38.02603,-11.02239 3.29037,-1.32962 5.87162,-4.76053 9.41416,-4.9723 6.65669,-0.39794 13.79568,2.6259 18.67699,7.16932 2.60522,2.42489 4.84604,7.39572 4.53036,9.66856 -0.31567,2.27284 -1.05796,7.69344 -2.63632,8.51419 -1.57837,0.82075 -9.32167,-0.52876 -13.91412,0.12124 -7.59921,1.07556 -14.88828,3.78756 -22.17531,6.1967 -12.47853,4.12548 -25.98084,9.51401 -38.90991,14.43428 -6.22387,2.36855 -12.46223,4.99051 -18.61124,7.26233 -2.62522,1.64405 -8.33638,6.22418 -8.33638,6.22418 0,0 -10.36938,-0.46176 -15.92522,-1.72445 -5.55584,-1.26269 -13.38452,-9.34391 -17.67767,-12.6269 -4.29315,-3.283 -8.33376,-7.82869 -10.85914,-10.85914 -2.52538,-3.03046 -11.74302,-13.25826 -11.74302,-13.25826 z"
       id="path4590"
       inkscape:connector-curvature="0"
       sodipodi:nodetypes="caaaaaaccasaccsccc" />
    <path
       style="fill:#000000;stroke:none;stroke-width:1px;stroke-linecap:butt;stroke-linejoin:miter;stroke-opacity:1;fill-opacity:1"
       d="m 81.31728,401.2972 c 12.626907,2.0203 8.838835,4.79822 17.172593,3.03046 8.333757,-1.76777 70.295207,-19.98379 105.560937,-29.54697 32.80096,-8.8948 91.79762,-24.11739 98.61615,-25.88515 6.81853,-1.76777 7.95495,-7.95496 11.23794,-8.96511 3.283,-1.01015 26.76905,4.54569 28.28428,5.3033 1.51522,0.75762 12.87944,8.08122 13.13198,10.85914 0.25254,2.77792 1.26269,8.08122 -1.51523,7.57615 -2.77792,-0.50508 -5.05076,-1.01016 -7.57614,-1.26269 -2.52539,-0.25254 -5.30331,2.52538 -8.08123,2.77792 -2.77791,0.25253 -19.31917,-6.43973 -22.09709,-6.18719 -2.77792,0.25254 -28.45625,2.94834 -42.44938,5.80335 -21.3708,4.36027 -42.28214,10.80172 -63.12052,17.24262 -19.31696,5.97064 -39.14821,10.96864 -57.32616,19.82052 -9.59184,4.67082 -22.34066,14.3334 -26.88634,17.36386 -4.54569,3.03045 -7.82868,6.56599 -10.85914,8.83883 -3.03046,2.27284 -15.909904,-6.56599 -19.950514,-9.34391 C 91.418805,415.94441 81.31728,401.2972 81.31728,401.2972 Z"
       id="path4592"
       inkscape:connector-curvature="0"
       sodipodi:nodetypes="ccacscscccsaaacssc" />
    <path
       style="fill:#000000;stroke:none;stroke-width:1px;stroke-linecap:butt;stroke-linejoin:miter;stroke-opacity:1;fill-opacity:1"
       d="m 160.67739,316.50752 c 1.4034,-5.30472 11.67989,-3.283 16.22557,-2.77792 4.54569,0.50508 24.62247,6.7554 26.1377,9.78585 1.51523,3.03046 2.52538,6.56599 1.51523,9.09138 -1.01015,2.52538 -1.01015,3.53553 -4.54569,7.57614 -3.53553,4.04061 -6.56599,13.38452 -6.56599,17.9302 0,4.54569 -5.70028,32.83415 -8.58629,49.24494 -1.8266,10.38665 -3.60243,20.78265 -5.52521,31.15193 -1.94851,10.50805 -3.17596,21.19575 -6.09155,31.47753 -5.5793,19.6753 -12.02647,38.21736 -20.4429,56.33395 -5.50077,11.84055 -13.96356,26.88634 -19.5194,33.95741 -5.55584,7.07107 -14.48441,14.74438 -21.0504,18.27991 -6.56599,3.53554 -24.345189,9.61658 -29.395951,11.63688 -5.050763,2.02031 -17.172594,3.03046 -23.738585,2.52539 -6.565992,-0.50508 -23.738585,-6.06092 -23.738585,-6.06092 0,0 11.616754,-3.53553 19.697975,-6.56599 8.08122,-3.03046 38.393159,-14.81107 53.895226,-27.7792 14.71873,-12.31284 25.66116,-28.94435 34.9982,-45.70939 12.92431,-23.20614 25.75889,-66.41754 28.28427,-74.49876 2.52538,-8.08122 13.63706,-62.12438 13.13198,-70.2056 -0.50508,-8.08122 -2.15831,-24.44677 -8.56277,-30.67813 -3.50397,-3.40926 -4.96194,-5.3204 -8.57438,-8.52579 -3.61244,-3.20539 -8.38067,-3.0441 -7.54845,-6.18981 z"
       id="path4594"
       inkscape:connector-curvature="0"
       sodipodi:nodetypes="ascccsaasasccccsaassssa" />
    <path
       style="fill:#000000;stroke:none;stroke-width:1px;stroke-linecap:butt;stroke-linejoin:miter;stroke-opacity:1;fill-opacity:1"
       d="m 160.80366,371.30829 c 2.67726,-3.15561 7.89182,-3.34613 14.45781,-0.0631 6.56599,3.283 19.54962,10.78292 28.03173,17.93021 15.85722,13.36178 36.11295,40.91118 41.92133,45.96194 5.80838,5.05076 39.64849,35.35534 53.53809,44.19417 13.88959,8.83884 34.09264,20.70813 43.94163,25.00128 9.84899,4.29315 36.61803,14.64721 47.22463,17.93021 10.6066,3.28299 76.51906,18.05647 78.91817,18.81409 2.39911,0.75761 7.19734,-0.12627 7.19734,2.27284 0,2.39911 -4.79823,4.29315 -7.07107,4.67196 -2.27284,0.3788 -34.87399,0.8487 -52.14913,3.03045 -15.6583,1.97755 -37.62818,9.34391 -46.46701,9.09138 -8.83884,-0.25254 -48.64819,-26.21801 -70.92361,-42.42641 -17.87941,-13.00971 -40.82452,-34.85026 -49.91589,-43.6891 -9.09137,-8.83883 -11.79972,-13.53972 -17.17477,-20.72299 -9.11733,-12.18449 -15.9107,-26.05262 -25.50417,-37.86586 -9.38192,-11.55273 -26.07457,-27.71606 -31.12533,-32.0092 -5.05077,-4.29315 -14.18054,-6.41887 -14.89975,-12.12184 z"
       id="path4596"
       inkscape:connector-curvature="0"
       sodipodi:nodetypes="csasssscscacasaasc" />
  </g>
</svg>
