<?xml version="1.0" standalone="no"?>
<!DOCTYPE svg PUBLIC "-//W3C//DTD SVG 1.1//EN" "http://www.w3.org/Graphics/SVG/1.1/DTD/svg11.dtd" >
<svg xmlns="http://www.w3.org/2000/svg" xmlns:xlink="http://www.w3.org/1999/xlink" version="1.1" viewBox="0 0 256 256">
  <g transform="matrix(1 0 0 -1 0 204)">
   <path fill="currentColor"
d="M82 198q17 -7 23 -12q1 -1 0 -2q0 -1 -2 -1q-4 -2 -7 2q-3 2 -8 2q-3 -1 -4 0q0 1 2 3q2 1 -5 7q-4 2 1 1zM121 175q1 -1 4 -3q5 -2 8 -3q2 -2 1 -4q-1 -1 -3 0q-7 1 -14 -1q-6 -1 -27 -10q-7 -3 -2 2q-28 -8 -44 -3q-6 0 0 1q10 -1 23 2q12 2 31 8q14 4 15 9q0 4 8 2z
M79 106q-2 -2 -6 -7q-16 -17 -29 -25q-3 -2 -2 -1q1 2 3 4l3 3q26 25 28 35q-1 0 1 0q-29 -8 -55 -15q-5 -3 -12 0q-3 1 0 2q25 3 62 15q-7 4 -4 13q0 1 1 2q1 0 2 -1q0 -3 9 2q4 2 1 -1q-9 -9 -1 -12q12 6 23 21q4 5 2 7q-3 1 -2 2l3 1q5 -1 10 -5q2 -3 2 -4t-3 -1t-6 -4
q-4 -5 -21 -16q22 5 24 8q2 4 8 2q7 -3 15 -7q1 -1 1 -2t-1 -1q-3 -1 -7 0q-2 0 -2 1q-7 1 -14 0q-8 0 -23 -4q-5 -1 -9 -2q1 -9 -1 -10zM99 70v1q22 -8 36 -20q2 -4 -2 -7q-3 -3 -6 2q-11 11 -27 22q7 -50 -16 -75q-2 -2 -4 -1q-1 0 -1 2q0 5 -9 11q-3 1 -5 7q-3 6 2 2
q3 -5 17 -9q4 -2 8 5q9 21 1 61q-5 -6 -12 -18q-5 -8 -8 -13q-33 -48 -50 -56q-6 -3 -1 1q40 35 68 94q-1 0 -2 1q-2 5 -5 7q-10 -18 -29 -32q-6 -4 -2 1q18 15 27 35q0 1 -3 4q-4 4 1 2q16 -8 20 -18q-1 1 1 1q23 14 23 25q0 1 1 1t2 -1q4 -7 2 -8q-14 -16 -27 -19
q-1 -2 -1 -1v-2q1 -3 1 -5zM201 185q1 -1 9 -6q3 -6 -2 -7q-6 -1 -8 -5q-6 -7 -11 -23q-3 -9 3 -7q3 0 9 4l4 2q1 3 11 -3q1 -4 -2 -4q-11 0 -15 -4q-24 -19 -49 -44q16 4 24 10q5 6 11 3l3 -3q6 -3 9 -4t2 -4q-1 -2 -5 -3q-5 -2 -7 -9q-6 -15 -16 -36q6 -12 24 -34
q1 -2 2 -2q3 -5 18 -4q20 -2 37 -7q2 -1 2 -2q-1 -1 -3 -1q-2 1 -4 1q-15 3 -28 2q-17 1 -22 6q-13 11 -29 37q-25 -36 -42 -45q-7 -5 -1 2q20 14 40 47q-8 10 -14 17q-2 2 -2 3q-4 4 -11 -1q-5 -3 -2 2q12 10 16 6q9 -15 15 -22q11 19 17 44q0 3 -1 3q-1 1 -4 1
q-21 -7 -34 -15q-5 -3 -6 -2q-1 0 1 4q1 7 8 10q26 17 42 39q-10 -3 -7 12l2 6q2 7 8 23q0 2 -1 3t-4 0q-16 -5 -29 -11q-4 -35 -10 -47q-5 -5 -7 2q0 7 3 11q4 7 8 23q1 11 -7 20q-3 3 2 2q5 -3 10 -8q11 7 18 9q5 1 13 8q5 5 12 1z" />
  </g>

</svg>
