<?xml version="1.0" standalone="no"?>
<!DOCTYPE svg PUBLIC "-//W3C//DTD SVG 1.1//EN" "http://www.w3.org/Graphics/SVG/1.1/DTD/svg11.dtd" >
<svg xmlns="http://www.w3.org/2000/svg" xmlns:xlink="http://www.w3.org/1999/xlink" version="1.1" viewBox="0 0 256 256">
  <g transform="matrix(1 0 0 -1 0 204)">
   <path fill="currentColor"
d="M83 194l3 -6q3 -3 5 -4q1 -3 0 -7q-3 -7 -5 -17q-1 -12 -1 -35q5 2 6 0q0 -5 -6 -7q-2 -9 -1 -23q10 -9 21 -12q3 -1 1 -4q-3 -5 -10 1q-4 2 -11 8q-2 3 -2 4q0 -8 -1 -27v-48q-1 -17 5 -27q1 -4 -2 -6q-4 -2 -6 1q-14 20 -18 39q-1 3 2 0q4 -8 10 -16l1 -1q5 -3 5 3
q0 28 -1 44v36q-19 -31 -50 -45q-8 -4 -1 2q36 21 51 57q-1 1 0 6q1 4 1 6q-4 -2 -9 -4q-17 -7 -24 -10q-16 -8 -32 -4q-4 1 1 2q12 -2 64 22q-1 20 1 42q0 3 1 5q1 14 -1 23q-2 2 -1 3q1 0 4 -1zM148 185q2 0 9 2q5 2 7 3q8 4 13 -1q2 -3 6 -6q3 -3 5 -4q4 -5 -2 -7
q-5 0 -6 -4q-4 -45 -10 -69q-1 -3 -3 -4q-1 0 -1 3q0 10 -1 15q-10 -4 -14 -2q-3 1 0 3q4 0 7 2q4 4 8 2q1 -2 2 -2t2 3q2 19 4 63q-1 5 -5 4q-16 -5 -21 -3q-5 1 0 2zM153 143q1 0 5 2q1 0 2 1q3 2 7 1l2 -2q0 -1 -1 -1q-13 -7 -15 -3q-3 1 0 2zM184 66q1 0 4 -1h2
q2 -3 2 -4t-3 -1q-4 0 -6 -3q-28 -30 -40 -38q-6 -4 -1 1q17 15 36 37q3 3 2 6t4 3zM126 77q-7 -4 -17 0q-4 1 1 2h2q8 2 17 5q60 17 87 20q5 -1 9 4q2 1 7 0q13 -7 18 -10q1 -1 1 -2q-1 -1 -2 -1q-6 -1 -10 4q-6 4 -16 3q-23 -2 -77 -18q-2 -5 -5 -8q6 -6 22 -3q34 3 44 -6
q11 -9 15 -23q2 -9 -5 -10q-3 0 -9 -6q-21 -28 -63 -43q-4 -1 -6 -1q-2 1 0 3q2 1 -2 3q-7 9 -8 32q-1 7 2 0q2 -19 14 -28q2 -5 9 -2q40 16 56 46l1 1q7 12 2 17q-13 20 -56 13q1 -6 -2 -8q-5 -3 -11 -9q-3 -2 1 -1t14 5q9 4 14 6q7 1 0 -2q-51 -20 -52 -26q-3 -1 -3 1
q8 11 10 10q4 -1 6 3q22 17 19 21q-7 1 -14 4q-2 -2 -4 -2q-4 -4 -8 -4t-1 2q8 5 17 14q-4 -1 -11 -4zM149 136q-4 -25 2 -29q1 -5 -1 -5q-5 -1 -5 3q-8 16 -4 20l2 6q3 18 3 33q-1 4 2 1q3 -5 3 -10q0 -4 -2 -19z" />
  </g>

</svg>
