<?xml version="1.0" standalone="no"?>
<!DOCTYPE svg PUBLIC "-//W3C//DTD SVG 1.1//EN" "http://www.w3.org/Graphics/SVG/1.1/DTD/svg11.dtd" >
<svg xmlns="http://www.w3.org/2000/svg" xmlns:xlink="http://www.w3.org/1999/xlink" version="1.1" viewBox="0 0 256 256">
  <g transform="matrix(1 0 0 -1 0 204)">
   <path fill="currentColor"
d="M98 127q1 3 3 3q1 -2 7 -1q7 -1 11 -2q1 -2 0 -3q0 -1 -3 -1q-13 -1 -17 -4q-2 -2 -5 -6q-2 -1 -3 -2q-1 -5 -1 -13v-10q13 3 28 6h1q4 1 4 4q-1 4 6 3q7 -2 17 -7q2 -2 0 -4q-1 -2 -3 0q-14 4 -29 0q-11 -3 -24 -6q-4 -67 -45 -87q-7 -2 -2 2q37 24 42 84
q-27 -8 -44 -15q-14 -6 -23 0q-4 1 0 2q12 0 28 6l22 6q9 2 18 5v6v15q-2 -2 -4 -2q-6 -5 0 2l2 1q1 1 3 4v2q-2 0 -1 0q-13 -5 -28 -5q-2 0 -2 1q1 1 3 2q17 3 28 8q-1 13 -2 25v3q-22 -10 -35 -7q-3 0 -3 1t3 2q9 0 28 6q4 2 7 3q-1 4 -1 11q-1 7 -1 12q-1 17 -5 19
q-2 3 2 1q10 -6 9 -11q-1 -6 0 -15q1 -10 1 -15l4 2q13 5 14 9q0 4 7 1q8 -3 16 -7q1 -2 0 -3t-4 -1q-12 2 -26 -5q-5 -3 -3 0q1 1 0 1h-3q-1 -1 -2 -1q-1 -1 -3 -1v-16q1 -9 1 -12q5 2 7 4zM194 169q8 -8 11 -12q3 -3 2 -4q-1 -2 -5 -2q-7 -1 -11 -13q-13 -28 -21 -35
q37 -16 51 -38q3 -8 -3 -7q-7 1 -15 3q-6 2 -10 3q-18 3 -38 12q0 -15 -1 -34q0 -26 2 -48q8 -8 12 -17q-1 -4 -5 -3q-6 2 -9 7q-3 6 -9 11q-3 6 7 13q0 46 -1 64q0 21 -1 69q-1 12 -5 15q-4 2 0 2q7 0 11 -3q2 -2 1 -4q-2 -3 -1 -14q0 -18 -1 -30v-25q20 -10 42 -8
q8 -1 9 1t-5 8q-8 7 -29 17q-3 1 -5 3q-3 0 -3 1t2 3q12 13 23 50q1 6 -4 5q-11 -3 -27 -5h-1q-5 0 0 2q2 1 8 2q12 4 18 8q4 5 11 3z" />
  </g>

</svg>
